{
.appVersion = "1330";
classes = (
{
automatic = 1;

glyphs = (
{
glyphname = A;
lastChange = "2020-07-14 05:45:50 +0000";
layers = (
{
anchors = (
{
name = bottom;
position = "{281, 0}";
},
{
name = ogonek;
position = "{577, 0}";
},
{
name = top;
position = "{426, 720}";
}
);
guideLines = (
{
angle = 67.5;
position = "{-280, -200}";
}
);
layerId = "AB099EFE-E788-4EFC-8633-CF147CB782A6";
paths = (
{
closed = 1;
nodes = (
"17 0 LINE",
"157 238 LINE",
"167 255 LINE",
"413 673 LINE",
"417 673 LINE",
"497 252 LINE",
"499 242 LINE",
"545 0 LINE",
"577 0 LINE",
"436 720 LINE",
"408 720 LINE",
"-19 0 LINE"
);
},
{
closed = 1;
nodes = (
"512 232 LINE",
"519 262 LINE",
"147 262 LINE",
"140 232 LINE"
);
}
);
width = 660;
},
{
anchors = (
{
name = bottom;
position = "{319, 0}";
},
{
name = ogonek;
position = "{683, 0}";
},
{
name = top;
position = "{464, 720}";
}
);
guideLines = (
{
angle = 67.5;
position = "{-302, -200}";
}
);
layerId = "2D8F7115-C311-411E-929D-56333CF7FFB2";
paths = (
{
closed = 1;
nodes = (
"161 0 LINE",
"258 176 LINE",
"286 246 LINE",
"426 514 LINE",
"430 514 LINE",
"472 246 LINE",
"473 176 LINE",
"501 0 LINE",
"683 0 LINE",
"540 720 LINE",
"384 720 LINE",
"-49 0 LINE"
);
},
{
closed = 1;
nodes = (
"538 132 LINE",
"568 278 LINE",
"182 278 LINE",
"151 132 LINE"
);
}
);
width = 740;
},
{
anchors = (
{
name = bottom;
position = "{294, 0}";
},
{
name = ogonek;
position = "{619, 0}";
},
{
name = top;
position = "{439, 720}";
}
);
associatedMasterId = "AB099EFE-E788-4EFC-8633-CF147CB782A6";
layerId = "DA56A3F0-66E3-468B-87D2-ED392B537C0D";
name = "{88}";
paths = (
{
closed = 1;
nodes = (
"59 0 LINE",
"187 214 LINE",
"206 247 LINE",
"415 597 LINE",
"419 597 LINE",
"486 246 LINE",
"491 216 LINE",
"534 0 LINE",
"619 0 LINE",
"471 720 LINE",
"401 720 LINE",
"-35 0 LINE"
);
},
{
closed = 1;
nodes = (
"523 193 LINE",
"539 270 LINE",
"153 270 LINE",
"138 193 LINE"
);
}
);
width = 687;
}
);
leftKerningGroup = LAT_A_UC;
rightKerningGroup = LAT_A_UC;
unicode = 0041;
},
{
glyphname = AE;
lastChange = "2020-06-14 07:13:58 +0000";
layers = (
{
anchors = (
{
name = bottom;
position = "{479, 0}";
},
{
name = top;
position = "{641, 720}";
}
);
background = {
components = (
{
name = E;
transform = "{1, 0, 0, 1, 369, 0}";
}
);
};
layerId = "AB099EFE-E788-4EFC-8633-CF147CB782A6";
paths = (
{
closed = 1;
nodes = (
"-5 0 LINE",
"317 428 LINE",
"498 666 LINE",
"519 666 LINE",
"526 720 LINE",
"501 720 LINE",
"-43 0 LINE"
);
},
{
closed = 1;
nodes = (
"461 232 LINE",
"464 262 LINE",
"165 262 LINE",
"158 232 LINE"
);
},
{
closed = 1;
nodes = (
"766 0 LINE",
"771 30 LINE",
"456 30 LINE",
"528 690 LINE",
"903 690 LINE",
"911 720 LINE",
"507 720 LINE",
"487 582 LINE",
"423 0 LINE"
);
},
{
closed = 1;
nodes = (
"789 354 LINE",
"797 384 LINE",
"489 384 LINE",
"485 354 LINE"
);
}
);
width = 887;
},
{
anchors = (
{
name = bottom;
position = "{505, 0}";
},
{
name = top;
position = "{649, 720}";
}
);
background = {
components = (
{
name = E;
transform = "{1, 0, 0, 1, 379, 0}";
}
);
};
layerId = "2D8F7115-C311-411E-929D-56333CF7FFB2";
paths = (
{
closed = 1;
nodes = (
"149 0 LINE",
"347 314 LINE",
"492 564 LINE",
"502 564 LINE",
"526 720 LINE",
"403 720 LINE",
"-51 0 LINE"
);
},
{
closed = 1;
nodes = (
"569 138 LINE",
"586 274 LINE",
"211 274 LINE",
"184 138 LINE"
);
},
{
closed = 1;
nodes = (
"802 0 LINE",
"834 160 LINE",
"609 160 LINE",
"652 560 LINE",
"915 560 LINE",
"947 720 LINE",
"519 720 LINE",
"472 466 LINE",
"417 0 LINE"
);
},
{
closed = 1;
nodes = (
"816 286 LINE",
"849 438 LINE",
"623 438 LINE",
"603 286 LINE"
);
}
);
width = 906;
}
);
leftKerningGroup = LAT_AE_UC;
rightKerningGroup = LAT_E_UC;
rightMetricsKey = E;
unicode = 00C6;
},
{
glyphname = B;
lastChange = "2020-07-14 05:43:28 +0000";
layers = (
{
anchors = (
{
name = bottom;
position = "{233, 0}";
},
{
name = center;
position = "{109, 206}";
},
{
name = top;
position = "{374, 720}";
}
);
background = {
paths = (
{
closed = 1;
nodes = (
"135 0 LINE",
"135 720 LINE",
"103 720 LINE",
"103 0 LINE"
);
},
{
closed = 1;
nodes = (
"309 0 LINE SMOOTH",
"443 0 OFFCURVE",
"531 70 OFFCURVE",
"531 192 CURVE SMOOTH",
"531 288 OFFCURVE",
"461 362 OFFCURVE",
"361 378 CURVE",
"357 370 LINE",
"420 399 OFFCURVE",
"474 462 OFFCURVE",
"473 546 CURVE SMOOTH",
"474 660 OFFCURVE",
"385 720 OFFCURVE",
"257 720 CURVE SMOOTH",
"113 720 LINE",
"113 690 LINE",
"253 690 LINE SMOOTH",
"367 690 OFFCURVE",
"441 639 OFFCURVE",
"441 546 CURVE SMOOTH",
"441 456 OFFCURVE",
"367 384 OFFCURVE",
"291 384 CURVE SMOOTH",
"113 384 LINE",
"113 356 LINE",
"309 356 LINE SMOOTH",
"428 356 OFFCURVE",
"498 280 OFFCURVE",
"499 190 CURVE SMOOTH",
"498 96 OFFCURVE",
"437 30 OFFCURVE",
"315 30 CURVE SMOOTH",
"131 30 LINE",
"131 0 LINE"
);
}
);
};
layerId = "AB099EFE-E788-4EFC-8633-CF147CB782A6";
paths = (
{
closed = 1;
nodes = (
"281 0 LINE SMOOTH",
"399 0 OFFCURVE",
"488 64 OFFCURVE",
"503 173 CURVE SMOOTH",
"516 268 OFFCURVE",
"459 355 OFFCURVE",
"371 374 CURVE",
"373 367 LINE",
"446 396 OFFCURVE",
"498 451 OFFCURVE",
"512 526 CURVE SMOOTH",
"532 636 OFFCURVE",
"459 720 OFFCURVE",
"348 720 CURVE SMOOTH",
"204 720 LINE",
"196 690 LINE",
"346 690 LINE SMOOTH",
"427 690 OFFCURVE",
"501 634 OFFCURVE",
"480 529 CURVE SMOOTH",
"463 446 OFFCURVE",
"389 386 OFFCURVE",
"311 386 CURVE SMOOTH",
"137 386 LINE",
"129 356 LINE",
"307 356 LINE SMOOTH",
"414 356 OFFCURVE",
"485 273 OFFCURVE",
"472 178 CURVE SMOOTH",
"459 84 OFFCURVE",
"381 30 OFFCURVE",
"280 30 CURVE SMOOTH",
"82 30 LINE",
"77 0 LINE"
);
},
{
closed = 1;
nodes = (
"82 0 LINE",
"227 720 LINE",
"194 720 LINE",
"49 0 LINE"
);
}
);
width = 580;
},
{
anchors = (
{
name = bottom;
position = "{290, 0}";
},
{
name = center;
position = "{157, 226}";
},
{
name = top;
position = "{397, 720}";
}
);
background = {
paths = (
{
closed = 1;
nodes = (
"399 0 LINE SMOOTH",
"541 0 OFFCURVE",
"640 88 OFFCURVE",
"641 212 CURVE SMOOTH",
"640 324 OFFCURVE",
"560 369 OFFCURVE",
"465 394 CURVE",
"465 350 LINE",
"545 382 OFFCURVE",
"613 453 OFFCURVE",
"613 536 CURVE SMOOTH",
"613 647 OFFCURVE",
"511 719 OFFCURVE",
"359 720 CURVE SMOOTH",
"243 720 LINE",
"243 568 LINE",
"349 568 LINE SMOOTH",
"400 567 OFFCURVE",
"435 545 OFFCURVE",
"435 500 CURVE SMOOTH",
"435 454 OFFCURVE",
"402 428 OFFCURVE",
"357 428 CURVE SMOOTH",
"243 428 LINE",
"243 300 LINE",
"373 300 LINE SMOOTH",
"430 300 OFFCURVE",
"463 275 OFFCURVE",
"463 230 CURVE SMOOTH",
"463 183 OFFCURVE",
"426 152 OFFCURVE",
"379 152 CURVE SMOOTH",
"243 152 LINE",
"243 0 LINE"
);
},
{
closed = 1;
nodes = (
"257 0 LINE",
"257 720 LINE",
"81 720 LINE",
"81 0 LINE"
);
}
);
};
layerId = "2D8F7115-C311-411E-929D-56333CF7FFB2";
paths = (
{
closed = 1;
nodes = (
"367 0 LINE SMOOTH",
"504 0 OFFCURVE",
"594 81 OFFCURVE",
"614 194 CURVE SMOOTH",
"637 320 OFFCURVE",
"553 379 OFFCURVE",
"465 392 CURVE",
"461 347 LINE",
"534 372 OFFCURVE",
"604 434 OFFCURVE",
"618 522 CURVE SMOOTH",
"637 642 OFFCURVE",
"534 720 OFFCURVE",
"385 720 CURVE SMOOTH",
"330 720 LINE",
"298 564 LINE",
"369 564 LINE SMOOTH",
"419 564 OFFCURVE",
"445 544 OFFCURVE",
"442 506 CURVE SMOOTH",
"439 469 OFFCURVE",
"409 430 OFFCURVE",
"368 430 CURVE SMOOTH",
"271 430 LINE",
"245 298 LINE",
"377 298 LINE SMOOTH",
"421 298 OFFCURVE",
"443 273 OFFCURVE",
"438 233 CURVE SMOOTH",
"432 189 OFFCURVE",
"402 156 OFFCURVE",
"357 156 CURVE SMOOTH",
"217 156 LINE",
"185 0 LINE"
);
},
{
closed = 1;
nodes = (
"203 0 LINE",
"348 720 LINE",
"164 720 LINE",
"19 0 LINE"
);
}
);
width = 656;
},
{
anchors = (
{
name = bottom;
position = "{252, 0}";
},
{
name = center;
position = "{124, 214}";
},
{
name = top;
position = "{380, 720}";
}
);
associatedMasterId = "AB099EFE-E788-4EFC-8633-CF147CB782A6";
layerId = "0C9E43AB-3911-42B2-9F4E-A3E14138C1D2";
name = "{88}";
paths = (
{
closed = 1;
nodes = (
"312 0 LINE SMOOTH",
"447 0 OFFCURVE",
"525 85 OFFCURVE",
"544 180 CURVE SMOOTH",
"560 264 OFFCURVE",
"523 356 OFFCURVE",
"415 379 CURVE",
"415 359 LINE",
"477 386 OFFCURVE",
"532 440 OFFCURVE",
"547 524 CURVE SMOOTH",
"568 644 OFFCURVE",
"471 720 OFFCURVE",
"352 720 CURVE SMOOTH",
"249 720 LINE",
"232 643 LINE",
"340 643 LINE SMOOTH",
"425 643 OFFCURVE",
"476 607 OFFCURVE",
"461 521 CURVE SMOOTH",
"450 458 OFFCURVE",
"396 407 OFFCURVE",
"329 407 CURVE SMOOTH",
"185 407 LINE",
"171 330 LINE",
"330 330 LINE SMOOTH",
"412 330 OFFCURVE",
"467 276 OFFCURVE",
"458 199 CURVE SMOOTH",
"449 124 OFFCURVE",
"387 77 OFFCURVE",
"306 77 CURVE SMOOTH",
"129 77 LINE",
"113 0 LINE"
);
},
{
closed = 1;
nodes = (
"122 0 LINE",
"267 720 LINE",
"181 720 LINE",
"36 0 LINE"
);
}
);
width = 612;
}
);
leftKerningGroup = LAT_H_UC;
leftMetricsKey = H;
rightKerningGroup = LAT_B_UC;
unicode = 0042;
},
{
glyphname = C;
lastChange = "2020-07-14 11:23:41 +0000";
layers = (
{
anchors = (
{
name = base;
position = "{362, 0}";
},
{
name = bottom;
position = "{343, 0}";
},
{
name = cedilla;
position = "{343, 0}";
},
{
name = top;
position = "{487, 720}";
}
);
guideLines = (
{
angle = 67.5;
position = "{553, 360}";
},
{
angle = 112.5;
position = "{557, 360}";
}
);
layerId = "AB099EFE-E788-4EFC-8633-CF147CB782A6";
paths = (
{
closed = 1;
nodes = (
"422 -8 OFFCURVE",
"507 18 OFFCURVE",
"578 76 CURVE",
"569 110 LINE",
"510 54 OFFCURVE",
"430 22 OFFCURVE",
"351 22 CURVE SMOOTH",
"150 22 OFFCURVE",
"82 197 OFFCURVE",
"117 369 CURVE SMOOTH",
"150 535 OFFCURVE",
"277 698 OFFCURVE",
"476 698 CURVE SMOOTH",
"557 698 OFFCURVE",
"631 668 OFFCURVE",
"667 622 CURVE",
"686 652 LINE",
"642 696 OFFCURVE",
"563 728 OFFCURVE",
"474 728 CURVE SMOOTH",
"260 728 OFFCURVE",
"121 553 OFFCURVE",
"85 374 CURVE SMOOTH",
"47 186 OFFCURVE",
"125 -8 OFFCURVE",
"349 -8 CURVE SMOOTH"
);
}
);
width = 658;
},
{
anchors = (
{
name = base;
position = "{358, 0}";
},
{
name = bottom;
position = "{353, 0}";
},
{
name = cedilla;
position = "{365, 0}";
},
{
name = top;
position = "{484, 720}";
}
);
layerId = "2D8F7115-C311-411E-929D-56333CF7FFB2";
paths = (
{
closed = 1;
nodes = (
"469 -8 OFFCURVE",
"537 9 OFFCURVE",
"595 42 CURVE",
"554 215 LINE",
"519 177 OFFCURVE",
"457 156 OFFCURVE",
"403 156 CURVE SMOOTH",
"293 156 OFFCURVE",
"217 243 OFFCURVE",
"235 364 CURVE SMOOTH",
"249 459 OFFCURVE",
"325 564 OFFCURVE",
"452 564 CURVE SMOOTH",
"507 564 OFFCURVE",
"557 545 OFFCURVE",
"591 514 CURVE",
"688 666 LINE",
"621 705 OFFCURVE",
"541 728 OFFCURVE",
"459 728 CURVE SMOOTH",
"244 728 OFFCURVE",
"90 570 OFFCURVE",
"57 388 CURVE SMOOTH",
"18 174 OFFCURVE",
"160 -8 OFFCURVE",
"397 -8 CURVE SMOOTH"
);
}
);
width = 663;
},
{
anchors = (
{
name = base;
position = "{366, 0}";
},
{
name = bottom;
position = "{351, 0}";
},
{
name = cedilla;
position = "{355, 0}";
},
{
name = top;
position = "{480, 720}";
}
);
associatedMasterId = "AB099EFE-E788-4EFC-8633-CF147CB782A6";
layerId = "9B3C7F0A-9177-4D58-8E32-F0C866DB0DCD";
name = "{88}";
paths = (
{
closed = 1;
nodes = (
"454 -8 OFFCURVE",
"536 17 OFFCURVE",
"592 61 CURVE",
"571 149 LINE",
"517 104 OFFCURVE",
"445 76 OFFCURVE",
"375 76 CURVE SMOOTH",
"222 76 OFFCURVE",
"131 206 OFFCURVE",
"160 366 CURVE SMOOTH",
"189 520 OFFCURVE",
"314 648 OFFCURVE",
"466 648 CURVE SMOOTH",
"531 648 OFFCURVE",
"608 624 OFFCURVE",
"647 581 CURVE",
"693 660 LINE",
"640 701 OFFCURVE",
"554 728 OFFCURVE",
"472 728 CURVE SMOOTH",
"271 728 OFFCURVE",
"110 571 OFFCURVE",
"75 373 CURVE SMOOTH",
"37 157 OFFCURVE",
"164 -8 OFFCURVE",
"374 -8 CURVE SMOOTH"
);
}
);
width = 658;
}
);
leftKerningGroup = LAT_O_UC;
leftMetricsKey = O;
rightKerningGroup = LAT_C_UC;
unicode = 0043;
},
{
glyphname = D;
lastChange = "2020-07-14 11:23:41 +0000";
layers = (
{
anchors = (
{
name = bottom;
position = "{286, 0}";
},
{
name = center;
position = "{141, 360}";
},
{
name = top;
position = "{429, 720}";
}
);
layerId = "AB099EFE-E788-4EFC-8633-CF147CB782A6";
paths = (
{
closed = 1;
nodes = (
"278 0 LINE SMOOTH",
"445 0 OFFCURVE",
"592 111 OFFCURVE",
"631 325 CURVE SMOOTH",
"670 540 OFFCURVE",
"583 720 OFFCURVE",
"385 720 CURVE SMOOTH",
"194 720 LINE",
"49 0 LINE"
);
},
{
closed = 1;
nodes = (
"220 690 LINE",
"381 690 LINE SMOOTH",
"553 690 OFFCURVE",
"635 540 OFFCURVE",
"601 337 CURVE SMOOTH",
"569 149 OFFCURVE",
"446 30 OFFCURVE",
"281 30 CURVE SMOOTH",
"88 30 LINE"
);
}
);
width = 679;
},
{
anchors = (
{
name = bottom;
position = "{286, 0}";
},
{
name = center;
position = "{189, 360}";
},
{
name = top;
position = "{433, 720}";
}
);
layerId = "2D8F7115-C311-411E-929D-56333CF7FFB2";
paths = (
{
closed = 1;
nodes = (
"304 0 LINE SMOOTH",
"500 0 OFFCURVE",
"653 124 OFFCURVE",
"690 311 CURVE SMOOTH",
"734 531 OFFCURVE",
"596 720 OFFCURVE",
"378 720 CURVE SMOOTH",
"164 720 LINE",
"19 0 LINE"
);
},
{
closed = 1;
nodes = (
"315 560 LINE",
"366 560 LINE SMOOTH",
"477 560 OFFCURVE",
"534 465 OFFCURVE",
"516 351 CURVE SMOOTH",
"497 233 OFFCURVE",
"413 160 OFFCURVE",
"326 160 CURVE SMOOTH",
"235 160 LINE"
);
}
);
width = 713;
}
);
leftKerningGroup = LAT_H_UC;
leftMetricsKey = H;
rightKerningGroup = LAT_O_UC;
rightMetricsKey = O;
unicode = 0044;
},
{
glyphname = E;
lastChange = "2020-07-14 05:46:03 +0000";
layers = (
{
anchors = (
{
name = bottom;
position = "{248, 0}";
},
{
name = cedilla;
position = "{242, 0}";
},
{
name = ogonek;
position = "{407, 0}";
},
{
name = top;
position = "{380, 720}";
},
{
name = topleft;
position = "{117, 720}";
}
);
hints = (
{
horizontal = 1;
origin = "{0, 2}";
target = "{0, 11}";
type = TTStem;
options = 4;
},
{
horizontal = 1;
origin = "{0, 3}";
target = "{0, 6}";
type = TTStem;
options = 1;
},
{
horizontal = 1;
origin = "{0, 10}";
target = "{0, 7}";
type = TTStem;
options = 4;
}
);
layerId = "AB099EFE-E788-4EFC-8633-CF147CB782A6";
paths = (
{
closed = 1;
nodes = (
"407 0 LINE",
"412 30 LINE",
"88 30 LINE",
"153 354 LINE",
"430 354 LINE",
"438 384 LINE",
"159 384 LINE",
"221 690 LINE",
"544 690 LINE",
"552 720 LINE",
"194 720 LINE",
"49 0 LINE"
);
}
);
width = 528;
},
{
anchors = (
{
name = bottom;
position = "{248, 0}";
},
{
name = cedilla;
position = "{246, 0}";
},
{
name = ogonek;
position = "{435, 0}";
},
{
name = top;
position = "{380, 720}";
},
{
name = topleft;
position = "{117, 720}";
}
);
hints = (
{
horizontal = 1;
origin = "{0, 2}";
target = "{0, 11}";
type = TTStem;
options = 4;
},
{
horizontal = 1;
origin = "{0, 3}";
target = "{0, 6}";
type = TTStem;
options = 1;
},
{
horizontal = 1;
origin = "{0, 10}";
target = "{0, 7}";
type = TTStem;
options = 4;
}
);
layerId = "2D8F7115-C311-411E-929D-56333CF7FFB2";
paths = (
{
closed = 1;
nodes = (
"435 0 LINE",
"468 160 LINE",
"236 160 LINE",
"260 286 LINE",
"450 286 LINE",
"484 438 LINE",
"291 438 LINE",
"315 560 LINE",
"546 560 LINE",
"580 720 LINE",
"164 720 LINE",
"19 0 LINE"
);
}
);
width = 539;
}
);
leftKerningGroup = LAT_H_UC;
leftMetricsKey = H;
rightKerningGroup = LAT_E_UC;
unicode = 0045;
},
{
glyphname = F;
lastChange = "2020-07-07 08:18:52 +0000";
layers = (
{
anchors = (
{
name = bottom;
position = "{65, 0}";
},
{
name = center;
position = "{102, 184}";
},
{
name = top;
position = "{383, 720}";
}
);
layerId = "AB099EFE-E788-4EFC-8633-CF147CB782A6";
paths = (
{
closed = 1;
nodes = (
"82 0 LINE",
"153 354 LINE",
"426 354 LINE",
"434 384 LINE",
"159 384 LINE",
"221 690 LINE",
"532 690 LINE",
"540 720 LINE",
"194 720 LINE",
"49 0 LINE"
);
}
);
width = 488;
},
{
anchors = (
{
name = bottom;
position = "{111, 0}";
},
{
name = center;
position = "{139, 142}";
},
{
name = top;
position = "{403, 720}";
}
);
layerId = "2D8F7115-C311-411E-929D-56333CF7FFB2";
paths = (
{
closed = 1;
nodes = (
"203 0 LINE",
"254 256 LINE",
"445 256 LINE",
"477 416 LINE",
"287 416 LINE",
"315 560 LINE",
"548 560 LINE",
"580 720 LINE",
"164 720 LINE",
"19 0 LINE"
);
}
);
width = 519;
}
);
leftKerningGroup = LAT_H_UC;
leftMetricsKey = H;
rightKerningGroup = LAT_F_UC;
unicode = 0046;
},
{
glyphname = G;
lastChange = "2020-07-14 11:24:20 +0000";
layers = (
{
anchors = (
{
name = bottom;
position = "{321, 0}";
},
{
name = hook;
position = "{673, 648}";
},
{
name = top;
position = "{465, 720}";
}
);
background = {
components = (
{
name = C;
}
);
};
layerId = "AB099EFE-E788-4EFC-8633-CF147CB782A6";
paths = (
{
closed = 1;
nodes = (
"521 -8 OFFCURVE",
"649 147 OFFCURVE",
"684 342 CURVE SMOOTH",
"689 370 LINE",
"385 370 LINE",
"379 340 LINE",
"666 340 LINE",
"654 351 LINE",
"614 135 OFFCURVE",
"484 20 OFFCURVE",
"345 20 CURVE SMOOTH",
"193 20 OFFCURVE",
"78 158 OFFCURVE",
"113 356 CURVE SMOOTH",
"144 531 OFFCURVE",
"285 698 OFFCURVE",
"470 698 CURVE SMOOTH",
"545 698 OFFCURVE",
"612 671 OFFCURVE",
"654 618 CURVE",
"673 648 LINE",
"635 687 OFFCURVE",
"567 728 OFFCURVE",
"470 728 CURVE SMOOTH",
"282 728 OFFCURVE",
"120 568 OFFCURVE",
"84 364 CURVE SMOOTH",
"44 138 OFFCURVE",
"175 -8 OFFCURVE",
"345 -8 CURVE SMOOTH"
);
}
);
width = 727;
},
{
anchors = (
{
name = bottom;
position = "{337, 0}";
},
{
name = hook;
position = "{698, 666}";
},
{
name = top;
position = "{476, 720}";
}
);
layerId = "2D8F7115-C311-411E-929D-56333CF7FFB2";
paths = (
{
closed = 1;
nodes = (
"554 -8 OFFCURVE",
"690 121 OFFCURVE",
"722 280 CURVE SMOOTH",
"750 420 LINE",
"408 418 LINE",
"380 274 LINE",
"631 274 LINE",
"553 306 LINE",
"545 212 OFFCURVE",
"479 152 OFFCURVE",
"389 152 CURVE SMOOTH",
"275 152 OFFCURVE",
"213 254 OFFCURVE",
"237 372 CURVE SMOOTH",
"259 484 OFFCURVE",
"353 564 OFFCURVE",
"461 564 CURVE SMOOTH",
"518 564 OFFCURVE",
"581 542 OFFCURVE",
"600 514 CURVE",
"698 666 LINE",
"646 700 OFFCURVE",
"564 728 OFFCURVE",
"471 728 CURVE SMOOTH",
"264 728 OFFCURVE",
"96 587 OFFCURVE",
"58 396 CURVE SMOOTH",
"16 180 OFFCURVE",
"158 -8 OFFCURVE",
"375 -8 CURVE SMOOTH"
);
}
);
width = 749;
},
{
anchors = (
{
name = bottom;
position = "{351, 0}";
},
{
name = hook;
position = "{685, 656}";
},
{
name = top;
position = "{466, 720}";
}
);
associatedMasterId = "AB099EFE-E788-4EFC-8633-CF147CB782A6";
layerId = "87B17E00-5D92-4165-815E-2CF0DDBFC34E";
name = "{88}";
paths = (
{
closed = 1;
nodes = (
"540 -8 OFFCURVE",
"654 117 OFFCURVE",
"690 311 CURVE SMOOTH",
"704 387 LINE",
"388 387 LINE",
"373 310 LINE",
"641 310 LINE",
"603 337 LINE",
"587 179 OFFCURVE",
"499 74 OFFCURVE",
"368 74 CURVE SMOOTH",
"204 74 OFFCURVE",
"136 232 OFFCURVE",
"166 383 CURVE SMOOTH",
"192 517 OFFCURVE",
"293 648 OFFCURVE",
"460 648 CURVE SMOOTH",
"549 648 OFFCURVE",
"606 611 OFFCURVE",
"638 576 CURVE",
"685 656 LINE",
"642 691 OFFCURVE",
"571 728 OFFCURVE",
"463 728 CURVE SMOOTH",
"237 728 OFFCURVE",
"111 564 OFFCURVE",
"79 396 CURVE SMOOTH",
"39 187 OFFCURVE",
"146 -8 OFFCURVE",
"365 -8 CURVE SMOOTH"
);
}
);
width = 728;
}
);
leftKerningGroup = LAT_O_UC;
leftMetricsKey = O;
rightKerningGroup = LAT_G_UC;
unicode = 0047;
},
{
glyphname = H;
lastChange = "2020-07-14 04:30:13 +0000";
layers = (
{
anchors = (
{
name = bottom;
position = "{290, 0}";
},
{
name = center;
position = "{395, 530}";
},
{
name = top;
position = "{433, 720}";
}
);
layerId = "AB099EFE-E788-4EFC-8633-CF147CB782A6";
paths = (
{
closed = 1;
nodes = (
"82 0 LINE",
"153 354 LINE",
"569 354 LINE",
"498 0 LINE",
"531 0 LINE",
"674 720 LINE",
"641 720 LINE",
"575 384 LINE",
"159 384 LINE",
"227 720 LINE",
"194 720 LINE",
"49 0 LINE"
);
}
);
width = 682;
},
{
anchors = (
{
name = bottom;
position = "{324, 0}";
},
{
name = center;
position = "{440, 578}";
},
{
name = top;
position = "{468, 720}";
}
);
guideLines = (
{
angle = 78.75;
position = "{-38, 0}";
}
);
layerId = "2D8F7115-C311-411E-929D-56333CF7FFB2";
paths = (
{
closed = 1;
nodes = (
"203 0 LINE",
"259 282 LINE",
"502 282 LINE",
"445 0 LINE",
"629 0 LINE",
"773 720 LINE",
"589 720 LINE",
"534 442 LINE",
"292 442 LINE",
"348 720 LINE",
"164 720 LINE",
"19 0 LINE"
);
}
);
width = 754;
},
{
anchors = (
{
name = bottom;
position = "{301, 0}";
},
{
name = center;
position = "{409, 548}";
},
{
name = top;
position = "{444, 720}";
}
);
associatedMasterId = "AB099EFE-E788-4EFC-8633-CF147CB782A6";
layerId = "197653D6-91CD-408C-B20B-5A45EC9206AE";
name = "{88}";
paths = (
{
closed = 1;
nodes = (
"126 0 LINE",
"192 327 LINE",
"539 327 LINE",
"475 0 LINE",
"564 0 LINE",
"708 720 LINE",
"618 720 LINE",
"556 407 LINE",
"207 407 LINE",
"271 720 LINE",
"181 720 LINE",
"36 0 LINE"
);
}
);
width = 705;
}
);
leftKerningGroup = LAT_H_UC;
rightKerningGroup = LAT_H_UC;
unicode = 0048;
},
{
glyphname = I;
lastChange = "2020-07-14 05:46:16 +0000";
layers = (
{
anchors = (
{
name = bottom;
position = "{72, 0}";
},
{
name = ogonek;
position = "{86, 0}";
},
{
name = top;
position = "{217, 720}";
}
);
layerId = "AB099EFE-E788-4EFC-8633-CF147CB782A6";
paths = (
{
closed = 1;
nodes = (
"88 0 LINE",
"233 720 LINE",
"200 720 LINE",
"55 0 LINE"
);
}
);
width = 247;
},
{
anchors = (
{
name = bottom;
position = "{119, 0}";
},
{
name = ogonek;
position = "{205, 0}";
},
{
name = top;
position = "{264, 720}";
}
);
layerId = "2D8F7115-C311-411E-929D-56333CF7FFB2";
paths = (
{
closed = 1;
nodes = (
"210 0 LINE",
"355 720 LINE",
"172 720 LINE",
"27 0 LINE"
);
}
);
width = 344;
}
);
leftKerningGroup = LAT_H_UC;
rightKerningGroup = LAT_H_UC;
unicode = 0049;
},
{
color = 10;
glyphname = I.ss04;
lastChange = "2020-07-14 05:46:32 +0000";
layers = (
{
anchors = (
{
name = bottom;
position = "{128, 0}";
},
{
name = ogonek;
position = "{189, 0}";
},
{
name = top;
position = "{273, 720}";
}
);
layerId = "AB099EFE-E788-4EFC-8633-CF147CB782A6";
paths = (
{
closed = 1;
nodes = (
"144 0 LINE",
"289 720 LINE",
"257 720 LINE",
"114 0 LINE"
);
},
{
closed = 1;
nodes = (
"228 0 LINE",
"233 30 LINE",
"35 30 LINE",
"30 0 LINE"
);
},
{
closed = 1;
nodes = (
"364 690 LINE",
"373 720 LINE",
"175 720 LINE",
"167 690 LINE"
);
}
);
width = 361;
},
{
anchors = (
{
name = bottom;
position = "{187, 0}";
},
{
name = ogonek;
position = "{296, 0}";
},
{
name = top;
position = "{332, 720}";
}
);
layerId = "2D8F7115-C311-411E-929D-56333CF7FFB2";
paths = (
{
closed = 1;
nodes = (
"277 0 LINE",
"422 720 LINE",
"244 720 LINE",
"99 0 LINE"
);
},
{
closed = 1;
nodes = (
"369 0 LINE",
"401 156 LINE",
"42 156 LINE",
"7 0 LINE"
);
},
{
closed = 1;
nodes = (
"479 564 LINE",
"514 720 LINE",
"152 720 LINE",
"117 564 LINE"
);
}
);
width = 481;
}
);
leftKerningGroup = LAT_ISS03_UC;
rightKerningGroup = LAT_ISS03_UC;
},
{
glyphname = J;
lastChange = "2020-07-14 05:59:03 +0000";
layers = (
{
anchors = (
{
name = bottom;
position = "{155, 0}";
},
{
name = top;
position = "{422, 720}";
}
);
layerId = "AB099EFE-E788-4EFC-8633-CF147CB782A6";
paths = (
{
closed = 1;
nodes = (
"247 -8 OFFCURVE",
"307 61 OFFCURVE",
"336 208 CURVE SMOOTH",
"438 720 LINE",
"405 720 LINE",
"303 208 LINE SMOOTH",
"278 82 OFFCURVE",
"230 22 OFFCURVE",
"153 22 CURVE SMOOTH",
"83 22 OFFCURVE",
"21 77 OFFCURVE",
"39 168 CURVE",
"7 172 LINE",
"-10 68 OFFCURVE",
"59 -8 OFFCURVE",
"155 -8 CURVE SMOOTH"
);
}
);
width = 446;
},
{
anchors = (
{
name = bottom;
position = "{223, 0}";
},
{
name = top;
position = "{480, 720}";
}
);
layerId = "2D8F7115-C311-411E-929D-56333CF7FFB2";
paths = (
{
closed = 1;
nodes = (
"352 -8 OFFCURVE",
"444 78 OFFCURVE",
"473 222 CURVE SMOOTH",
"573 720 LINE",
"389 720 LINE",
"293 237 LINE SMOOTH",
"288 211 OFFCURVE",
"274 152 OFFCURVE",
"224 152 CURVE SMOOTH",
"186 152 OFFCURVE",
"168 183 OFFCURVE",
"179 234 CURVE",
"9 250 LINE",
"-22 95 OFFCURVE",
"63 -8 OFFCURVE",
"219 -8 CURVE SMOOTH"
);
}
);
width = 554;
},
{
anchors = (
{
name = bottom;
position = "{181, 0}";
},
{
name = top;
position = "{444, 720}";
}
);
associatedMasterId = "AB099EFE-E788-4EFC-8633-CF147CB782A6";
layerId = "1CD72F10-1FA4-4D45-B93E-0F7AF1F6FD84";
name = "{88}";
paths = (
{
closed = 1;
nodes = (
"288 -8 OFFCURVE",
"359 67 OFFCURVE",
"388 213 CURVE SMOOTH",
"489 720 LINE",
"399 720 LINE",
"299 219 LINE SMOOTH",
"279 119 OFFCURVE",
"241 72 OFFCURVE",
"180 72 CURVE SMOOTH",
"115 72 OFFCURVE",
"78 123 OFFCURVE",
"92 193 CURVE",
"8 202 LINE",
"-15 78 OFFCURVE",
"62 -8 OFFCURVE",
"180 -8 CURVE SMOOTH"
);
}
);
width = 486;
}
);
leftKerningGroup = LAT_J_UC;
rightKerningGroup = LAT_U_UC;
rightMetricsKey = H;
unicode = 004A;
},
{
glyphname = K;
lastChange = "2020-07-14 05:59:15 +0000";
layers = (
{
anchors = (
{
name = bottom;
position = "{250, 0}";
},
{
name = top;
position = "{395, 720}";
}
);
layerId = "AB099EFE-E788-4EFC-8633-CF147CB782A6";
paths = (
{
closed = 1;
nodes = (
"82 0 LINE",
"151 344 LINE",
"166 344 LINE",
"151 358 LINE",
"451 0 LINE",
"489 0 LINE",
"181 369 LINE",
"182 349 LINE",
"610 720 LINE",
"564 720 LINE",
"151 362 LINE",
"175 378 LINE",
"158 378 LINE",
"226 718 LINE",
"194 720 LINE",
"49 0 LINE"
);
}
);
width = 564;
},
{
anchors = (
{
name = bottom;
position = "{306, 0}";
},
{
name = top;
position = "{433, 720}";
}
);
guideLines = (
{
angle = 120;
position = "{533, 0}";
}
);
layerId = "2D8F7115-C311-411E-929D-56333CF7FFB2";
paths = (
{
closed = 1;
nodes = (
"203 0 LINE",
"264 307 LINE",
"305 307 LINE",
"251 340 LINE",
"427 0 LINE",
"629 0 LINE",
"406 404 LINE",
"407 296 LINE",
"773 720 LINE",
"548 720 LINE",
"270 377 LINE",
"324 399 LINE",
"283 399 LINE",
"348 720 LINE",
"164 720 LINE",
"19 0 LINE"
);
}
);
width = 694;
}
);
leftKerningGroup = LAT_H_UC;
leftMetricsKey = H;
rightKerningGroup = LAT_K_UC;
unicode = 004B;
},
{
glyphname = L;
lastChange = "2020-07-14 05:59:27 +0000";
layers = (
{
anchors = (
{
name = bottom;
position = "{231, 0}";
},
{
name = center;
position = "{137, 360}";
},
{
name = dot;
position = "{381, 360}";
},
{
name = top;
position = "{210, 720}";
},
{
name = topright;
position = "{454, 720}";
}
);
layerId = "AB099EFE-E788-4EFC-8633-CF147CB782A6";
paths = (
{
closed = 1;
nodes = (
"397 0 LINE",
"402 30 LINE",
"88 30 LINE",
"227 720 LINE",
"194 720 LINE",
"49 0 LINE"
);
}
);
width = 476;
},
{
anchors = (
{
name = bottom;
position = "{229, 0}";
},
{
name = center;
position = "{183, 370}";
},
{
name = dot;
position = "{437, 370}";
},
{
name = top;
position = "{260, 720}";
},
{
name = topright;
position = "{396, 720}";
}
);
layerId = "2D8F7115-C311-411E-929D-56333CF7FFB2";
paths = (
{
closed = 1;
nodes = (
"428 0 LINE",
"460 160 LINE",
"235 160 LINE",
"348 720 LINE",
"164 720 LINE",
"19 0 LINE"
);
}
);
width = 500;
}
);
leftKerningGroup = LAT_H_UC;
leftMetricsKey = H;
rightKerningGroup = LAT_L_UC;
unicode = 004C;
},
{
glyphname = M;
lastChange = "2020-07-14 04:30:13 +0000";
layers = (
{
anchors = (
{
name = bottom;
position = "{334, 0}";
},
{
name = top;
position = "{479, 720}";
}
);
layerId = "AB099EFE-E788-4EFC-8633-CF147CB782A6";
paths = (
{
closed = 1;
nodes = (
"82 0 LINE",
"187 522 LINE",
"213 658 LINE",
"217 658 LINE",
"351 134 LINE",
"371 134 LINE",
"716 661 LINE",
"720 661 LINE",
"690 523 LINE",
"584 0 LINE",
"617 0 LINE",
"762 720 LINE",
"718 720 LINE",
"373 188 LINE",
"367 188 LINE",
"232 720 LINE",
"194 720 LINE",
"49 0 LINE"
);
}
);
width = 770;
},
{
anchors = (
{
name = bottom;
position = "{392, 0}";
},
{
name = top;
position = "{537, 720}";
}
);
layerId = "2D8F7115-C311-411E-929D-56333CF7FFB2";
paths = (
{
closed = 1;
nodes = (
"199 0 LINE",
"235 196 LINE",
"271 398 LINE",
"277 398 LINE",
"398 150 LINE",
"430 150 LINE",
"676 418 LINE",
"680 418 LINE",
"626 196 LINE",
"587 0 LINE",
"766 0 LINE",
"910 720 LINE",
"763 720 LINE",
"453 398 LINE",
"449 398 LINE",
"286 720 LINE",
"164 720 LINE",
"19 0 LINE"
);
}
);
width = 891;
},
{
anchors = (
{
name = bottom;
position = "{356, 0}";
},
{
name = top;
position = "{501, 720}";
}
);
associatedMasterId = "AB099EFE-E788-4EFC-8633-CF147CB782A6";
layerId = "316906F1-4E1B-4D21-99D2-21B97F507EE5";
name = "{88}";
paths = (
{
closed = 1;
nodes = (
"124 0 LINE",
"203 393 LINE",
"229 535 LINE",
"233 535 LINE",
"368 139 LINE",
"399 139 LINE",
"696 541 LINE",
"700 541 LINE",
"664 394 LINE",
"584 0 LINE",
"672 0 LINE",
"817 720 LINE",
"735 720 LINE",
"406 271 LINE",
"402 271 LINE",
"246 720 LINE",
"181 720 LINE",
"36 0 LINE"
);
}
);
width = 814;
}
);
leftKerningGroup = LAT_H_UC;
leftMetricsKey = H;
rightKerningGroup = LAT_H_UC;
rightMetricsKey = H;
unicode = 004D;
},
{
glyphname = N;
lastChange = "2020-07-14 04:30:13 +0000";
layers = (
{
anchors = (
{
name = bottom;
position = "{282, 0}";
},
{
name = leghookright;
position = "{513, 0}";
},
{
name = top;
position = "{434, 720}";
}
);
layerId = "AB099EFE-E788-4EFC-8633-CF147CB782A6";
paths = (
{
closed = 1;
nodes = (
"81 0 LINE",
"176 472 LINE",
"213 660 LINE",
"217 660 LINE",
"274 528 LINE",
"498 0 LINE",
"528 0 LINE",
"673 720 LINE",
"641 720 LINE",
"547 252 LINE",
"508 58 LINE",
"502 58 LINE",
"448 190 LINE",
"222 720 LINE",
"194 720 LINE",
"49 0 LINE"
);
}
);
width = 681;
},
{
anchors = (
{
name = bottom;
position = "{328, 0}";
},
{
name = leghookright;
position = "{553, 0}";
},
{
name = top;
position = "{474, 720}";
}
);
layerId = "2D8F7115-C311-411E-929D-56333CF7FFB2";
paths = (
{
closed = 1;
nodes = (
"203 0 LINE",
"250 254 LINE",
"272 417 LINE",
"276 417 LINE",
"311 348 LINE",
"506 0 LINE",
"640 0 LINE",
"785 720 LINE",
"599 720 LINE",
"548 466 LINE",
"526 312 LINE",
"522 312 LINE",
"489 380 LINE",
"296 720 LINE",
"164 720 LINE",
"19 0 LINE"
);
}
);
width = 766;
},
{
anchors = (
{
name = bottom;
position = "{301, 0}";
},
{
name = leghookright;
position = "{533, 0}";
},
{
name = top;
position = "{451, 720}";
}
);
associatedMasterId = "AB099EFE-E788-4EFC-8633-CF147CB782A6";
layerId = "DA3C03A4-BA25-4AAA-BE70-017C666F7BA9";
name = "{88}";
paths = (
{
closed = 1;
nodes = (
"120 0 LINE",
"196 381 LINE",
"231 559 LINE",
"235 559 LINE",
"285 460 LINE",
"512 0 LINE",
"575 0 LINE",
"720 720 LINE",
"635 720 LINE",
"560 343 LINE",
"525 159 LINE",
"519 159 LINE",
"471 257 LINE",
"244 720 LINE",
"181 720 LINE",
"36 0 LINE"
);
}
);
width = 717;
}
);
leftKerningGroup = LAT_H_UC;
leftMetricsKey = H;
rightKerningGroup = LAT_H_UC;
rightMetricsKey = H;
unicode = 004E;
},
{
glyphname = O;
lastChange = "2020-07-14 11:17:31 +0000";
layers = (
{
anchors = (
{
name = bottom;
position = "{331, 0}";
},
{
name = center;
position = "{400, 358}";
},
{
name = horn;
position = "{602, 688}";
},
{
name = ogonek;
position = "{422, 0}";
},
{
name = top;
position = "{468, 720}";
},
{
name = topleft;
position = "{119, 720}";
},
{
name = topright;
position = "{801, 720}";
}
);
layerId = "AB099EFE-E788-4EFC-8633-CF147CB782A6";
paths = (
{
closed = 1;
nodes = (
"519 -8 OFFCURVE",
"670 118 OFFCURVE",
"711 319 CURVE SMOOTH",
"752 516 OFFCURVE",
"663 728 OFFCURVE",
"447 728 CURVE SMOOTH",
"280 728 OFFCURVE",
"131 601 OFFCURVE",
"91 404 CURVE SMOOTH",
"47 187 OFFCURVE",
"152 -8 OFFCURVE",
"355 -8 CURVE SMOOTH"
);
},
{
closed = 1;
nodes = (
"180 23 OFFCURVE",
"81 191 OFFCURVE",
"121 393 CURVE SMOOTH",
"156 569 OFFCURVE",
"284 698 OFFCURVE",
"444 698 CURVE SMOOTH",
"639 698 OFFCURVE",
"718 509 OFFCURVE",
"680 325 CURVE SMOOTH",
"641 135 OFFCURVE",
"499 23 OFFCURVE",
"356 23 CURVE SMOOTH"
);
}
);
width = 760;
},
{
anchors = (
{
name = bottom;
position = "{363, 0}";
},
{
name = center;
position = "{416, 360}";
},
{
name = horn;
position = "{620, 696}";
},
{
name = ogonek;
position = "{455, 0}";
},
{
name = top;
position = "{469, 720}";
},
{
name = topleft;
position = "{85, 720}";
},
{
name = topright;
position = "{852, 720}";
}
);
layerId = "2D8F7115-C311-411E-929D-56333CF7FFB2";
paths = (
{
closed = 1;
nodes = (
"575 -8 OFFCURVE",
"734 129 OFFCURVE",
"770 313 CURVE SMOOTH",
"815 539 OFFCURVE",
"680 729 OFFCURVE",
"447 729 CURVE SMOOTH",
"254 729 OFFCURVE",
"98 594 OFFCURVE",
"61 408 CURVE SMOOTH",
"15 178 OFFCURVE",
"155 -8 OFFCURVE",
"384 -8 CURVE SMOOTH"
);
},
{
closed = 1;
nodes = (
"277 156 OFFCURVE",
"208 258 OFFCURVE",
"233 383 CURVE SMOOTH",
"254 487 OFFCURVE",
"337 564 OFFCURVE",
"437 564 CURVE SMOOTH",
"555 564 OFFCURVE",
"623 464 OFFCURVE",
"598 339 CURVE SMOOTH",
"577 233 OFFCURVE",
"493 156 OFFCURVE",
"394 156 CURVE SMOOTH"
);
}
);
width = 792;
},
{
anchors = (
{
name = bottom;
position = "{348, 0}";
},
{
name = center;
position = "{407, 359}";
},
{
name = horn;
position = "{615, 691}";
},
{
name = ogonek;
position = "{436, 0}";
},
{
name = top;
position = "{471, 720}";
},
{
name = topleft;
position = "{114, 720}";
},
{
name = topright;
position = "{826, 720}";
}
);
associatedMasterId = "AB099EFE-E788-4EFC-8633-CF147CB782A6";
layerId = "B192A006-0524-4472-92EF-483C6A4F1206";
name = "{88}";
paths = (
{
closed = 1;
nodes = (
"552 -6 OFFCURVE",
"694 129 OFFCURVE",
"732 318 CURVE SMOOTH",
"775 533 OFFCURVE",
"656 726 OFFCURVE",
"442 726 CURVE SMOOTH",
"261 726 OFFCURVE",
"117 585 OFFCURVE",
"80 401 CURVE SMOOTH",
"36 182 OFFCURVE",
"163 -6 OFFCURVE",
"375 -6 CURVE SMOOTH"
);
},
{
closed = 1;
nodes = (
"213 74 OFFCURVE",
"131 218 OFFCURVE",
"163 382 CURVE SMOOTH",
"193 533 OFFCURVE",
"304 647 OFFCURVE",
"443 647 CURVE SMOOTH",
"604 647 OFFCURVE",
"681 496 OFFCURVE",
"649 333 CURVE SMOOTH",
"617 179 OFFCURVE",
"506 74 OFFCURVE",
"373 74 CURVE SMOOTH"
);
}
);
width = 772;
}
);
leftKerningGroup = LAT_O_UC;
rightKerningGroup = LAT_O_UC;
unicode = 004F;
},
{
glyphname = OE;
lastChange = "2020-07-14 11:23:41 +0000";
layers = (
{
anchors = (
{
name = bottom;
position = "{523, 0}";
},
{
name = top;
position = "{667, 720}";
}
);
background = {
components = (
{
name = E;
transform = "{1, 0, 0, 1, 585, 0}";
}
);
};
layerId = "AB099EFE-E788-4EFC-8633-CF147CB782A6";
paths = (
{
closed = 1;
nodes = (
"485 -8 OFFCURVE",
"613 73 OFFCURVE",
"682 220 CURVE",
"668 222 LINE",
"624 0 LINE",
"990 0 LINE",
"995 30 LINE",
"661 30 LINE",
"726 354 LINE",
"1014 354 LINE",
"1021 384 LINE",
"733 384 LINE",
"793 690 LINE",
"1127 690 LINE",
"1134 720 LINE",
"768 720 LINE",
"724 498 LINE",
"732 496 LINE",
"725 642 OFFCURVE",
"617 728 OFFCURVE",
"481 728 CURVE SMOOTH",
"291 728 OFFCURVE",
"123 568 OFFCURVE",
"83 361 CURVE SMOOTH",
"43 156 OFFCURVE",
"157 -8 OFFCURVE",
"350 -8 CURVE SMOOTH"
);
},
{
closed = 1;
nodes = (
"176 20 OFFCURVE",
"78 170 OFFCURVE",
"113 357 CURVE SMOOTH",
"148 542 OFFCURVE",
"299 700 OFFCURVE",
"480 700 CURVE SMOOTH",
"657 700 OFFCURVE",
"739 552 OFFCURVE",
"700 356 CURVE SMOOTH",
"661 164 OFFCURVE",
"522 20 OFFCURVE",
"352 20 CURVE SMOOTH"
);
}
);
width = 1110;
},
{
anchors = (
{
name = bottom;
position = "{467, 0}";
},
{
name = top;
position = "{611, 720}";
}
);
background = {
anchors = (
{
name = bottom;
position = "{518, 0}";
},
{
name = top;
position = "{518, 720}";
}
);
components = (
{
name = E;
transform = "{1, 0, 0, 1, 486, 0}";
}
);
paths = (
{
closed = 1;
nodes = (
"536 0 LINE",
"536 156 LINE",
"438 156 LINE SMOOTH",
"339 156 OFFCURVE",
"267 243 OFFCURVE",
"268 358 CURVE SMOOTH",
"267 471 OFFCURVE",
"337 564 OFFCURVE",
"438 564 CURVE SMOOTH",
"536 564 LINE",
"536 720 LINE",
"444 720 LINE SMOOTH",
"249 720 OFFCURVE",
"90 555 OFFCURVE",
"90 358 CURVE SMOOTH",
"90 158 OFFCURVE",
"238 0 OFFCURVE",
"444 0 CURVE SMOOTH"
);
}
);
};
layerId = "2D8F7115-C311-411E-929D-56333CF7FFB2";
paths = (
{
closed = 1;
nodes = (
"454 -8 OFFCURVE",
"548 45 OFFCURVE",
"614 142 CURVE",
"544 150 LINE",
"514 0 LINE",
"917 0 LINE",
"951 160 LINE",
"711 160 LINE",
"734 286 LINE",
"934 286 LINE",
"966 438 LINE",
"766 438 LINE",
"791 560 LINE",
"1030 560 LINE",
"1061 720 LINE",
"658 720 LINE",
"630 570 LINE",
"696 562 LINE",
"669 662 OFFCURVE",
"596 732 OFFCURVE",
"461 732 CURVE SMOOTH",
"262 732 OFFCURVE",
"95 587 OFFCURVE",
"58 395 CURVE SMOOTH",
"15 175 OFFCURVE",
"144 -8 OFFCURVE",
"344 -8 CURVE SMOOTH"
);
},
{
closed = 1;
nodes = (
"273 144 OFFCURVE",
"214 226 OFFCURVE",
"229 339 CURVE SMOOTH",
"248 475 OFFCURVE",
"351 576 OFFCURVE",
"462 576 CURVE SMOOTH",
"567 576 OFFCURVE",
"624 491 OFFCURVE",
"605 368 CURVE SMOOTH",
"587 250 OFFCURVE",
"485 144 OFFCURVE",
"373 144 CURVE SMOOTH"
);
}
);
width = 1022;
}
);
leftKerningGroup = LAT_O_UC;
leftMetricsKey = O;
rightKerningGroup = LAT_E_UC;
rightMetricsKey = E;
unicode = 0152;
},
{
glyphname = P;
lastChange = "2020-07-14 05:48:14 +0000";
layers = (
{
anchors = (
{
name = bottom;
position = "{75, 0}";
},
{
name = top;
position = "{387, 720}";
}
);
layerId = "AB099EFE-E788-4EFC-8633-CF147CB782A6";
paths = (
{
closed = 1;
nodes = (
"82 0 LINE",
"227 720 LINE",
"194 720 LINE",
"49 0 LINE"
);
},
{
closed = 1;
nodes = (
"317 324 LINE SMOOTH",
"436 324 OFFCURVE",
"524 392 OFFCURVE",
"543 506 CURVE SMOOTH",
"565 635 OFFCURVE",
"480 720 OFFCURVE",
"366 720 CURVE SMOOTH",
"216 720 LINE",
"208 690 LINE",
"364 690 LINE SMOOTH",
"456 690 OFFCURVE",
"531 624 OFFCURVE",
"512 513 CURVE SMOOTH",
"496 418 OFFCURVE",
"429 354 OFFCURVE",
"324 354 CURVE SMOOTH",
"141 354 LINE",
"136 324 LINE"
);
}
);
width = 545;
},
{
anchors = (
{
name = bottom;
position = "{121, 0}";
},
{
name = top;
position = "{421, 720}";
}
);
background = {
paths = (
{
closed = 1;
nodes = (
"301 236 LINE SMOOTH",
"459 236 OFFCURVE",
"601 325 OFFCURVE",
"631 467 CURVE SMOOTH",
"660 603 OFFCURVE",
"568 720 OFFCURVE",
"390 720 CURVE SMOOTH",
"308 720 LINE",
"276 560 LINE",
"382 560 LINE SMOOTH",
"434 560 OFFCURVE",
"463 525 OFFCURVE",
"460 481 CURVE SMOOTH",
"456 427 OFFCURVE",
"406 382 OFFCURVE",
"352 382 CURVE SMOOTH",
"239 382 LINE",
"211 236 LINE"
);
}
);
};
layerId = "2D8F7115-C311-411E-929D-56333CF7FFB2";
paths = (
{
closed = 1;
nodes = (
"203 0 LINE",
"348 720 LINE",
"164 720 LINE",
"19 0 LINE"
);
},
{
closed = 1;
nodes = (
"353 220 LINE SMOOTH",
"511 220 OFFCURVE",
"614 313 OFFCURVE",
"637 447 CURVE SMOOTH",
"665 610 OFFCURVE",
"554 720 OFFCURVE",
"386 720 CURVE SMOOTH",
"298 720 LINE",
"265 560 LINE",
"376 560 LINE SMOOTH",
"426 560 OFFCURVE",
"469 530 OFFCURVE",
"464 472 CURVE SMOOTH",
"458 410 OFFCURVE",
"406 378 OFFCURVE",
"361 378 CURVE SMOOTH",
"239 378 LINE",
"207 220 LINE"
);
}
);
width = 633;
}
);
leftKerningGroup = LAT_H_UC;
leftMetricsKey = H;
rightKerningGroup = LAT_P_UC;
unicode = 0050;
},
{
glyphname = Thorn;
lastChange = "2020-06-14 07:13:58 +0000";
layers = (
{
layerId = "AB099EFE-E788-4EFC-8633-CF147CB782A6";
paths = (
{
closed = 1;
nodes = (
"81 0 LINE",
"226 720 LINE",
"194 720 LINE",
"49 0 LINE"
);
},
{
closed = 1;
nodes = (
"305 160 LINE SMOOTH",
"421 160 OFFCURVE",
"511 243 OFFCURVE",
"532 353 CURVE SMOOTH",
"557 488 OFFCURVE",
"475 556 OFFCURVE",
"359 556 CURVE SMOOTH",
"186 556 LINE",
"179 526 LINE",
"358 526 LINE SMOOTH",
"454 526 OFFCURVE",
"523 476 OFFCURVE",
"502 360 CURVE SMOOTH",
"485 270 OFFCURVE",
"414 190 OFFCURVE",
"312 190 CURVE SMOOTH",
"112 190 LINE",
"107 160 LINE"
);
}
);
width = 565;
},
{
layerId = "2D8F7115-C311-411E-929D-56333CF7FFB2";
paths = (
{
closed = 1;
nodes = (
"199 0 LINE",
"344 720 LINE",
"164 720 LINE",
"19 0 LINE"
);
},
{
closed = 1;
nodes = (
"324 112 LINE SMOOTH",
"489 112 OFFCURVE",
"590 219 OFFCURVE",
"615 350 CURVE SMOOTH",
"645 507 OFFCURVE",
"554 612 OFFCURVE",
"383 612 CURVE SMOOTH",
"280 612 LINE",
"249 452 LINE",
"351 452 LINE SMOOTH",
"417 452 OFFCURVE",
"446 421 OFFCURVE",
"440 368 CURVE SMOOTH",
"435 323 OFFCURVE",
"396 270 OFFCURVE",
"339 270 CURVE SMOOTH",
"212 270 LINE",
"180 112 LINE"
);
}
);
width = 632;
}
);
leftKerningGroup = LAT_H_UC;
leftMetricsKey = H;
rightKerningGroup = LAT_P_SC;
unicode = 00DE;
},
{
glyphname = Q;
lastChange = "2020-07-14 11:23:48 +0000";
layers = (
{
anchors = (
{
name = bottom;
position = "{321, 0}";
},
{
name = top;
position = "{459, 720}";
}
);
components = (
{
name = O;
}
);
layerId = "AB099EFE-E788-4EFC-8633-CF147CB782A6";
paths = (
{
closed = 1;
nodes = (
"646 0 LINE",
"585 96 LINE",
"575 104 LINE",
"470 268 LINE",
"436 268 LINE",
"552 85 LINE",
"562 76 LINE",
"611 0 LINE"
);
}
);
width = 760;
},
{
anchors = (
{
name = bottom;
position = "{312, 0}";
},
{
name = top;
position = "{470, 720}";
}
);
components = (
{
name = O;
}
);
layerId = "2D8F7115-C311-411E-929D-56333CF7FFB2";
paths = (
{
closed = 1;
nodes = (
"791 0 LINE",
"675 146 LINE",
"582 220 LINE",
"510 308 LINE",
"325 308 LINE",
"458 156 LINE",
"533 98 LINE",
"612 0 LINE"
);
}
);
width = 804;
},
{
anchors = (
{
name = bottom;
position = "{381, 0}";
},
{
name = top;
position = "{401, 720}";
}
);
associatedMasterId = "AB099EFE-E788-4EFC-8633-CF147CB782A6";
components = (
{
alignment = -1;
name = O;
}
);
layerId = "63963951-7738-4099-A245-CAAA5107B073";
name = "{88}";
paths = (
{
closed = 1;
nodes = (
"702 0 LINE",
"621 119 LINE",
"589 145 LINE",
"496 283 LINE",
"403 283 LINE",
"525 107 LINE",
"554 87 LINE",
"612 0 LINE"
);
}
);
width = 778;
}
);
leftKerningGroup = LAT_O_UC;
leftMetricsKey = O;
rightKerningGroup = LAT_Q_UC;
unicode = 0051;
},
{
glyphname = R;
lastChange = "2020-07-14 00:30:46 +0000";
layers = (
{
anchors = (
{
name = bottom;
position = "{256, 0}";
},
{
name = top;
position = "{368, 720}";
}
);
guideLines = (
{
angle = 120;
position = "{435, 0}";
},
{
angle = 67.5;
position = "{23, 2}";
}
);
layerId = "AB099EFE-E788-4EFC-8633-CF147CB782A6";
paths = (
{
closed = 1;
nodes = (
"82 0 LINE",
"227 720 LINE",
"194 720 LINE",
"49 0 LINE"
);
},
{
closed = 1;
nodes = (
"483 0 LINE",
"315 350 LINE",
"290 328 LINE",
"449 0 LINE"
);
},
{
closed = 1;
nodes = (
"305 324 LINE SMOOTH",
"434 324 OFFCURVE",
"524 392 OFFCURVE",
"543 506 CURVE SMOOTH",
"565 635 OFFCURVE",
"480 720 OFFCURVE",
"366 720 CURVE SMOOTH",
"216 720 LINE",
"208 690 LINE",
"364 690 LINE SMOOTH",
"455 690 OFFCURVE",
"530 627 OFFCURVE",
"512 513 CURVE SMOOTH",
"498 423 OFFCURVE",
"432 354 OFFCURVE",
"314 354 CURVE SMOOTH",
"141 354 LINE",
"136 324 LINE"
);
}
);
width = 592;
},
{
anchors = (
{
name = bottom;
position = "{290, 0}";
},
{
name = top;
position = "{392, 720}";
}
);
guideLines = (
{
angle = 120;
position = "{553, 0}";
}
);
layerId = "2D8F7115-C311-411E-929D-56333CF7FFB2";
paths = (
{
closed = 1;
nodes = (
"203 0 LINE",
"348 720 LINE",
"164 720 LINE",
"19 0 LINE"
);
},
{
closed = 1;
nodes = (
"599 0 LINE",
"433 360 LINE",
"296 262 LINE",
"411 0 LINE"
);
},
{
closed = 1;
nodes = (
"344 237 LINE SMOOTH",
"502 237 OFFCURVE",
"605 324 OFFCURVE",
"628 449 CURVE SMOOTH",
"656 610 OFFCURVE",
"545 720 OFFCURVE",
"377 720 CURVE SMOOTH",
"289 720 LINE",
"256 560 LINE",
"367 560 LINE SMOOTH",
"417 560 OFFCURVE",
"460 530 OFFCURVE",
"455 472 CURVE SMOOTH",
"449 414 OFFCURVE",
"403 383 OFFCURVE",
"352 383 CURVE SMOOTH",
"230 383 LINE",
"201 237 LINE"
);
}
);
width = 684;
}
);
leftKerningGroup = LAT_H_UC;
leftMetricsKey = H;
rightKerningGroup = LAT_R_UC;
unicode = 0052;
},
{
glyphname = S;
lastChange = "2020-07-14 05:53:24 +0000";
layers = (
{
anchors = (
{
name = bottom;
position = "{252, 0}";
},
{
name = top;
position = "{380, 720}";
}
);
guideLines = (
{
angle = 22.5;
position = "{330, 458}";
}
);
layerId = "2D8F7115-C311-411E-929D-56333CF7FFB2";
paths = (
{
closed = 1;
nodes = (
"410 -8 OFFCURVE",
"514 69 OFFCURVE",
"538 195 CURVE SMOOTH",
"558 302 OFFCURVE",
"507 368 OFFCURVE",
"409 418 CURVE SMOOTH",
"358 444 OFFCURVE",
"284 471 OFFCURVE",
"288 516 CURVE SMOOTH",
"289 543 OFFCURVE",
"316 568 OFFCURVE",
"352 568 CURVE SMOOTH",
"394 568 OFFCURVE",
"418 534 OFFCURVE",
"424 500 CURVE",
"598 572 LINE",
"582 656 OFFCURVE",
"490 728 OFFCURVE",
"365 728 CURVE SMOOTH",
"241 728 OFFCURVE",
"133 655 OFFCURVE",
"110 538 CURVE SMOOTH",
"91 444 OFFCURVE",
"141 364 OFFCURVE",
"250 312 CURVE SMOOTH",
"297 289 OFFCURVE",
"365 262 OFFCURVE",
"358 211 CURVE SMOOTH",
"354 178 OFFCURVE",
"321 156 OFFCURVE",
"288 156 CURVE SMOOTH",
"245 156 OFFCURVE",
"211 202 OFFCURVE",
"204 245 CURVE",
"21 170 LINE",
"30 64 OFFCURVE",
"145 -8 OFFCURVE",
"275 -8 CURVE SMOOTH"
);
}
);
userData = {
RMXScaler = {
height = 137;
weight = 160;
width = 140;
};
};
width = 592;
},
{
anchors = (
{
name = bottom;
position = "{228, 0}";
},
{
name = top;
position = "{357, 720}";
}
);
background = {
paths = (
{
closed = 1;
nodes = (
"342 -8 OFFCURVE",
"424 62 OFFCURVE",
"443 167 CURVE SMOOTH",
"470 318 OFFCURVE",
"339 363 OFFCURVE",
"279 390 CURVE SMOOTH",
"208 422 OFFCURVE",
"155 473 OFFCURVE",
"172 565 CURVE SMOOTH",
"186 644 OFFCURVE",
"253 698 OFFCURVE",
"340 698 CURVE SMOOTH",
"425 698 OFFCURVE",
"460 646 OFFCURVE",
"472 602 CURVE",
"503 614 LINE",
"489 670 OFFCURVE",
"436 728 OFFCURVE",
"338 728 CURVE SMOOTH",
"242 728 OFFCURVE",
"164 673 OFFCURVE",
"142 572 CURVE SMOOTH",
"115 444 OFFCURVE",
"208 390 OFFCURVE",
"282 356 CURVE SMOOTH",
"340 329 OFFCURVE",
"431 289 OFFCURVE",
"411 170 CURVE SMOOTH",
"394 73 OFFCURVE",
"313 22 OFFCURVE",
"233 22 CURVE SMOOTH",
"151 22 OFFCURVE",
"82 78 OFFCURVE",
"73 146 CURVE",
"39 132 LINE",
"54 64 OFFCURVE",
"123 -8 OFFCURVE",
"233 -8 CURVE SMOOTH"
);
}
);
};
layerId = "AB099EFE-E788-4EFC-8633-CF147CB782A6";
paths = (
{
closed = 1;
nodes = (
"341 -8 OFFCURVE",
"422 62 OFFCURVE",
"442 164 CURVE SMOOTH",
"466 281 OFFCURVE",
"385 334 OFFCURVE",
"286 393 CURVE SMOOTH",
"220 432 OFFCURVE",
"157 470 OFFCURVE",
"171 559 CURVE SMOOTH",
"184 642 OFFCURVE",
"253 698 OFFCURVE",
"340 698 CURVE SMOOTH",
"425 698 OFFCURVE",
"460 646 OFFCURVE",
"472 602 CURVE",
"503 614 LINE",
"489 670 OFFCURVE",
"436 728 OFFCURVE",
"339 728 CURVE SMOOTH",
"242 728 OFFCURVE",
"161 671 OFFCURVE",
"142 572 CURVE SMOOTH",
"120 457 OFFCURVE",
"207 407 OFFCURVE",
"274 367 CURVE SMOOTH",
"361 316 OFFCURVE",
"430 270 OFFCURVE",
"410 170 CURVE SMOOTH",
"391 74 OFFCURVE",
"311 22 OFFCURVE",
"233 22 CURVE SMOOTH",
"151 22 OFFCURVE",
"82 78 OFFCURVE",
"73 146 CURVE",
"39 132 LINE",
"54 64 OFFCURVE",
"123 -8 OFFCURVE",
"233 -8 CURVE SMOOTH"
);
}
);
userData = {
RMXScaler = {
height = 139;
width = 140;
};
};
width = 526;
},
{
anchors = (
{
name = bottom;
position = "{221, 0}";
},
{
name = top;
position = "{365, 720}";
}
);
associatedMasterId = "AB099EFE-E788-4EFC-8633-CF147CB782A6";
background = {
anchors = (
{
name = bottom;
position = "{235, 0}";
},
{
name = top;
position = "{365, 720}";
}
);
paths = (
{
closed = 1;
nodes = (
"361 -8 OFFCURVE",
"454 53 OFFCURVE",
"477 173 CURVE SMOOTH",
"520 395 OFFCURVE",
"182 393 OFFCURVE",
"215 552 CURVE SMOOTH",
"227 609 OFFCURVE",
"272 648 OFFCURVE",
"336 648 CURVE SMOOTH",
"404 648 OFFCURVE",
"444 604 OFFCURVE",
"454 569 CURVE",
"535 599 LINE",
"518 670 OFFCURVE",
"444 728 OFFCURVE",
"340 728 CURVE SMOOTH",
"235 728 OFFCURVE",
"155 673 OFFCURVE",
"132 575 CURVE SMOOTH",
"82 361 OFFCURVE",
"420 343 OFFCURVE",
"391 185 CURVE SMOOTH",
"378 114 OFFCURVE",
"319 72 OFFCURVE",
"256 72 CURVE SMOOTH",
"186 72 OFFCURVE",
"124 126 OFFCURVE",
"117 185 CURVE",
"31 155 LINE",
"43 74 OFFCURVE",
"132 -8 OFFCURVE",
"250 -8 CURVE SMOOTH"
);
}
);
};
layerId = "67D9D06B-E18D-469E-AA37-72E0FB00C5CD";
name = "{88}";
paths = (
{
closed = 1;
nodes = (
"361 -8 OFFCURVE",
"454 57 OFFCURVE",
"477 177 CURVE SMOOTH",
"507 331 OFFCURVE",
"364 387 OFFCURVE",
"318 408 CURVE SMOOTH",
"261 434 OFFCURVE",
"199 475 OFFCURVE",
"215 552 CURVE SMOOTH",
"227 609 OFFCURVE",
"272 648 OFFCURVE",
"336 648 CURVE SMOOTH",
"404 648 OFFCURVE",
"444 604 OFFCURVE",
"454 569 CURVE",
"535 599 LINE",
"518 670 OFFCURVE",
"444 728 OFFCURVE",
"340 728 CURVE SMOOTH",
"235 728 OFFCURVE",
"155 673 OFFCURVE",
"132 575 CURVE SMOOTH",
"108 471 OFFCURVE",
"164 390 OFFCURVE",
"276 338 CURVE SMOOTH",
"322 317 OFFCURVE",
"408 281 OFFCURVE",
"391 185 CURVE SMOOTH",
"378 114 OFFCURVE",
"319 72 OFFCURVE",
"256 72 CURVE SMOOTH",
"186 72 OFFCURVE",
"124 126 OFFCURVE",
"117 185 CURVE",
"31 155 LINE",
"43 74 OFFCURVE",
"132 -8 OFFCURVE",
"250 -8 CURVE SMOOTH"
);
}
);
width = 546;
}
);
leftKerningGroup = LAT_S_UC;
rightKerningGroup = LAT_S_UC;
unicode = 0053;
userData = {
RMXScaler = {
source = s;
};
};
},
{
glyphname = Germandbls;
lastChange = "2020-06-16 12:08:53 +0000";
layers = (
{
layerId = "AB099EFE-E788-4EFC-8633-CF147CB782A6";
paths = (
{
closed = 1;
nodes = (
"419 -8 OFFCURVE",
"537 90 OFFCURVE",
"564 213 CURVE SMOOTH",
"590 332 OFFCURVE",
"518 444 OFFCURVE",
"358 436 CURVE",
"371 420 LINE",
"539 690 LINE",
"539 698 LINE",
"487 720 OFFCURVE",
"425 728 OFFCURVE",
"377 728 CURVE SMOOTH",
"184 728 OFFCURVE",
"163 606 OFFCURVE",
"152 552 CURVE SMOOTH",
"41 0 LINE",
"73 0 LINE",
"182 550 LINE SMOOTH",
"190 591 OFFCURVE",
"206 698 OFFCURVE",
"385 698 CURVE SMOOTH",
"433 698 OFFCURVE",
"473 690 OFFCURVE",
"506 676 CURVE",
"505 692 LINE",
"341 422 LINE",
"338 408 LINE",
"356 408 LINE SMOOTH",
"482 408 OFFCURVE",
"557 340 OFFCURVE",
"534 224 CURVE SMOOTH",
"509 98 OFFCURVE",
"391 22 OFFCURVE",
"302 22 CURVE SMOOTH",
"271 22 OFFCURVE",
"231 30 OFFCURVE",
"198 38 CURVE",
"193 6 LINE",
"222 -2 OFFCURVE",
"267 -8 OFFCURVE",
"297 -8 CURVE SMOOTH"
);
}
);
width = 633;
},
{
layerId = "2D8F7115-C311-411E-929D-56333CF7FFB2";
paths = (
{
closed = 1;
nodes = (
"533 -9 OFFCURVE",
"642 75 OFFCURVE",
"669 198 CURVE SMOOTH",
"697 324 OFFCURVE",
"624 413 OFFCURVE",
"492 412 CURVE",
"549 344 LINE",
"709 654 LINE",
"707 668 LINE",
"658 698 OFFCURVE",
"554 728 OFFCURVE",
"446 728 CURVE SMOOTH",
"277 728 OFFCURVE",
"143 651 OFFCURVE",
"114 506 CURVE SMOOTH",
"13 0 LINE",
"197 0 LINE",
"289 468 LINE SMOOTH",
"295 499 OFFCURVE",
"326 572 OFFCURVE",
"444 572 CURVE SMOOTH",
"474 572 OFFCURVE",
"490 567 OFFCURVE",
"504 556 CURVE",
"500 599 LINE",
"364 332 LINE",
"360 304 LINE",
"399 304 LINE SMOOTH",
"413 304 OFFCURVE",
"505 297 OFFCURVE",
"498 225 CURVE SMOOTH",
"493 173 OFFCURVE",
"445 142 OFFCURVE",
"383 142 CURVE SMOOTH",
"365 142 OFFCURVE",
"339 145 OFFCURVE",
"321 149 CURVE",
"292 2 LINE",
"300 -1 OFFCURVE",
"333 -9 OFFCURVE",
"379 -9 CURVE SMOOTH"
);
}
);
width = 710;
}
);
leftKerningGroup = LAT_GERMANDBLS_UC;
rightKerningGroup = LAT_GERMANDBLS_UC;
rightMetricsKey = B;
unicode = 1E9E;
},
{
glyphname = Schwa;
lastChange = "2020-07-14 11:23:52 +0000";
layers = (
{
anchors = (
{
name = bottom;
position = "{294, -24}";
},
{
name = top;
position = "{452, 750}";
}
);
layerId = "AB099EFE-E788-4EFC-8633-CF147CB782A6";
paths = (
{
closed = 1;
nodes = (
"475 -8 OFFCURVE",
"620 130 OFFCURVE",
"666 360 CURVE SMOOTH",
"712 592 OFFCURVE",
"616 728 OFFCURVE",
"438 728 CURVE SMOOTH",
"336 728 OFFCURVE",
"222 680 OFFCURVE",
"150 590 CURVE",
"178 572 LINE",
"249 658 OFFCURVE",
"353 698 OFFCURVE",
"443 698 CURVE SMOOTH",
"611 698 OFFCURVE",
"676 564 OFFCURVE",
"636 368 CURVE SMOOTH",
"590 146 OFFCURVE",
"452 22 OFFCURVE",
"299 22 CURVE SMOOTH",
"154 22 OFFCURVE",
"74 142 OFFCURVE",
"112 352 CURVE",
"644 354 LINE",
"651 384 LINE",
"87 384 LINE",
"84 364 LINE SMOOTH",
"52 149 OFFCURVE",
"117 -8 OFFCURVE",
"300 -8 CURVE SMOOTH"
);
}
);
width = 707;
},
{
anchors = (
{
name = bottom;
position = "{331, -24}";
},
{
name = top;
position = "{472, 740}";
}
);
layerId = "2D8F7115-C311-411E-929D-56333CF7FFB2";
paths = (
{
closed = 1;
nodes = (
"531 -8 OFFCURVE",
"691 139 OFFCURVE",
"731 337 CURVE SMOOTH",
"779 573 OFFCURVE",
"648 728 OFFCURVE",
"442 728 CURVE SMOOTH",
"318 728 OFFCURVE",
"193 666 OFFCURVE",
"118 566 CURVE",
"263 485 LINE",
"301 531 OFFCURVE",
"364 572 OFFCURVE",
"431 572 CURVE SMOOTH",
"531 572 OFFCURVE",
"580 492 OFFCURVE",
"556 367 CURVE SMOOTH",
"534 251 OFFCURVE",
"451 144 OFFCURVE",
"335 144 CURVE SMOOTH",
"257 144 OFFCURVE",
"191 194 OFFCURVE",
"205 264 CURVE",
"591 272 LINE",
"619 410 LINE",
"63 412 LINE",
"47 338 LINE SMOOTH",
"0 120 OFFCURVE",
"133 -8 OFFCURVE",
"320 -8 CURVE SMOOTH"
);
}
);
width = 748;
},
{
anchors = (
{
name = bottom;
position = "{321, -24}";
},
{
name = top;
position = "{472, 747}";
}
);
associatedMasterId = "AB099EFE-E788-4EFC-8633-CF147CB782A6";
layerId = "19951039-F998-4E8E-A20F-304012CC7EED";
name = "{88}";
paths = (
{
closed = 1;
nodes = (
"489 -6 OFFCURVE",
"664 135 OFFCURVE",
"708 357 CURVE SMOOTH",
"751 573 OFFCURVE",
"640 730 OFFCURVE",
"446 730 CURVE SMOOTH",
"334 730 OFFCURVE",
"214 677 OFFCURVE",
"139 581 CURVE",
"210 542 LINE",
"263 607 OFFCURVE",
"353 653 OFFCURVE",
"438 653 CURVE SMOOTH",
"587 653 OFFCURVE",
"652 528 OFFCURVE",
"621 362 CURVE SMOOTH",
"585 182 OFFCURVE",
"450 70 OFFCURVE",
"316 67 CURVE SMOOTH",
"186 64 OFFCURVE",
"116 165 OFFCURVE",
"144 311 CURVE",
"627 313 LINE",
"643 389 LINE",
"78 389 LINE",
"66 329 LINE SMOOTH",
"28 137 OFFCURVE",
"120 -13 OFFCURVE",
"311 -10 CURVE SMOOTH"
);
}
);
width = 741;
}
);
leftKerningGroup = LAT_SCHWA_UC;
leftMetricsKey = O;
rightKerningGroup = LAT_O_UC;
rightMetricsKey = O;
unicode = 018F;
},
{
glyphname = T;
lastChange = "2020-06-16 08:20:14 +0000";
layers = (
{
anchors = (
{
name = bottom;
position = "{197, 0}";
},
{
name = cedilla;
position = "{197, 0}";
},
{
name = center;
position = "{269, 360}";
},
{
name = top;
position = "{341, 720}";
}
);
layerId = "AB099EFE-E788-4EFC-8633-CF147CB782A6";
paths = (
{
closed = 1;
nodes = (
"213 0 LINE",
"352 698 LINE",
"319 698 LINE",
"180 0 LINE"
);
},
{
closed = 1;
nodes = (
"544 690 LINE",
"551 720 LINE",
"129 720 LINE",
"122 690 LINE"
);
}
);
width = 495;
},
{
anchors = (
{
name = bottom;
position = "{225, 0}";
},
{
name = cedilla;
position = "{225, 0}";
},
{
name = center;
position = "{289, 328}";
},
{
name = top;
position = "{370, 720}";
}
);
layerId = "2D8F7115-C311-411E-929D-56333CF7FFB2";
paths = (
{
closed = 1;
nodes = (
"318 0 LINE",
"434 584 LINE",
"250 584 LINE",
"135 0 LINE"
);
},
{
closed = 1;
nodes = (
"587 560 LINE",
"622 720 LINE",
"118 720 LINE",
"85 560 LINE"
);
}
);
width = 557;
}
);
leftKerningGroup = LAT_T_UC;
rightKerningGroup = LAT_T_UC;
unicode = 0054;
},
{
glyphname = U;
lastChange = "2020-07-14 05:47:19 +0000";
layers = (
{
anchors = (
{
name = bottom;
position = "{288, 0}";
},
{
name = horn;
position = "{632, 720}";
},
{
name = ogonek;
position = "{351, 0}";
},
{
name = top;
position = "{423, 720}";
}
);
layerId = "AB099EFE-E788-4EFC-8633-CF147CB782A6";
paths = (
{
closed = 1;
nodes = (
"428 -8 OFFCURVE",
"523 82 OFFCURVE",
"553 230 CURVE SMOOTH",
"651 720 LINE",
"618 720 LINE",
"523 242 LINE SMOOTH",
"495 102 OFFCURVE",
"403 22 OFFCURVE",
"290 22 CURVE SMOOTH",
"174 22 OFFCURVE",
"101 100 OFFCURVE",
"130 244 CURVE SMOOTH",
"226 720 LINE",
"193 720 LINE",
"97 240 LINE SMOOTH",
"67 90 OFFCURVE",
"149 -8 OFFCURVE",
"291 -8 CURVE SMOOTH"
);
}
);
width = 659;
},
{
anchors = (
{
name = bottom;
position = "{332, 0}";
},
{
name = horn;
position = "{688, 720}";
},
{
name = ogonek;
position = "{396, 0}";
},
{
name = top;
position = "{447, 720}";
}
);
layerId = "2D8F7115-C311-411E-929D-56333CF7FFB2";
paths = (
{
closed = 1;
nodes = (
"500 -8 OFFCURVE",
"611 96 OFFCURVE",
"646 274 CURVE SMOOTH",
"734 720 LINE",
"551 720 LINE",
"463 278 LINE SMOOTH",
"448 205 OFFCURVE",
"406 152 OFFCURVE",
"340 152 CURVE SMOOTH",
"277 152 OFFCURVE",
"243 195 OFFCURVE",
"256 262 CURVE SMOOTH",
"347 720 LINE",
"163 720 LINE",
"79 294 LINE SMOOTH",
"44 116 OFFCURVE",
"154 -8 OFFCURVE",
"329 -8 CURVE SMOOTH"
);
}
);
width = 716;
}
);
leftKerningGroup = LAT_U_UC;
leftMetricsKey = H;
rightKerningGroup = LAT_U_UC;
rightMetricsKey = H;
unicode = 0055;
},
{
glyphname = V;
lastChange = "2020-07-14 04:30:13 +0000";
layers = (
{
anchors = (
{
name = bottom;
position = "{281, 0}";
},
{
name = top;
position = "{422, 720}";
}
);
layerId = "AB099EFE-E788-4EFC-8633-CF147CB782A6";
paths = (
{
closed = 1;
nodes = (
"293 0 LINE",
"724 720 LINE",
"686 720 LINE",
"435 294 LINE",
"288 44 LINE",
"284 44 LINE",
"238 294 LINE",
"156 720 LINE",
"124 720 LINE",
"265 0 LINE"
);
}
);
width = 664;
},
{
anchors = (
{
name = bottom;
position = "{314, 0}";
},
{
name = top;
position = "{457, 720}";
}
);
layerId = "2D8F7115-C311-411E-929D-56333CF7FFB2";
paths = (
{
closed = 1;
nodes = (
"394 0 LINE",
"819 720 LINE",
"609 720 LINE",
"456 438 LINE",
"357 242 LINE",
"357 242 LINE",
"329 438 LINE",
"287 720 LINE",
"95 720 LINE",
"238 0 LINE"
);
}
);
width = 732;
},
{
anchors = (
{
name = bottom;
position = "{292, 0}";
},
{
name = top;
position = "{433, 720}";
}
);
associatedMasterId = "AB099EFE-E788-4EFC-8633-CF147CB782A6";
layerId = "6EE7DDFF-8CC6-415D-89DA-4F270CC45D7D";
name = "{88}";
paths = (
{
closed = 1;
nodes = (
"326 0 LINE",
"761 720 LINE",
"662 720 LINE",
"448 348 LINE",
"317 126 LINE",
"313 126 LINE",
"268 348 LINE",
"200 720 LINE",
"108 720 LINE",
"257 0 LINE"
);
}
);
width = 687;
}
);
leftKerningGroup = LAT_V_UC;
rightKerningGroup = LAT_V_UC;
unicode = 0056;
},
{
glyphname = W;
lastChange = "2020-07-14 05:44:48 +0000";
layers = (
{
anchors = (
{
name = bottom;
position = "{397, 0}";
},
{
name = top;
position = "{534, 720}";
}
);
layerId = "AB099EFE-E788-4EFC-8633-CF147CB782A6";
paths = (
{
closed = 1;
nodes = (
"183 0 LINE",
"223 0 LINE",
"511 606 LINE",
"515 606 LINE",
"587 0 LINE",
"627 0 LINE",
"960 720 LINE",
"926 720 LINE",
"656 134 LINE",
"615 36 LINE",
"611 36 LINE",
"535 672 LINE",
"511 672 LINE",
"211 36 LINE",
"207 36 LINE",
"200 134 LINE",
"156 720 LINE",
"124 720 LINE"
);
}
);
width = 900;
},
{
anchors = (
{
name = bottom;
position = "{452, 0}";
},
{
name = top;
position = "{597, 720}";
}
);
layerId = "2D8F7115-C311-411E-929D-56333CF7FFB2";
paths = (
{
closed = 1;
nodes = (
"178 0 LINE",
"324 0 LINE",
"514 312 LINE",
"517 312 LINE",
"612 0 LINE",
"756 0 LINE",
"1095 720 LINE",
"899 720 LINE",
"771 430 LINE",
"696 250 LINE",
"692 250 LINE",
"599 638 LINE",
"527 638 LINE",
"316 250 LINE",
"312 250 LINE",
"302 430 LINE",
"281 720 LINE",
"99 720 LINE"
);
}
);
width = 1012;
},
{
anchors = (
{
name = bottom;
position = "{410, 0}";
},
{
name = top;
position = "{549, 720}";
}
);
associatedMasterId = "AB099EFE-E788-4EFC-8633-CF147CB782A6";
layerId = "6DB70B86-9760-4E14-9DF2-BD0165CEC74A";
name = "{88}";
paths = (
{
closed = 1;
nodes = (
"187 0 LINE",
"265 0 LINE",
"498 447 LINE",
"502 447 LINE",
"578 0 LINE",
"657 0 LINE",
"999 720 LINE",
"906 720 LINE",
"714 299 LINE",
"635 121 LINE",
"631 121 LINE",
"551 645 LINE",
"515 645 LINE",
"252 121 LINE",
"248 121 LINE",
"233 299 LINE",
"199 720 LINE",
"111 720 LINE"
);
}
);
width = 927;
}
);
leftKerningGroup = LAT_W_UC;
rightKerningGroup = LAT_W_UC;
unicode = 0057;
},
{
color = 9;
glyphname = W.ss06;
lastChange = "2020-07-14 04:30:13 +0000";
layers = (
{
anchors = (
{
name = bottom;
position = "{390, -24}";
},
{
name = top;
position = "{543, 754}";
}
);
layerId = "AB099EFE-E788-4EFC-8633-CF147CB782A6";
paths = (
{
closed = 1;
nodes = (
"211 0 LINE",
"349 292 LINE",
"520 658 LINE",
"524 658 LINE",
"547 292 LINE",
"570 0 LINE",
"607 0 LINE",
"944 720 LINE",
"911 720 LINE",
"714 290 LINE",
"599 40 LINE",
"595 40 LINE",
"579 290 LINE",
"548 720 LINE",
"521 720 LINE",
"318 290 LINE",
"200 40 LINE",
"196 40 LINE",
"183 290 LINE",
"158 720 LINE",
"124 720 LINE",
"171 0 LINE"
);
}
);
width = 884;
},
{
anchors = (
{
name = bottom;
position = "{424, -24}";
},
{
name = top;
position = "{575, 744}";
}
);
layerId = "2D8F7115-C311-411E-929D-56333CF7FFB2";
paths = (
{
closed = 1;
nodes = (
"300 0 LINE",
"429 236 LINE",
"512 396 LINE",
"508 396 LINE",
"527 236 LINE",
"561 0 LINE",
"737 0 LINE",
"1047 720 LINE",
"845 720 LINE",
"737 432 LINE",
"677 240 LINE",
"675 240 LINE",
"660 396 LINE",
"621 720 LINE",
"514 720 LINE",
"345 398 LINE",
"272 240 LINE",
"275 240 LINE",
"281 432 LINE",
"291 720 LINE",
"101 720 LINE",
"119 0 LINE"
);
}
);
width = 966;
},
{
anchors = (
{
name = bottom;
position = "{418, -6}";
},
{
name = top;
position = "{565, 728}";
}
);
associatedMasterId = "AB099EFE-E788-4EFC-8633-CF147CB782A6";
layerId = "B8A2E95D-360B-42F7-9911-F224EE7FE812";
name = "{88}";
paths = (
{
closed = 1;
nodes = (
"262 0 LINE",
"378 233 LINE",
"525 534 LINE",
"529 534 LINE",
"556 233 LINE",
"578 0 LINE",
"660 0 LINE",
"1002 720 LINE",
"914 720 LINE",
"737 335 LINE",
"647 134 LINE",
"643 134 LINE",
"624 346 LINE",
"589 720 LINE",
"538 720 LINE",
"351 346 LINE",
"249 134 LINE",
"245 134 LINE",
"237 335 LINE",
"213 720 LINE",
"124 720 LINE",
"180 0 LINE"
);
}
);
width = 925;
}
);
leftKerningGroup = LAT_W_UC;
rightKerningGroup = LAT_W_UC;
},
{
glyphname = X;
lastChange = "2020-06-16 09:44:49 +0000";
layers = (
{
anchors = (
{
name = bottom;
position = "{252, 0}";
},
{
name = top;
position = "{397, 720}";
}
);
layerId = "AB099EFE-E788-4EFC-8633-CF147CB782A6";
paths = (
{
closed = 1;
nodes = (
"37 0 LINE",
"323 339 LINE",
"327 339 LINE",
"348 356 LINE",
"348 360 LINE",
"647 720 LINE",
"608 720 LINE",
"331 386 LINE",
"327 386 LINE",
"306 368 LINE",
"306 364 LINE",
"-4 0 LINE"
);
},
{
closed = 1;
nodes = (
"509 0 LINE",
"348 358 LINE",
"348 362 LINE",
"333 386 LINE",
"329 386 LINE",
"167 720 LINE",
"134 720 LINE",
"306 366 LINE",
"306 362 LINE",
"321 339 LINE",
"325 339 LINE",
"475 0 LINE"
);
}
);
width = 610;
},
{
anchors = (
{
name = bottom;
position = "{318, 0}";
},
{
name = top;
position = "{463, 720}";
}
);
layerId = "2D8F7115-C311-411E-929D-56333CF7FFB2";
paths = (
{
closed = 1;
nodes = (
"201 0 LINE",
"370 228 LINE",
"373 228 LINE",
"511 347 LINE",
"511 349 LINE",
"803 720 LINE",
"579 720 LINE",
"409 476 LINE",
"406 476 LINE",
"270 373 LINE",
"270 371 LINE",
"-33 0 LINE"
);
},
{
closed = 1;
nodes = (
"664 0 LINE",
"511 345 LINE",
"511 347 LINE",
"415 476 LINE",
"411 476 LINE",
"316 720 LINE",
"118 720 LINE",
"270 375 LINE",
"270 373 LINE",
"369 228 LINE",
"372 228 LINE",
"466 0 LINE"
);
}
);
width = 738;
}
);
leftKerningGroup = LAT_X_UC;
rightKerningGroup = LAT_X_UC;
unicode = 0058;
},
{
glyphname = Y;
lastChange = "2020-06-16 08:20:33 +0000";
layers = (
{
anchors = (
{
name = bottom;
position = "{239, 0}";
},
{
name = top;
position = "{382, 720}";
}
);
layerId = "AB099EFE-E788-4EFC-8633-CF147CB782A6";
paths = (
{
closed = 1;
nodes = (
"255 0 LINE",
"322 329 LINE",
"640 720 LINE",
"601 720 LINE",
"431 510 LINE",
"313 366 LINE",
"309 366 LINE",
"246 510 LINE",
"156 720 LINE",
"124 720 LINE",
"290 333 LINE",
"222 0 LINE"
);
}
);
width = 580;
},
{
anchors = (
{
name = bottom;
position = "{280, 0}";
},
{
name = top;
position = "{411, 720}";
}
);
layerId = "2D8F7115-C311-411E-929D-56333CF7FFB2";
paths = (
{
closed = 1;
nodes = (
"372 0 LINE",
"424 262 LINE",
"755 720 LINE",
"527 720 LINE",
"450 586 LINE",
"362 442 LINE",
"360 442 LINE",
"325 586 LINE",
"287 720 LINE",
"95 720 LINE",
"242 271 LINE",
"188 0 LINE"
);
}
);
width = 668;
}
);
leftKerningGroup = LAT_Y_UC;
rightKerningGroup = LAT_Y_UC;
unicode = 0059;
},
{
glyphname = Z;
lastChange = "2020-07-14 06:00:14 +0000";
layers = (
{
anchors = (
{
name = bottom;
position = "{260, 0}";
},
{
name = top;
position = "{401, 720}";
}
);
guideLines = (
{
angle = 58;
position = "{135, 112}";
}
);
layerId = "AB099EFE-E788-4EFC-8633-CF147CB782A6";
paths = (
{
closed = 1;
nodes = (
"473 0 LINE",
"478 30 LINE",
"69 30 LINE",
"69 32 LINE",
"600 702 LINE",
"604 720 LINE",
"178 720 LINE",
"170 690 LINE",
"550 690 LINE",
"550 688 LINE",
"20 19 LINE",
"17 0 LINE"
);
}
);
width = 592;
},
{
anchors = (
{
name = bottom;
position = "{252, 0}";
},
{
name = top;
position = "{397, 720}";
}
);
guideLines = (
{
angle = 63;
position = "{129, 112}";
}
);
layerId = "2D8F7115-C311-411E-929D-56333CF7FFB2";
paths = (
{
closed = 1;
nodes = (
"525 0 LINE",
"557 158 LINE",
"284 158 LINE",
"287 160 LINE",
"652 694 LINE",
"658 720 LINE",
"142 720 LINE",
"107 562 LINE",
"355 562 LINE",
"352 560 LINE",
"-12 24 LINE",
"-17 0 LINE"
);
}
);
width = 612;
}
);
leftKerningGroup = LAT_Z_UC;
rightKerningGroup = LAT_Z_UC;
unicode = 005A;
},
{
glyphname = a;
lastChange = "2020-07-14 11:26:42 +0000";
layers = (
{
anchors = (
{
name = bottom;
position = "{230, 0}";
},
{
name = ogonek;
position = "{441, -8}";
},
{
name = top;
position = "{332, 512}";
},
{
name = topright;
position = "{588, 512}";
}
);
layerId = "AB099EFE-E788-4EFC-8633-CF147CB782A6";
paths = (
{
closed = 1;
nodes = (
"296 -8 OFFCURVE",
"361 26 OFFCURVE",
"406 97 CURVE",
"395 86 LINE",
"402 86 LINE",
"402 94 LINE",
"394 42 OFFCURVE",
"408 11 OFFCURVE",
"441 -8 CURVE",
"453 20 LINE",
"424 34 OFFCURVE",
"425 68 OFFCURVE",
"434 112 CURVE SMOOTH",
"514 512 LINE",
"483 512 LINE",
"457 378 LINE",
"474 392 LINE",
"443 392 LINE",
"459 381 LINE",
"446 466 OFFCURVE",
"386 520 OFFCURVE",
"302 520 CURVE SMOOTH",
"178 520 OFFCURVE",
"80 411 OFFCURVE",
"57 258 CURVE SMOOTH",
"34 104 OFFCURVE",
"102 -8 OFFCURVE",
"228 -8 CURVE SMOOTH"
);
},
{
closed = 1;
nodes = (
"125 20 OFFCURVE",
"68 115 OFFCURVE",
"86 249 CURVE SMOOTH",
"103 377 OFFCURVE",
"187 492 OFFCURVE",
"301 492 CURVE SMOOTH",
"405 492 OFFCURVE",
"455 400 OFFCURVE",
"433 254 CURVE SMOOTH",
"411 112 OFFCURVE",
"333 20 OFFCURVE",
"228 20 CURVE SMOOTH"
);
}
);
width = 548;
},
{
anchors = (
{
name = bottom;
position = "{252, 0}";
},
{
name = ogonek;
position = "{499, -8}";
},
{
name = top;
position = "{358, 528}";
},
{
name = topright;
position = "{599, 528}";
}
);
layerId = "2D8F7115-C311-411E-929D-56333CF7FFB2";
paths = (
{
closed = 1;
nodes = (
"293 -8 OFFCURVE",
"366 34 OFFCURVE",
"410 104 CURVE",
"294 64 LINE",
"455 64 LINE",
"371 104 LINE",
"369 52 OFFCURVE",
"422 7 OFFCURVE",
"499 -8 CURVE",
"558 133 LINE",
"539 137 OFFCURVE",
"525 149 OFFCURVE",
"532 185 CURVE SMOOTH",
"601 528 LINE",
"441 528 LINE",
"414 399 LINE",
"496 460 LINE",
"335 460 LINE",
"440 431 LINE",
"412 496 OFFCURVE",
"358 536 OFFCURVE",
"286 536 CURVE SMOOTH",
"191 536 OFFCURVE",
"66 465 OFFCURVE",
"35 280 CURVE SMOOTH",
"5 102 OFFCURVE",
"89 -8 OFFCURVE",
"215 -8 CURVE SMOOTH"
);
},
{
closed = 1;
nodes = (
"210 136 OFFCURVE",
"187 181 OFFCURVE",
"197 256 CURVE SMOOTH",
"207 333 OFFCURVE",
"250 392 OFFCURVE",
"311 392 CURVE SMOOTH",
"366 392 OFFCURVE",
"392 343 OFFCURVE",
"385 279 CURVE SMOOTH",
"378 211 OFFCURVE",
"336 136 OFFCURVE",
"264 136 CURVE SMOOTH"
);
}
);
width = 612;
},
{
anchors = (
{
name = bottom;
position = "{238, 0}";
},
{
name = ogonek;
position = "{459, -8}";
},
{
name = top;
position = "{338, 518}";
},
{
name = topright;
position = "{606, 518}";
}
);
associatedMasterId = "AB099EFE-E788-4EFC-8633-CF147CB782A6";
layerId = "D4BEE098-D18E-43B4-B4DC-C70D5601A28C";
name = "{88}";
paths = (
{
closed = 1;
nodes = (
"302 -8 OFFCURVE",
"367 29 OFFCURVE",
"412 108 CURVE",
"354 71 LINE",
"426 71 LINE",
"392 86 LINE",
"385 50 OFFCURVE",
"407 9 OFFCURVE",
"461 -8 CURVE",
"492 68 LINE",
"462 80 OFFCURVE",
"465 104 OFFCURVE",
"473 145 CURVE SMOOTH",
"547 518 LINE",
"465 518 LINE",
"444 414 LINE",
"483 434 LINE",
"421 434 LINE",
"448 428 LINE",
"428 487 OFFCURVE",
"369 526 OFFCURVE",
"296 526 CURVE SMOOTH",
"173 526 OFFCURVE",
"76 419 OFFCURVE",
"50 270 CURVE SMOOTH",
"23 106 OFFCURVE",
"101 -8 OFFCURVE",
"228 -8 CURVE SMOOTH"
);
},
{
closed = 1;
nodes = (
"158 68 OFFCURVE",
"117 143 OFFCURVE",
"133 254 CURVE SMOOTH",
"150 367 OFFCURVE",
"219 452 OFFCURVE",
"310 452 CURVE SMOOTH",
"396 452 OFFCURVE",
"437 374 OFFCURVE",
"417 262 CURVE SMOOTH",
"396 151 OFFCURVE",
"327 68 OFFCURVE",
"240 68 CURVE SMOOTH"
);
}
);
width = 578;
}
);
leftKerningGroup = LAT_O_LC;
leftMetricsKey = o;
rightKerningGroup = LAT_A_LC;
rightMetricsKey = u;
unicode = 0061;
},
{
color = 4;
glyphname = a.ss01;
lastChange = "2020-07-14 07:46:22 +0000";
layers = (
{
anchors = (
{
name = bottom;
position = "{239, 0}";
},
{
name = ogonek;
position = "{451, 0}";
},
{
name = top;
position = "{341, 512}";
}
);
layerId = "AB099EFE-E788-4EFC-8633-CF147CB782A6";
paths = (
{
closed = 1;
nodes = (
"451 0 LINE",
"553 512 LINE",
"523 512 LINE",
"499 390 LINE",
"489 390 LINE",
"497 372 LINE",
"449 134 LINE",
"431 111 LINE",
"442 111 LINE",
"421 0 LINE"
);
},
{
closed = 1;
nodes = (
"380 -8 OFFCURVE",
"473 122 OFFCURVE",
"499 253 CURVE SMOOTH",
"531 414 OFFCURVE",
"450 520 OFFCURVE",
"316 520 CURVE SMOOTH",
"183 520 OFFCURVE",
"86 407 OFFCURVE",
"60 275 CURVE SMOOTH",
"29 121 OFFCURVE",
"107 -8 OFFCURVE",
"247 -8 CURVE SMOOTH"
);
},
{
closed = 1;
nodes = (
"127 20 OFFCURVE",
"62 132 OFFCURVE",
"90 272 CURVE SMOOTH",
"117 405 OFFCURVE",
"209 492 OFFCURVE",
"318 492 CURVE SMOOTH",
"429 492 OFFCURVE",
"503 405 OFFCURVE",
"473 256 CURVE SMOOTH",
"450 141 OFFCURVE",
"369 20 OFFCURVE",
"248 20 CURVE SMOOTH"
);
}
);
width = 586;
},
{
anchors = (
{
name = bottom;
position = "{247, 0}";
},
{
name = ogonek;
position = "{531, 0}";
},
{
name = top;
position = "{351, 528}";
}
);
layerId = "2D8F7115-C311-411E-929D-56333CF7FFB2";
paths = (
{
closed = 1;
nodes = (
"531 0 LINE",
"636 528 LINE",
"469 528 LINE",
"456 462 LINE",
"433 462 LINE",
"450 420 LINE",
"378 88 LINE",
"359 63 LINE",
"389 63 LINE",
"376 0 LINE"
);
},
{
closed = 1;
nodes = (
"365 -8 OFFCURVE",
"451 117 OFFCURVE",
"480 262 CURVE SMOOTH",
"510 413 OFFCURVE",
"450 536 OFFCURVE",
"298 536 CURVE SMOOTH",
"172 536 OFFCURVE",
"67 441 OFFCURVE",
"39 298 CURVE SMOOTH",
"8 140 OFFCURVE",
"87 -8 OFFCURVE",
"233 -8 CURVE SMOOTH"
);
},
{
closed = 1;
nodes = (
"219 136 OFFCURVE",
"186 204 OFFCURVE",
"201 275 CURVE SMOOTH",
"215 340 OFFCURVE",
"260 388 OFFCURVE",
"322 388 CURVE SMOOTH",
"394 388 OFFCURVE",
"424 326 OFFCURVE",
"411 255 CURVE SMOOTH",
"399 192 OFFCURVE",
"358 136 OFFCURVE",
"292 136 CURVE SMOOTH"
);
}
);
width = 644;
},
{
anchors = (
{
name = bottom;
position = "{239, 0}";
},
{
name = ogonek;
position = "{491, 0}";
},
{
name = top;
position = "{340, 518}";
}
);
associatedMasterId = "AB099EFE-E788-4EFC-8633-CF147CB782A6";
layerId = "7A046CA7-C488-4FFE-8BF5-BEAC606AFB0B";
name = "{88}";
paths = (
{
closed = 1;
nodes = (
"491 0 LINE",
"593 518 LINE",
"509 518 LINE",
"492 432 LINE",
"480 432 LINE",
"492 398 LINE",
"437 120 LINE",
"412 78 LINE",
"427 78 LINE",
"411 0 LINE"
);
},
{
closed = 1;
nodes = (
"388 -8 OFFCURVE",
"485 124 OFFCURVE",
"511 256 CURVE SMOOTH",
"542 412 OFFCURVE",
"462 526 OFFCURVE",
"318 526 CURVE SMOOTH",
"177 526 OFFCURVE",
"80 418 OFFCURVE",
"53 284 CURVE SMOOTH",
"20 123 OFFCURVE",
"103 -8 OFFCURVE",
"245 -8 CURVE SMOOTH"
);
},
{
closed = 1;
nodes = (
"160 68 OFFCURVE",
"110 161 OFFCURVE",
"131 268 CURVE SMOOTH",
"149 362 OFFCURVE",
"221 450 OFFCURVE",
"328 450 CURVE SMOOTH",
"439 450 OFFCURVE",
"480 358 OFFCURVE",
"458 253 CURVE SMOOTH",
"438 159 OFFCURVE",
"370 68 OFFCURVE",
"267 68 CURVE SMOOTH"
);
}
);
width = 611;
}
);
leftKerningGroup = LAT_O_LC;
leftMetricsKey = o;
rightKerningGroup = LAT_ASS01_LC;
rightMetricsKey = "=n.ss01+4";
},
{
glyphname = ae;
lastChange = "2020-07-14 11:22:37 +0000";
layers = (
{
background = {
anchors = (
{
name = bottom;
position = "{352, 0}";
},
{
name = top;
position = "{430, 512}";
}
);
paths = (
{
closed = 1;
nodes = (
"274 -8 OFFCURVE",
"341 58 OFFCURVE",
"375 142 CURVE",
"369 146 LINE",
"384 54 OFFCURVE",
"444 -8 OFFCURVE",
"546 -8 CURVE SMOOTH",
"618 -8 OFFCURVE",
"673 20 OFFCURVE",
"710 50 CURVE",
"699 78 LINE",
"657 44 OFFCURVE",
"608 20 OFFCURVE",
"545 20 CURVE SMOOTH",
"437 20 OFFCURVE",
"371 114 OFFCURVE",
"401 268 CURVE SMOOTH",
"426 399 OFFCURVE",
"506 492 OFFCURVE",
"612 492 CURVE SMOOTH",
"717 492 OFFCURVE",
"768 401 OFFCURVE",
"745 276 CURVE",
"396 276 LINE",
"391 248 LINE",
"771 248 LINE",
"773 256 OFFCURVE",
"775 263 OFFCURVE",
"777 276 CURVE SMOOTH",
"802 435 OFFCURVE",
"727 520 OFFCURVE",
"614 520 CURVE SMOOTH",
"526 520 OFFCURVE",
"454 468 OFFCURVE",
"409 384 CURVE",
"417 380 LINE",
"422 466 OFFCURVE",
"375 520 OFFCURVE",
"282 520 CURVE SMOOTH",
"218 520 OFFCURVE",
"154 495 OFFCURVE",
"114 464 CURVE",
"126 438 LINE",
"165 467 OFFCURVE",
"221 492 OFFCURVE",
"280 492 CURVE SMOOTH",
"398 492 OFFCURVE",
"393 390 OFFCURVE",
"384 340 CURVE SMOOTH",
"359 196 LINE SMOOTH",
"339 80 OFFCURVE",
"256 20 OFFCURVE",
"167 20 CURVE SMOOTH",
"87 20 OFFCURVE",
"50 75 OFFCURVE",
"59 135 CURVE SMOOTH",
"70 210 OFFCURVE",
"143 248 OFFCURVE",
"280 248 CURVE SMOOTH",
"376 248 LINE",
"380 276 LINE",
"286 276 LINE SMOOTH",
"133 276 OFFCURVE",
"48 236 OFFCURVE",
"31 142 CURVE SMOOTH",
"15 55 OFFCURVE",
"72 -8 OFFCURVE",
"169 -8 CURVE SMOOTH"
);
}
);
};
layerId = "AB099EFE-E788-4EFC-8633-CF147CB782A6";
paths = (
{
closed = 1;
nodes = (
"282 -8 OFFCURVE",
"354 23 OFFCURVE",
"403 110 CURVE",
"383 91 LINE",
"400 91 LINE",
"393 109 LINE",
"392 70 OFFCURVE",
"392 32 OFFCURVE",
"394 0 CURVE",
"424 0 LINE",
"421 59 OFFCURVE",
"419 118 OFFCURVE",
"431 177 CURVE",
"498 512 LINE",
"468 512 LINE",
"443 378 LINE",
"460 392 LINE",
"430 392 LINE",
"445 381 LINE",
"433 466 OFFCURVE",
"375 520 OFFCURVE",
"294 520 CURVE SMOOTH",
"174 520 OFFCURVE",
"79 411 OFFCURVE",
"57 258 CURVE SMOOTH",
"35 104 OFFCURVE",
"101 -8 OFFCURVE",
"222 -8 CURVE SMOOTH"
);
},
{
closed = 1;
nodes = (
"123 20 OFFCURVE",
"68 115 OFFCURVE",
"85 249 CURVE SMOOTH",
"101 377 OFFCURVE",
"183 492 OFFCURVE",
"293 492 CURVE SMOOTH",
"393 492 OFFCURVE",
"441 400 OFFCURVE",
"420 254 CURVE SMOOTH",
"399 112 OFFCURVE",
"324 20 OFFCURVE",
"222 20 CURVE SMOOTH"
);
},
{
closed = 1;
nodes = (
"661 -8 OFFCURVE",
"712 20 OFFCURVE",
"747 50 CURVE",
"737 78 LINE",
"697 44 OFFCURVE",
"652 20 OFFCURVE",
"595 20 CURVE SMOOTH",
"486 20 OFFCURVE",
"429 100 OFFCURVE",
"454 243 CURVE SMOOTH",
"477 376 OFFCURVE",
"563 492 OFFCURVE",
"663 492 CURVE SMOOTH",
"759 492 OFFCURVE",
"811 402 OFFCURVE",
"788 274 CURVE",
"452 274 LINE",
"446 246 LINE",
"811 246 LINE",
"812 249 OFFCURVE",
"814 260 OFFCURVE",
"815 265 CURVE SMOOTH",
"842 414 OFFCURVE",
"780 520 OFFCURVE",
"664 520 CURVE SMOOTH",
"551 520 OFFCURVE",
"444 403 OFFCURVE",
"426 241 CURVE SMOOTH",
"408 82 OFFCURVE",
"470 -8 OFFCURVE",
"593 -8 CURVE SMOOTH"
);
}
);
width = 865;
},
{
background = {
anchors = (
{
name = bottom;
position = "{369, 0}";
},
{
name = top;
position = "{461, 528}";
}
);
paths = (
{
closed = 1;
nodes = (
"306 -8 OFFCURVE",
"384 55 OFFCURVE",
"402 102 CURVE",
"362 116 LINE",
"395 41 OFFCURVE",
"462 -8 OFFCURVE",
"569 -8 CURVE SMOOTH",
"622 -8 OFFCURVE",
"684 4 OFFCURVE",
"722 30 CURVE",
"682 153 LINE",
"653 139 OFFCURVE",
"618 124 OFFCURVE",
"573 124 CURVE SMOOTH",
"496 124 OFFCURVE",
"453 166 OFFCURVE",
"459 247 CURVE SMOOTH",
"466 330 OFFCURVE",
"521 408 OFFCURVE",
"591 408 CURVE SMOOTH",
"646 408 OFFCURVE",
"674 374 OFFCURVE",
"667 314 CURVE",
"452 314 LINE",
"445 214 LINE",
"787 214 LINE",
"795 231 OFFCURVE",
"801 250 OFFCURVE",
"805 270 CURVE SMOOTH",
"831 402 OFFCURVE",
"757 536 OFFCURVE",
"612 536 CURVE SMOOTH",
"544 536 OFFCURVE",
"452 508 OFFCURVE",
"424 448 CURVE",
"462 432 LINE",
"448 492 OFFCURVE",
"418 536 OFFCURVE",
"293 536 CURVE SMOOTH",
"227 536 OFFCURVE",
"144 516 OFFCURVE",
"89 486 CURVE",
"129 354 LINE",
"159 374 OFFCURVE",
"223 402 OFFCURVE",
"283 402 CURVE SMOOTH",
"365 402 OFFCURVE",
"346 337 OFFCURVE",
"341 302 CURVE SMOOTH",
"328 212 LINE SMOOTH",
"320 158 OFFCURVE",
"286 116 OFFCURVE",
"225 116 CURVE SMOOTH",
"201 116 OFFCURVE",
"163 127 OFFCURVE",
"170 164 CURVE SMOOTH",
"177 197 OFFCURVE",
"213 214 OFFCURVE",
"283 214 CURVE SMOOTH",
"345 214 LINE",
"358 314 LINE",
"260 314 LINE SMOOTH",
"117 314 OFFCURVE",
"25 273 OFFCURVE",
"8 168 CURVE SMOOTH",
"-10 60 OFFCURVE",
"78 -8 OFFCURVE",
"189 -8 CURVE SMOOTH"
);
}
);
};
layerId = "2D8F7115-C311-411E-929D-56333CF7FFB2";
paths = (
{
closed = 1;
nodes = (
"259 -8 OFFCURVE",
"313 32 OFFCURVE",
"348 96 CURVE",
"318 68 LINE",
"340 68 LINE",
"336 103 LINE",
"331 71 OFFCURVE",
"331 32 OFFCURVE",
"337 0 CURVE",
"486 0 LINE",
"475 47 OFFCURVE",
"479 95 OFFCURVE",
"488 142 CURVE",
"560 528 LINE",
"406 528 LINE",
"380 399 LINE",
"470 460 LINE",
"315 460 LINE",
"416 431 LINE",
"389 496 OFFCURVE",
"338 536 OFFCURVE",
"268 536 CURVE SMOOTH",
"172 536 OFFCURVE",
"65 462 OFFCURVE",
"35 280 CURVE SMOOTH",
"6 107 OFFCURVE",
"72 -8 OFFCURVE",
"193 -8 CURVE SMOOTH"
);
},
{
closed = 1;
nodes = (
"204 136 OFFCURVE",
"182 181 OFFCURVE",
"191 253 CURVE SMOOTH",
"201 333 OFFCURVE",
"242 392 OFFCURVE",
"301 392 CURVE SMOOTH",
"355 392 OFFCURVE",
"380 343 OFFCURVE",
"373 279 CURVE SMOOTH",
"366 211 OFFCURVE",
"325 136 OFFCURVE",
"259 136 CURVE SMOOTH"
);
},
{
closed = 1;
nodes = (
"727 -8 OFFCURVE",
"784 3 OFFCURVE",
"828 26 CURVE",
"778 154 LINE",
"765 142 OFFCURVE",
"711 126 OFFCURVE",
"673 126 CURVE SMOOTH",
"604 126 OFFCURVE",
"554 177 OFFCURVE",
"559 249 CURVE SMOOTH",
"563 310 OFFCURVE",
"607 400 OFFCURVE",
"688 400 CURVE SMOOTH",
"724 400 OFFCURVE",
"776 382 OFFCURVE",
"767 318 CURVE",
"563 318 LINE",
"545 206 LINE",
"887 206 LINE",
"895 225 OFFCURVE",
"901 248 OFFCURVE",
"905 271 CURVE SMOOTH",
"932 427 OFFCURVE",
"836 536 OFFCURVE",
"706 536 CURVE SMOOTH",
"585 536 OFFCURVE",
"474 435 OFFCURVE",
"448 270 CURVE SMOOTH",
"422 106 OFFCURVE",
"501 -8 OFFCURVE",
"675 -8 CURVE SMOOTH"
);
}
);
width = 932;
},
{
associatedMasterId = "AB099EFE-E788-4EFC-8633-CF147CB782A6";
layerId = "4E3C060A-8824-4D41-B479-F9E6D7E33C17";
name = "{88}";
paths = (
{
closed = 1;
nodes = (
"274 -8 OFFCURVE",
"342 17 OFFCURVE",
"386 96 CURVE",
"362 73 LINE",
"381 73 LINE",
"375 98 LINE",
"373 61 OFFCURVE",
"370 32 OFFCURVE",
"373 0 CURVE",
"448 0 LINE",
"442 54 OFFCURVE",
"443 109 OFFCURVE",
"454 164 CURVE",
"522 518 LINE",
"446 518 LINE",
"420 386 LINE",
"466 441 LINE",
"388 441 LINE",
"444 400 LINE",
"426 477 OFFCURVE",
"362 526 OFFCURVE",
"285 526 CURVE SMOOTH",
"174 526 OFFCURVE",
"75 430 OFFCURVE",
"50 266 CURVE SMOOTH",
"25 105 OFFCURVE",
"90 -8 OFFCURVE",
"215 -8 CURVE SMOOTH"
);
},
{
closed = 1;
nodes = (
"153 64 OFFCURVE",
"112 144 OFFCURVE",
"126 251 CURVE SMOOTH",
"140 360 OFFCURVE",
"206 454 OFFCURVE",
"297 454 CURVE SMOOTH",
"380 454 OFFCURVE",
"419 378 OFFCURVE",
"403 262 CURVE SMOOTH",
"387 146 OFFCURVE",
"323 64 OFFCURVE",
"237 64 CURVE SMOOTH"
);
},
{
closed = 1;
nodes = (
"692 -8 OFFCURVE",
"744 14 OFFCURVE",
"783 41 CURVE",
"758 115 LINE",
"728 89 OFFCURVE",
"679 68 OFFCURVE",
"628 68 CURVE SMOOTH",
"533 68 OFFCURVE",
"482 131 OFFCURVE",
"499 245 CURVE SMOOTH",
"515 351 OFFCURVE",
"584 450 OFFCURVE",
"679 450 CURVE SMOOTH",
"750 450 OFFCURVE",
"794 396 OFFCURVE",
"776 293 CURVE",
"499 293 LINE",
"488 229 LINE",
"844 229 LINE",
"847 238 OFFCURVE",
"851 255 OFFCURVE",
"853 267 CURVE SMOOTH",
"881 427 OFFCURVE",
"799 526 OFFCURVE",
"686 526 CURVE SMOOTH",
"569 526 OFFCURVE",
"453 419 OFFCURVE",
"430 252 CURVE SMOOTH",
"409 100 OFFCURVE",
"482 -8 OFFCURVE",
"627 -8 CURVE SMOOTH"
);
}
);
width = 898;
}
);
leftKerningGroup = LAT_ASS02_LC;
leftMetricsKey = o;
rightKerningGroup = LAT_E_LC;
rightMetricsKey = e;
unicode = 00E6;
},
{
glyphname = b;
lastChange = "2020-07-14 11:16:36 +0000";
layers = (
{
anchors = (
{
name = bottom;
position = "{225, 0}";
},
{
name = center;
position = "{170, 616}";
},
{
name = top;
position = "{360, 564}";
}
);
components = (
{
name = _part.bowl;
}
);
layerId = "AB099EFE-E788-4EFC-8633-CF147CB782A6";
paths = (
{
closed = 1;
nodes = (
"63 0 LINE",
"86 116 LINE",
"93 116 LINE",
"89 156 LINE",
"133 372 LINE",
"152 416 LINE",
"146 416 LINE",
"213 752 LINE",
"183 752 LINE",
"33 0 LINE"
);
}
);
width = 568;
},
{
anchors = (
{
name = bottom;
position = "{253, 0}";
},
{
name = center;
position = "{222, 634}";
},
{
name = top;
position = "{442, 568}";
}
);
components = (
{
name = _part.bowl;
}
);
layerId = "2D8F7115-C311-411E-929D-56333CF7FFB2";
paths = (
{
closed = 1;
nodes = (
"170 0 LINE",
"182 66 LINE",
"202 66 LINE",
"190 132 LINE",
"256 440 LINE",
"294 496 LINE",
"280 496 LINE",
"331 752 LINE",
"157 752 LINE",
"7 0 LINE"
);
}
);
width = 616;
},
{
anchors = (
{
name = bottom;
position = "{243, 0}";
},
{
name = center;
position = "{183, 624}";
},
{
name = top;
position = "{399, 566}";
}
);
associatedMasterId = "AB099EFE-E788-4EFC-8633-CF147CB782A6";
components = (
{
alignment = -1;
name = _part.bowl;
transform = "{1, 0, 0, 1, -1, 0}";
}
);
layerId = "99FF7B21-5137-4378-B5BC-388B2D71F137";
name = "{88}";
paths = (
{
closed = 1;
nodes = (
"98 0 LINE",
"115 85 LINE",
"134 85 LINE",
"118 130 LINE",
"176 410 LINE",
"203 454 LINE",
"193 454 LINE",
"254 752 LINE",
"168 752 LINE",
"16 0 LINE"
);
}
);
width = 585;
}
);
leftKerningGroup = LAT_H_UC;
leftMetricsKey = h;
rightKerningGroup = LAT_O_LC;
rightMetricsKey = o;
unicode = 0062;
},
{
color = 4;
glyphname = b.ss01;
lastChange = "2020-07-14 11:16:34 +0000";
layers = (
{
anchors = (
{
name = bottom;
position = "{262, 0}";
},
{
name = center;
position = "{172, 616}";
},
{
name = top;
position = "{364, 564}";
}
);
components = (
{
name = _part.bowl.ss01;
transform = "{1, 0, 0, 1, 1, 0}";
}
);
layerId = "AB099EFE-E788-4EFC-8633-CF147CB782A6";
paths = (
{
closed = 1;
nodes = (
"63 0 LINE",
"88 124 LINE",
"95 124 LINE",
"89 140 LINE",
"133 364 LINE",
"148 394 LINE",
"142 394 LINE",
"213 752 LINE",
"183 752 LINE",
"33 0 LINE"
);
}
);
width = 601;
},
{
anchors = (
{
name = bottom;
position = "{288, 0}";
},
{
name = center;
position = "{226, 634}";
},
{
name = top;
position = "{446, 568}";
}
);
components = (
{
name = _part.bowl.ss01;
transform = "{1, 0, 0, 1, 1, 0}";
}
);
layerId = "2D8F7115-C311-411E-929D-56333CF7FFB2";
paths = (
{
closed = 1;
nodes = (
"167 0 LINE",
"179 71 LINE",
"203 71 LINE",
"193 110 LINE",
"254 398 LINE",
"291 481 LINE",
"276 481 LINE",
"330 752 LINE",
"157 752 LINE",
"7 0 LINE"
);
}
);
width = 645;
},
{
anchors = (
{
name = bottom;
position = "{275, 0}";
},
{
name = center;
position = "{185, 623}";
},
{
name = top;
position = "{393, 566}";
}
);
associatedMasterId = "AB099EFE-E788-4EFC-8633-CF147CB782A6";
components = (
{
alignment = -1;
name = _part.bowl.ss01;
transform = "{1, 0, 0, 1, -1, 0}";
}
);
layerId = "4F28ACDE-608B-4575-8CEE-0EF119258739";
name = "{88}";
paths = (
{
closed = 1;
nodes = (
"98 0 LINE",
"117 101 LINE",
"130 101 LINE",
"123 129 LINE",
"173 377 LINE",
"199 442 LINE",
"191 442 LINE",
"251 752 LINE",
"166 752 LINE",
"16 0 LINE"
);
}
);
width = 621;
}
);
leftKerningGroup = LAT_L_LC;
leftMetricsKey = h;
rightKerningGroup = LAT_O_LC;
rightMetricsKey = o;
},
{
glyphname = c;
lastChange = "2020-07-14 07:51:09 +0000";
layers = (
{
anchors = (
{
name = base;
position = "{330, 0}";
},
{
name = bottom;
position = "{222, 0}";
},
{
name = cedilla;
position = "{230, 0}";
},
{
name = top;
position = "{324, 512}";
}
);
layerId = "AB099EFE-E788-4EFC-8633-CF147CB782A6";
paths = (
{
closed = 1;
nodes = (
"293 -6 OFFCURVE",
"349 15 OFFCURVE",
"396 52 CURVE",
"383 82 LINE",
"348 48 OFFCURVE",
"290 22 OFFCURVE",
"236 22 CURVE SMOOTH",
"119 22 OFFCURVE",
"63 138 OFFCURVE",
"90 274 CURVE SMOOTH",
"116 406 OFFCURVE",
"205 492 OFFCURVE",
"320 492 CURVE SMOOTH",
"377 492 OFFCURVE",
"428 469 OFFCURVE",
"451 440 CURVE",
"469 466 LINE",
"438 497 OFFCURVE",
"379 520 OFFCURVE",
"317 520 CURVE SMOOTH",
"192 520 OFFCURVE",
"89 429 OFFCURVE",
"60 275 CURVE SMOOTH",
"30 115 OFFCURVE",
"105 -6 OFFCURVE",
"239 -6 CURVE SMOOTH"
);
}
);
userData = {
RMXScaler = {
height = 71.5;
weight = 20;
width = 77;
};
};
width = 481;
},
{
anchors = (
{
name = base;
position = "{361, 0}";
},
{
name = bottom;
position = "{253, 0}";
},
{
name = cedilla;
position = "{258, 0}";
},
{
name = top;
position = "{365, 528}";
}
);
layerId = "2D8F7115-C311-411E-929D-56333CF7FFB2";
paths = (
{
closed = 1;
nodes = (
"325 -6 OFFCURVE",
"383 8 OFFCURVE",
"417 30 CURVE",
"380 182 LINE",
"352 158 OFFCURVE",
"319 142 OFFCURVE",
"283 142 CURVE SMOOTH",
"220 142 OFFCURVE",
"186 197 OFFCURVE",
"201 273 CURVE SMOOTH",
"215 343 OFFCURVE",
"262 388 OFFCURVE",
"317 388 CURVE SMOOTH",
"346 388 OFFCURVE",
"385 375 OFFCURVE",
"405 355 CURVE",
"491 483 LINE",
"455 509 OFFCURVE",
"395 536 OFFCURVE",
"322 536 CURVE SMOOTH",
"179 536 OFFCURVE",
"65 432 OFFCURVE",
"37 291 CURVE SMOOTH",
"3 121 OFFCURVE",
"111 -6 OFFCURVE",
"272 -6 CURVE SMOOTH"
);
}
);
userData = {
RMXScaler = {
height = 73.5;
weight = -50;
width = 73;
};
};
width = 485;
},
{
anchors = (
{
name = base;
position = "{354, 0}";
},
{
name = bottom;
position = "{242, 0}";
},
{
name = cedilla;
position = "{248, 0}";
},
{
name = top;
position = "{348, 518}";
}
);
associatedMasterId = "AB099EFE-E788-4EFC-8633-CF147CB782A6";
layerId = "30D764F5-DF68-4ED2-B1CD-1BDA00272F29";
name = "{88}";
paths = (
{
closed = 1;
nodes = (
"316 -6 OFFCURVE",
"370 12 OFFCURVE",
"418 46 CURVE",
"399 122 LINE",
"370 95 OFFCURVE",
"312 70 OFFCURVE",
"261 70 CURVE SMOOTH",
"163 70 OFFCURVE",
"114 158 OFFCURVE",
"137 270 CURVE SMOOTH",
"158 376 OFFCURVE",
"236 450 OFFCURVE",
"327 450 CURVE SMOOTH",
"373 450 OFFCURVE",
"422 431 OFFCURVE",
"442 404 CURVE",
"485 474 LINE",
"454 504 OFFCURVE",
"394 526 OFFCURVE",
"332 526 CURVE SMOOTH",
"196 526 OFFCURVE",
"81 429 OFFCURVE",
"52 280 CURVE SMOOTH",
"20 113 OFFCURVE",
"112 -6 OFFCURVE",
"260 -6 CURVE SMOOTH"
);
}
);
width = 496;
}
);
leftKerningGroup = LAT_O_LC;
leftMetricsKey = o;
rightKerningGroup = LAT_C_LC;
unicode = 0063;
userData = {
RMXScaler = {
source = C;
};
};
},
{
glyphname = d;
lastChange = "2020-07-14 11:16:31 +0000";
layers = (
{
anchors = (
{
name = bottom;
position = "{258, 0}";
},
{
name = center;
position = "{552, 616}";
},
{
name = leghookretroflex;
position = "{429, 0}";
},
{
name = top;
position = "{576, 752}";
},
{
name = topright;
position = "{593, 752}";
}
);
components = (
{
name = "_part.bowl-reverse";
}
);
layerId = "AB099EFE-E788-4EFC-8633-CF147CB782A6";
paths = (
{
closed = 1;
nodes = (
"477 20 LINE",
"439 41 OFFCURVE",
"447 71 OFFCURVE",
"455 112 CURVE SMOOTH",
"582 754 LINE",
"555 754 LINE",
"480 384 LINE",
"468 384 LINE",
"476 349 LINE",
"432 127 LINE",
"412 89 LINE",
"426 89 LINE",
"424 103 LINE",
"410 26 OFFCURVE",
"428 17 OFFCURVE",
"460 -8 CURVE"
);
}
);
width = 576;
},
{
anchors = (
{
name = bottom;
position = "{262, 0}";
},
{
name = center;
position = "{546, 634}";
},
{
name = leghookretroflex;
position = "{421, 0}";
},
{
name = top;
position = "{570, 752}";
},
{
name = topright;
position = "{646, 752}";
}
);
components = (
{
name = "_part.bowl-reverse";
}
);
layerId = "2D8F7115-C311-411E-929D-56333CF7FFB2";
paths = (
{
closed = 1;
nodes = (
"575 134 LINE",
"548 144 OFFCURVE",
"542 148 OFFCURVE",
"549 184 CURVE SMOOTH",
"660 752 LINE",
"486 752 LINE",
"432 472 LINE",
"403 472 LINE",
"444 424 LINE",
"381 124 LINE",
"350 64 LINE",
"410 64 LINE",
"384 86 LINE",
"391 42 OFFCURVE",
"433 14 OFFCURVE",
"492 -6 CURVE"
);
}
);
width = 633;
},
{
anchors = (
{
name = bottom;
position = "{238, 0}";
},
{
name = center;
position = "{543, 622}";
},
{
name = leghookretroflex;
position = "{419, 0}";
},
{
name = top;
position = "{569, 752}";
},
{
name = topright;
position = "{670, 752}";
}
);
associatedMasterId = "AB099EFE-E788-4EFC-8633-CF147CB782A6";
components = (
{
alignment = -1;
name = "_part.bowl-reverse";
transform = "{1, 0, 0, 1, 1, 0}";
}
);
layerId = "2D0C2034-A73F-4A0A-8BC7-0B8E319C000D";
name = "{88}";
paths = (
{
closed = 1;
nodes = (
"511 67 LINE",
"480 83 OFFCURVE",
"480 101 OFFCURVE",
"488 141 CURVE SMOOTH",
"609 752 LINE",
"523 752 LINE",
"462 443 LINE",
"452 443 LINE",
"467 383 LINE",
"416 129 LINE",
"379 72 LINE",
"426 72 LINE",
"405 95 LINE",
"397 48 OFFCURVE",
"415 20 OFFCURVE",
"466 -8 CURVE"
);
}
);
width = 601;
}
);
leftKerningGroup = LAT_O_LC;
leftMetricsKey = o;
rightKerningGroup = LAT_D_LC;
rightMetricsKey = "=u+4";
unicode = 0064;
},
{
color = 4;
glyphname = d.ss01;
lastChange = "2020-07-14 11:16:29 +0000";
layers = (
{
anchors = (
{
name = bottom;
position = "{254, 0}";
},
{
name = center;
position = "{569, 616}";
},
{
name = leghookretroflex;
position = "{436, 0}";
},
{
name = top;
position = "{600, 752}";
},
{
name = topright;
position = "{615, 752}";
}
);
components = (
{
name = "_part.bowl-reverse.ss01";
}
);
layerId = "AB099EFE-E788-4EFC-8633-CF147CB782A6";
paths = (
{
closed = 1;
nodes = (
"466 0 LINE",
"615 752 LINE",
"584 752 LINE",
"513 390 LINE",
"501 390 LINE",
"511 362 LINE",
"466 142 LINE",
"445 109 LINE",
"458 109 LINE",
"436 0 LINE"
);
}
);
width = 620;
},
{
anchors = (
{
name = bottom;
position = "{263, 0}";
},
{
name = center;
position = "{589, 634}";
},
{
name = leghookretroflex;
position = "{450, 0}";
},
{
name = top;
position = "{599, 752}";
},
{
name = topright;
position = "{679, 752}";
}
);
components = (
{
name = "_part.bowl-reverse.ss01";
}
);
layerId = "2D8F7115-C311-411E-929D-56333CF7FFB2";
paths = (
{
closed = 1;
nodes = (
"531 0 LINE",
"680 752 LINE",
"506 752 LINE",
"450 463 LINE",
"440 463 LINE",
"447 420 LINE",
"375 88 LINE",
"367 60 LINE",
"386 60 LINE",
"374 0 LINE"
);
}
);
width = 646;
},
{
anchors = (
{
name = bottom;
position = "{262, 0}";
},
{
name = center;
position = "{580, 623}";
},
{
name = leghookretroflex;
position = "{448, 0}";
},
{
name = top;
position = "{606, 752}";
},
{
name = topright;
position = "{649, 752}";
}
);
associatedMasterId = "AB099EFE-E788-4EFC-8633-CF147CB782A6";
components = (
{
alignment = -1;
name = "_part.bowl-reverse.ss01";
transform = "{1, 0, 0, 1, 1, 0}";
}
);
layerId = "96FADAF1-D363-4EA3-84F9-703AA0519F3E";
name = "{88}";
paths = (
{
closed = 1;
nodes = (
"500 0 LINE",
"649 752 LINE",
"565 752 LINE",
"498 416 LINE",
"485 416 LINE",
"499 388 LINE",
"444 121 LINE",
"423 94 LINE",
"438 94 LINE",
"419 0 LINE"
);
}
);
width = 639;
}
);
leftKerningGroup = LAT_O_LC;
leftMetricsKey = o;
rightKerningGroup = LAT_H_UC;
},
{
glyphname = eth;
lastChange = "2020-07-14 05:09:01 +0000";
layers = (
{
layerId = "AB099EFE-E788-4EFC-8633-CF147CB782A6";
paths = (
{
closed = 1;
nodes = (
"376 -8 OFFCURVE",
"472 82 OFFCURVE",
"506 246 CURVE SMOOTH",
"551 461 OFFCURVE",
"469 682 OFFCURVE",
"266 762 CURVE",
"253 736 LINE",
"352 698 OFFCURVE",
"476 597 OFFCURVE",
"490 402 CURVE",
"500 406 LINE",
"477 406 LINE",
"497 384 LINE",
"472 459 OFFCURVE",
"394 500 OFFCURVE",
"314 500 CURVE SMOOTH",
"194 500 OFFCURVE",
"90 409 OFFCURVE",
"63 274 CURVE SMOOTH",
"32 120 OFFCURVE",
"116 -8 OFFCURVE",
"257 -8 CURVE SMOOTH"
);
},
{
closed = 1;
nodes = (
"155 22 OFFCURVE",
"61 113 OFFCURVE",
"92 266 CURVE SMOOTH",
"115 379 OFFCURVE",
"196 472 OFFCURVE",
"319 472 CURVE SMOOTH",
"431 472 OFFCURVE",
"499 395 OFFCURVE",
"475 252 CURVE SMOOTH",
"451 109 OFFCURVE",
"355 22 OFFCURVE",
"258 22 CURVE SMOOTH"
);
},
{
closed = 1;
nodes = (
"536 738 LINE",
"530 760 LINE",
"220 596 LINE",
"225 572 LINE"
);
}
);
width = 572;
},
{
layerId = "2D8F7115-C311-411E-929D-56333CF7FFB2";
paths = (
{
closed = 1;
nodes = (
"410 -8 OFFCURVE",
"529 120 OFFCURVE",
"561 311 CURVE SMOOTH",
"595 515 OFFCURVE",
"512 705 OFFCURVE",
"285 826 CURVE",
"199 698 LINE",
"330 643 OFFCURVE",
"410 536 OFFCURVE",
"431 423 CURVE",
"457 440 LINE",
"413 440 LINE",
"436 420 LINE",
"410 477 OFFCURVE",
"349 502 OFFCURVE",
"292 502 CURVE SMOOTH",
"177 502 OFFCURVE",
"56 404 OFFCURVE",
"32 266 CURVE SMOOTH",
"7 125 OFFCURVE",
"92 -8 OFFCURVE",
"251 -8 CURVE SMOOTH"
);
},
{
closed = 1;
nodes = (
"217 143 OFFCURVE",
"190 183 OFFCURVE",
"199 249 CURVE SMOOTH",
"209 319 OFFCURVE",
"256 371 OFFCURVE",
"314 371 CURVE SMOOTH",
"369 371 OFFCURVE",
"388 326 OFFCURVE",
"382 269 CURVE SMOOTH",
"376 210 OFFCURVE",
"336 143 OFFCURVE",
"268 143 CURVE SMOOTH"
);
},
{
closed = 1;
nodes = (
"588 738 LINE",
"546 826 LINE",
"178 592 LINE",
"210 528 LINE"
);
}
);
width = 592;
},
{
associatedMasterId = "AB099EFE-E788-4EFC-8633-CF147CB782A6";
layerId = "84295AF0-69C5-4285-A89B-8D4DF4BBB9BA";
name = "{88}";
paths = (
{
closed = 1;
nodes = (
"404 -8 OFFCURVE",
"502 98 OFFCURVE",
"536 266 CURVE SMOOTH",
"585 502 OFFCURVE",
"490 690 OFFCURVE",
"276 788 CURVE",
"236 719 LINE",
"347 671 OFFCURVE",
"459 580 OFFCURVE",
"475 428 CURVE",
"489 435 LINE",
"465 435 LINE",
"479 419 LINE",
"464 467 OFFCURVE",
"387 503 OFFCURVE",
"311 503 CURVE SMOOTH",
"180 503 OFFCURVE",
"80 403 OFFCURVE",
"54 275 CURVE SMOOTH",
"21 112 OFFCURVE",
"118 -8 OFFCURVE",
"265 -8 CURVE SMOOTH"
);
},
{
closed = 1;
nodes = (
"175 70 OFFCURVE",
"112 157 OFFCURVE",
"131 254 CURVE SMOOTH",
"152 359 OFFCURVE",
"225 428 OFFCURVE",
"318 428 CURVE SMOOTH",
"415 428 OFFCURVE",
"474 354 OFFCURVE",
"454 253 CURVE SMOOTH",
"435 156 OFFCURVE",
"361 73 OFFCURVE",
"270 71 CURVE SMOOTH"
);
},
{
closed = 1;
nodes = (
"570 741 LINE",
"550 789 LINE",
"210 604 LINE",
"227 555 LINE"
);
}
);
width = 590;
}
);
leftKerningGroup = LAT_ETH_LC;
rightKerningGroup = LAT_ETH_LC;
unicode = 00F0;
},
{
glyphname = e;
lastChange = "2020-07-14 11:16:27 +0000";
layers = (
{
anchors = (
{
name = bottom;
position = "{223, 0}";
},
{
name = cedilla;
position = "{217, 0}";
},
{
name = ogonek;
position = "{398, 50}";
},
{
name = top;
position = "{318, 512}";
}
);
guideLines = (
{
angle = -67.5;
position = "{422, 36}";
}
);
layerId = "AB099EFE-E788-4EFC-8633-CF147CB782A6";
paths = (
{
closed = 1;
nodes = (
"306 -8 OFFCURVE",
"361 20 OFFCURVE",
"398 50 CURVE",
"387 78 LINE",
"345 44 OFFCURVE",
"297 20 OFFCURVE",
"236 20 CURVE SMOOTH",
"119 20 OFFCURVE",
"60 114 OFFCURVE",
"86 257 CURVE SMOOTH",
"111 390 OFFCURVE",
"202 492 OFFCURVE",
"308 492 CURVE SMOOTH",
"411 492 OFFCURVE",
"466 402 OFFCURVE",
"441 274 CURVE",
"84 274 LINE",
"78 246 LINE",
"466 246 LINE",
"467 249 OFFCURVE",
"469 260 OFFCURVE",
"470 265 CURVE SMOOTH",
"499 414 OFFCURVE",
"433 520 OFFCURVE",
"309 520 CURVE SMOOTH",
"189 520 OFFCURVE",
"83 417 OFFCURVE",
"56 255 CURVE SMOOTH",
"30 96 OFFCURVE",
"103 -8 OFFCURVE",
"234 -8 CURVE SMOOTH"
);
}
);
width = 520;
},
{
anchors = (
{
name = bottom;
position = "{243, 0}";
},
{
name = cedilla;
position = "{242, 0}";
},
{
name = ogonek;
position = "{434, 35}";
},
{
name = top;
position = "{327, 524}";
}
);
associatedMasterId = "AB099EFE-E788-4EFC-8633-CF147CB782A6";
guideLines = (
{
angle = -67.5;
position = "{447, 36}";
}
);
layerId = "AA661440-5A2D-4B91-AB53-22C2BE9F23B9";
name = "{140}";
paths = (
{
closed = 1;
nodes = (
"327 -8 OFFCURVE",
"387 8 OFFCURVE",
"434 35 CURVE",
"391 141 LINE",
"365 119 OFFCURVE",
"318 101 OFFCURVE",
"273 101 CURVE SMOOTH",
"191 101 OFFCURVE",
"145 164 OFFCURVE",
"153 251 CURVE SMOOTH",
"161 338 OFFCURVE",
"221 422 OFFCURVE",
"304 422 CURVE SMOOTH",
"367 422 OFFCURVE",
"411 373 OFFCURVE",
"397 310 CURVE",
"148 310 LINE",
"131 215 LINE",
"497 215 LINE",
"503 229 OFFCURVE",
"510 253 OFFCURVE",
"515 277 CURVE SMOOTH",
"543 415 OFFCURVE",
"451 532 OFFCURVE",
"311 532 CURVE SMOOTH",
"183 532 OFFCURVE",
"72 433 OFFCURVE",
"43 287 CURVE SMOOTH",
"10 121 OFFCURVE",
"101 -8 OFFCURVE",
"269 -8 CURVE SMOOTH"
);
}
);
width = 548;
},
{
anchors = (
{
name = bottom;
position = "{247, 0}";
},
{
name = cedilla;
position = "{251, 0}";
},
{
name = ogonek;
position = "{439, 26}";
},
{
name = top;
position = "{324, 528}";
}
);
guideLines = (
{
angle = -67.5;
position = "{448, 36}";
}
);
layerId = "2D8F7115-C311-411E-929D-56333CF7FFB2";
paths = (
{
closed = 1;
nodes = (
"332 -8 OFFCURVE",
"392 3 OFFCURVE",
"439 26 CURVE",
"386 154 LINE",
"372 142 OFFCURVE",
"325 126 OFFCURVE",
"283 126 CURVE SMOOTH",
"217 126 OFFCURVE",
"169 172 OFFCURVE",
"174 249 CURVE SMOOTH",
"178 308 OFFCURVE",
"213 400 OFFCURVE",
"302 400 CURVE SMOOTH",
"338 400 OFFCURVE",
"384 382 OFFCURVE",
"374 318 CURVE",
"179 318 LINE",
"159 206 LINE",
"502 206 LINE",
"510 225 OFFCURVE",
"516 246 OFFCURVE",
"521 271 CURVE SMOOTH",
"549 412 OFFCURVE",
"459 536 OFFCURVE",
"308 536 CURVE SMOOTH",
"181 536 OFFCURVE",
"63 443 OFFCURVE",
"35 279 CURVE SMOOTH",
"6 110 OFFCURVE",
"95 -8 OFFCURVE",
"277 -8 CURVE SMOOTH"
);
}
);
width = 548;
},
{
anchors = (
{
name = bottom;
position = "{236, 0}";
},
{
name = cedilla;
position = "{232, 0}";
},
{
name = ogonek;
position = "{423, 45}";
},
{
name = top;
position = "{327, 518}";
}
);
associatedMasterId = "AB099EFE-E788-4EFC-8633-CF147CB782A6";
layerId = "B9692429-8F50-4C4F-88BF-581A0E5106CC";
name = "{88}";
paths = (
{
closed = 1;
nodes = (
"321 -8 OFFCURVE",
"378 14 OFFCURVE",
"423 45 CURVE",
"395 117 LINE",
"359 88 OFFCURVE",
"312 65 OFFCURVE",
"260 65 CURVE SMOOTH",
"162 65 OFFCURVE",
"112 147 OFFCURVE",
"128 261 CURVE SMOOTH",
"144 369 OFFCURVE",
"214 453 OFFCURVE",
"308 453 CURVE SMOOTH",
"394 453 OFFCURVE",
"443 379 OFFCURVE",
"424 297 CURVE",
"115 297 LINE",
"102 228 LINE",
"485 228 LINE",
"490 237 OFFCURVE",
"496 258 OFFCURVE",
"500 278 CURVE SMOOTH",
"526 418 OFFCURVE",
"442 526 OFFCURVE",
"313 526 CURVE SMOOTH",
"176 526 OFFCURVE",
"76 412 OFFCURVE",
"51 272 CURVE SMOOTH",
"22 112 OFFCURVE",
"111 -8 OFFCURVE",
"258 -8 CURVE SMOOTH"
);
}
);
width = 542;
}
);
leftKerningGroup = LAT_O_LC;
leftMetricsKey = o;
rightKerningGroup = LAT_E_LC;
unicode = 0065;
},
{
glyphname = f;
lastChange = "2020-07-14 04:30:13 +0000";
layers = (
{
anchors = (
{
name = bottom;
position = "{95, 0}";
},
{
name = top;
position = "{332, 752}";
}
);
components = (
{
name = "_part.f-stem";
}
);
layerId = "AB099EFE-E788-4EFC-8633-CF147CB782A6";
paths = (
{
closed = 1;
nodes = (
"330 484 LINE",
"335 512 LINE",
"99 512 LINE",
"94 484 LINE"
);
}
);
width = 332;
},
{
anchors = (
{
name = bottom;
position = "{154, 0}";
},
{
name = top;
position = "{367, 752}";
}
);
components = (
{
name = "_part.f-stem";
}
);
layerId = "2D8F7115-C311-411E-929D-56333CF7FFB2";
paths = (
{
closed = 1;
nodes = (
"424 380 LINE",
"454 528 LINE",
"73 528 LINE",
"43 380 LINE"
);
}
);
width = 428;
},
{
anchors = (
{
name = bottom;
position = "{140, 0}";
},
{
name = top;
position = "{368, 752}";
}
);
associatedMasterId = "AB099EFE-E788-4EFC-8633-CF147CB782A6";
components = (
{
name = "_part.f-stem";
}
);
layerId = "516F4623-5CD8-441C-8966-F6D84AE729AE";
name = "{140}";
paths = (
{
closed = 1;
nodes = (
"407 415 LINE",
"429 523 LINE",
"82 523 LINE",
"59 415 LINE"
);
}
);
width = 405;
},
{
anchors = (
{
name = bottom;
position = "{120, 0}";
},
{
name = top;
position = "{360, 752}";
}
);
associatedMasterId = "AB099EFE-E788-4EFC-8633-CF147CB782A6";
components = (
{
alignment = -1;
name = "_part.f-stem";
}
);
layerId = "341A4BF5-83BE-4EB3-A137-65F41E5737B0";
name = "{88}";
paths = (
{
closed = 1;
nodes = (
"373 443 LINE",
"388 518 LINE",
"88 518 LINE",
"74 443 LINE"
);
}
);
width = 371;
}
);
leftKerningGroup = LAT_F_LC;
rightKerningGroup = LAT_F_LC;
unicode = 0066;
},
{
glyphname = f.ss01;
lastChange = "2020-07-14 11:16:25 +0000";
layers = (
{
anchors = (
{
name = bottom;
position = "{98, 0}";
},
{
name = top;
position = "{336, 752}";
}
);
components = (
{
name = "_part.f-stem.ss01";
}
);
layerId = "AB099EFE-E788-4EFC-8633-CF147CB782A6";
paths = (
{
closed = 1;
nodes = (
"335 484 LINE",
"340 512 LINE",
"100 512 LINE",
"94 484 LINE"
);
}
);
width = 335;
},
{
anchors = (
{
name = bottom;
position = "{157, 0}";
},
{
name = top;
position = "{373, 752}";
}
);
components = (
{
name = "_part.f-stem.ss01";
}
);
layerId = "2D8F7115-C311-411E-929D-56333CF7FFB2";
paths = (
{
closed = 1;
nodes = (
"428 380 LINE",
"460 528 LINE",
"75 528 LINE",
"43 380 LINE"
);
}
);
width = 434;
},
{
anchors = (
{
name = bottom;
position = "{140, 0}";
},
{
name = top;
position = "{370, 752}";
}
);
associatedMasterId = "AB099EFE-E788-4EFC-8633-CF147CB782A6";
components = (
{
name = "_part.f-stem.ss01";
}
);
layerId = "516F4623-5CD8-441C-8966-F6D84AE729AE";
name = "{140}";
paths = (
{
closed = 1;
nodes = (
"407 416 LINE",
"428 524 LINE",
"80 524 LINE",
"59 416 LINE"
);
}
);
width = 407;
},
{
anchors = (
{
name = bottom;
position = "{121, 0}";
},
{
name = top;
position = "{361, 752}";
}
);
associatedMasterId = "AB099EFE-E788-4EFC-8633-CF147CB782A6";
components = (
{
name = "_part.f-stem.ss01";
}
);
layerId = "BA7D0039-D801-45C3-8E39-2A1AA3C1DBE1";
name = "{88}";
paths = (
{
closed = 1;
nodes = (
"375 443 LINE",
"390 518 LINE",
"91 518 LINE",
"76 443 LINE"
);
}
);
width = 376;
}
);
leftKerningGroup = LAT_F_LC;
rightKerningGroup = LAT_F_LC;
rightMetricsKey = f;
},
{
glyphname = g;
lastChange = "2020-07-14 04:30:13 +0000";
layers = (
{
anchors = (
{
name = bottom;
position = "{189, -206}";
},
{
name = top;
position = "{329, 512}";
}
);
components = (
{
name = "_part.bowl-reverse";
}
);
guideLines = (
{
angle = 67.5;
position = "{72, -8}";
}
);
layerId = "AB099EFE-E788-4EFC-8633-CF147CB782A6";
paths = (
{
closed = 1;
nodes = (
"292 -212 OFFCURVE",
"399 -158 OFFCURVE",
"431 2 CURVE SMOOTH",
"533 512 LINE",
"503 512 LINE",
"480 396 LINE",
"476 396 LINE",
"479 374 LINE",
"429 138 LINE",
"416 98 LINE",
"420 98 LINE",
"401 4 LINE SMOOTH",
"372 -140 OFFCURVE",
"280 -184 OFFCURVE",
"194 -184 CURVE SMOOTH",
"138 -184 OFFCURVE",
"65 -162 OFFCURVE",
"28 -115 CURVE",
"15 -146 LINE",
"49 -184 OFFCURVE",
"126 -212 OFFCURVE",
"193 -212 CURVE SMOOTH"
);
}
);
width = 570;
},
{
anchors = (
{
name = bottom;
position = "{213, -206}";
},
{
name = top;
position = "{350, 528}";
}
);
components = (
{
name = "_part.bowl-reverse";
transform = "{1, 0, 0, 0.9597, 2, 22}";
}
);
guideLines = (
{
angle = 67.5;
position = "{46, -16}";
}
);
layerId = "2D8F7115-C311-411E-929D-56333CF7FFB2";
paths = (
{
closed = 1;
nodes = (
"353 -214 OFFCURVE",
"484 -134 OFFCURVE",
"516 26 CURVE SMOOTH",
"617 528 LINE",
"457 528 LINE",
"444 462 LINE",
"410 462 LINE",
"432 420 LINE",
"368 112 LINE",
"347 60 LINE",
"363 60 LINE",
"356 32 LINE SMOOTH",
"340 -34 OFFCURVE",
"271 -70 OFFCURVE",
"202 -70 CURVE SMOOTH",
"140 -70 OFFCURVE",
"79 -45 OFFCURVE",
"46 -16 CURVE",
"-12 -156 LINE",
"26 -182 OFFCURVE",
"102 -214 OFFCURVE",
"202 -214 CURVE SMOOTH"
);
}
);
width = 628;
},
{
anchors = (
{
name = bottom;
position = "{201, -206}";
},
{
name = top;
position = "{340, 518}";
}
);
associatedMasterId = "AB099EFE-E788-4EFC-8633-CF147CB782A6";
components = (
{
alignment = -1;
name = "_part.bowl-reverse";
}
);
layerId = "A2BB8ABB-3A59-4E49-A4A5-C3E2EA4BD3D6";
name = "{88}";
paths = (
{
closed = 1;
nodes = (
"335 -214 OFFCURVE",
"436 -140 OFFCURVE",
"466 8 CURVE SMOOTH",
"569 518 LINE",
"486 518 LINE",
"469 436 LINE",
"447 436 LINE",
"461 382 LINE",
"409 126 LINE",
"380 67 LINE",
"396 67 LINE",
"385 13 LINE SMOOTH",
"364 -91 OFFCURVE",
"292 -137 OFFCURVE",
"205 -137 CURVE SMOOTH",
"146 -137 OFFCURVE",
"75 -114 OFFCURVE",
"38 -73 CURVE",
"7 -148 LINE",
"44 -182 OFFCURVE",
"121 -214 OFFCURVE",
"204 -214 CURVE SMOOTH"
);
}
);
width = 593;
}
);
leftKerningGroup = LAT_G_LC;
rightKerningGroup = LAT_G_LC;
unicode = 0067;
},
{
color = 4;
glyphname = g.ss01;
lastChange = "2020-07-14 04:30:13 +0000";
layers = (
{
anchors = (
{
name = bottom;
position = "{196, -206}";
},
{
name = top;
position = "{337, 512}";
}
);
components = (
{
name = "_part.bowl-reverse.ss01";
}
);
layerId = "AB099EFE-E788-4EFC-8633-CF147CB782A6";
paths = (
{
closed = 1;
nodes = (
"312 -212 OFFCURVE",
"434 -158 OFFCURVE",
"466 2 CURVE SMOOTH",
"568 512 LINE",
"538 512 LINE",
"513 388 LINE",
"505 388 LINE",
"510 362 LINE",
"468 154 LINE",
"453 120 LINE",
"461 120 LINE",
"436 4 LINE SMOOTH",
"405 -140 OFFCURVE",
"298 -184 OFFCURVE",
"211 -184 CURVE SMOOTH",
"141 -184 OFFCURVE",
"77 -162 OFFCURVE",
"40 -115 CURVE",
"26 -146 LINE",
"60 -184 OFFCURVE",
"132 -212 OFFCURVE",
"213 -212 CURVE SMOOTH"
);
}
);
width = 605;
},
{
anchors = (
{
name = bottom;
position = "{217, -206}";
},
{
name = top;
position = "{353, 528}";
}
);
components = (
{
name = "_part.bowl-reverse.ss01";
transform = "{1, 0, 0, 0.95973, 2, 22}";
}
);
layerId = "2D8F7115-C311-411E-929D-56333CF7FFB2";
paths = (
{
closed = 1;
nodes = (
"365 -214 OFFCURVE",
"500 -134 OFFCURVE",
"532 26 CURVE SMOOTH",
"633 528 LINE",
"469 528 LINE",
"455 463 LINE",
"426 463 LINE",
"448 420 LINE",
"384 112 LINE",
"365 69 LINE",
"377 69 LINE",
"370 32 LINE SMOOTH",
"357 -36 OFFCURVE",
"283 -70 OFFCURVE",
"209 -70 CURVE SMOOTH",
"147 -70 OFFCURVE",
"86 -45 OFFCURVE",
"53 -16 CURVE",
"-5 -156 LINE",
"33 -182 OFFCURVE",
"109 -214 OFFCURVE",
"209 -214 CURVE SMOOTH"
);
}
);
width = 644;
},
{
anchors = (
{
name = bottom;
position = "{211, -206}";
},
{
name = top;
position = "{350, 518}";
}
);
associatedMasterId = "AB099EFE-E788-4EFC-8633-CF147CB782A6";
components = (
{
alignment = -1;
name = "_part.bowl-reverse.ss01";
}
);
layerId = "6DB77EF0-046C-4865-95D6-3C880073ED56";
name = "{88}";
paths = (
{
closed = 1;
nodes = (
"357 -214 OFFCURVE",
"469 -140 OFFCURVE",
"499 8 CURVE SMOOTH",
"601 518 LINE",
"518 518 LINE",
"497 424 LINE",
"476 424 LINE",
"493 379 LINE",
"442 130 LINE",
"413 78 LINE",
"431 78 LINE",
"417 13 LINE SMOOTH",
"396 -90 OFFCURVE",
"312 -138 OFFCURVE",
"225 -138 CURVE SMOOTH",
"159 -138 OFFCURVE",
"83 -114 OFFCURVE",
"46 -73 CURVE",
"15 -148 LINE",
"52 -182 OFFCURVE",
"136 -214 OFFCURVE",
"226 -214 CURVE SMOOTH"
);
}
);
width = 625;
}
);
leftKerningGroup = LAT_G_LC;
leftMetricsKey = g;
rightKerningGroup = LAT_G_LC;
rightMetricsKey = g;
},
{
glyphname = h;
lastChange = "2020-07-14 10:42:37 +0000";
layers = (
{
anchors = (
{
name = bottom;
position = "{226, 0}";
},
{
name = center;
position = "{173, 616}";
},
{
name = top;
position = "{197, 720}";
}
);
background = {
paths = (
{
closed = 1;
nodes = (
"243 520 OFFCURVE",
"175 470 OFFCURVE",
"135 404 CURVE",
"162 428 LINE",
"150 428 LINE",
"214 752 LINE",
"184 752 LINE",
"33 0 LINE",
"63 0 LINE",
"129 324 LINE SMOOTH",
"148 418 OFFCURVE",
"241 492 OFFCURVE",
"330 492 CURVE SMOOTH",
"412 492 OFFCURVE",
"451 429 OFFCURVE",
"427 308 CURVE SMOOTH",
"388 112 LINE SMOOTH",
"377 55 OFFCURVE",
"383 25 OFFCURVE",
"427 -7 CURVE",
"440 24 LINE",
"416 38 OFFCURVE",
"408 62 OFFCURVE",
"416 104 CURVE SMOOTH",
"457 309 LINE SMOOTH",
"484 445 OFFCURVE",
"436 520 OFFCURVE",
"330 520 CURVE SMOOTH"
);
}
);
};
layerId = "AB099EFE-E788-4EFC-8633-CF147CB782A6";
paths = (
{
closed = 1;
nodes = (
"432 24 LINE",
"407 39 OFFCURVE",
"401 65 OFFCURVE",
"409 104 CURVE SMOOTH",
"450 309 LINE SMOOTH",
"477 445 OFFCURVE",
"430 520 OFFCURVE",
"326 520 CURVE SMOOTH",
"242 520 OFFCURVE",
"174 470 OFFCURVE",
"135 404 CURVE",
"162 428 LINE",
"150 428 LINE",
"214 752 LINE",
"184 752 LINE",
"33 0 LINE",
"63 0 LINE",
"129 324 LINE SMOOTH",
"148 418 OFFCURVE",
"240 492 OFFCURVE",
"326 492 CURVE SMOOTH",
"406 492 OFFCURVE",
"444 429 OFFCURVE",
"420 308 CURVE SMOOTH",
"381 112 LINE SMOOTH",
"370 55 OFFCURVE",
"376 26 OFFCURVE",
"419 -7 CURVE"
);
}
);
width = 526;
},
{
anchors = (
{
name = bottom;
position = "{256, 0}";
},
{
name = center;
position = "{220, 634}";
},
{
name = top;
position = "{243, 752}";
}
);
background = {
paths = (
{
closed = 1;
nodes = (
"181 0 LINE",
"241 300 LINE SMOOTH",
"252 356 OFFCURVE",
"282 394 OFFCURVE",
"329 394 CURVE SMOOTH",
"363 394 OFFCURVE",
"397 374 OFFCURVE",
"385 318 CURVE SMOOTH",
"350 153 LINE SMOOTH",
"326 41 OFFCURVE",
"389 -5 OFFCURVE",
"488 -9 CURVE",
"548 132 LINE",
"528 136 OFFCURVE",
"523 148 OFFCURVE",
"530 184 CURVE SMOOTH",
"563 342 LINE SMOOTH",
"587 458 OFFCURVE",
"526 536 OFFCURVE",
"411 536 CURVE SMOOTH",
"343 536 OFFCURVE",
"274 508 OFFCURVE",
"244 432 CURVE",
"292 490 LINE",
"280 490 LINE",
"331 752 LINE",
"157 752 LINE",
"7 0 LINE"
);
}
);
};
layerId = "2D8F7115-C311-411E-929D-56333CF7FFB2";
paths = (
{
closed = 1;
nodes = (
"549 132 LINE",
"529 136 OFFCURVE",
"517 148 OFFCURVE",
"524 184 CURVE SMOOTH",
"556 342 LINE SMOOTH",
"579 455 OFFCURVE",
"523 536 OFFCURVE",
"408 536 CURVE SMOOTH",
"342 536 OFFCURVE",
"274 508 OFFCURVE",
"244 432 CURVE",
"292 490 LINE",
"280 490 LINE",
"331 752 LINE",
"157 752 LINE",
"7 0 LINE",
"182 0 LINE",
"242 300 LINE SMOOTH",
"253 356 OFFCURVE",
"281 394 OFFCURVE",
"325 394 CURVE SMOOTH",
"356 394 OFFCURVE",
"388 374 OFFCURVE",
"376 318 CURVE SMOOTH",
"341 153 LINE SMOOTH",
"317 41 OFFCURVE",
"391 -6 OFFCURVE",
"488 -9 CURVE"
);
}
);
width = 603;
},
{
anchors = (
{
name = bottom;
position = "{236, 0}";
},
{
name = center;
position = "{183, 623}";
},
{
name = top;
position = "{207, 732}";
}
);
associatedMasterId = "AB099EFE-E788-4EFC-8633-CF147CB782A6";
layerId = "F424F543-CC5C-4B08-A7D1-D202AC383A53";
name = "{88}";
paths = (
{
closed = 1;
nodes = (
"468 68 LINE",
"436 75 OFFCURVE",
"438 91 OFFCURVE",
"447 137 CURVE SMOOTH",
"484 325 LINE SMOOTH",
"503 423 OFFCURVE",
"464 526 OFFCURVE",
"337 526 CURVE SMOOTH",
"256 526 OFFCURVE",
"190 484 OFFCURVE",
"157 415 CURVE",
"207 471 LINE",
"197 471 LINE",
"252 752 LINE",
"166 752 LINE",
"16 0 LINE",
"102 0 LINE",
"166 316 LINE SMOOTH",
"182 396 OFFCURVE",
"246 449 OFFCURVE",
"317 449 CURVE SMOOTH",
"386 449 OFFCURVE",
"413 400 OFFCURVE",
"396 311 CURVE SMOOTH",
"360 131 LINE SMOOTH",
"346 60 OFFCURVE",
"361 17 OFFCURVE",
"438 -8 CURVE"
);
}
);
width = 550;
}
);
leftKerningGroup = LAT_H_UC;
rightKerningGroup = LAT_N_LC;
rightMetricsKey = n;
unicode = 0068;
},
{
glyphname = h.ss01;
lastChange = "2020-07-14 11:16:24 +0000";
layers = (
{
anchors = (
{
name = bottom;
position = "{220, 0}";
},
{
name = center;
position = "{173, 616}";
},
{
name = top;
position = "{197, 720}";
}
);
layerId = "AB099EFE-E788-4EFC-8633-CF147CB782A6";
paths = (
{
closed = 1;
nodes = (
"63 0 LINE",
"129 324 LINE SMOOTH",
"148 418 OFFCURVE",
"239 492 OFFCURVE",
"334 492 CURVE SMOOTH",
"448 492 OFFCURVE",
"454 388 OFFCURVE",
"438 308 CURVE SMOOTH",
"375 0 LINE",
"405 0 LINE",
"467 312 LINE SMOOTH",
"492 438 OFFCURVE",
"446 520 OFFCURVE",
"333 520 CURVE SMOOTH",
"249 520 OFFCURVE",
"176 470 OFFCURVE",
"135 404 CURVE",
"162 428 LINE",
"150 428 LINE",
"214 752 LINE",
"184 752 LINE",
"33 0 LINE"
);
}
);
width = 536;
},
{
anchors = (
{
name = bottom;
position = "{249, 0}";
},
{
name = center;
position = "{220, 634}";
},
{
name = top;
position = "{243, 752}";
}
);
layerId = "2D8F7115-C311-411E-929D-56333CF7FFB2";
paths = (
{
closed = 1;
nodes = (
"181 0 LINE",
"241 300 LINE SMOOTH",
"252 356 OFFCURVE",
"291 394 OFFCURVE",
"338 394 CURVE SMOOTH",
"372 394 OFFCURVE",
"396 374 OFFCURVE",
"385 318 CURVE SMOOTH",
"321 0 LINE",
"495 0 LINE",
"564 342 LINE SMOOTH",
"587 458 OFFCURVE",
"534 536 OFFCURVE",
"420 536 CURVE SMOOTH",
"353 536 OFFCURVE",
"269 508 OFFCURVE",
"239 432 CURVE",
"290 480 LINE",
"278 480 LINE",
"331 752 LINE",
"157 752 LINE",
"7 0 LINE"
);
}
);
width = 604;
},
{
anchors = (
{
name = bottom;
position = "{228, 0}";
},
{
name = center;
position = "{186, 622}";
},
{
name = top;
position = "{209, 744}";
}
);
associatedMasterId = "AB099EFE-E788-4EFC-8633-CF147CB782A6";
layerId = "9FF1CA8D-17B2-4411-938C-215EA3CF2550";
name = "{88}";
paths = (
{
closed = 1;
nodes = (
"101 0 LINE",
"165 312 LINE SMOOTH",
"183 399 OFFCURVE",
"255 450 OFFCURVE",
"328 450 CURVE SMOOTH",
"408 450 OFFCURVE",
"435 393 OFFCURVE",
"418 311 CURVE SMOOTH",
"354 0 LINE",
"439 0 LINE",
"505 326 LINE SMOOTH",
"524 418 OFFCURVE",
"496 526 OFFCURVE",
"360 526 CURVE SMOOTH",
"281 526 OFFCURVE",
"209 491 OFFCURVE",
"167 422 CURVE",
"213 457 LINE",
"192 457 LINE",
"252 752 LINE",
"168 752 LINE",
"16 0 LINE"
);
}
);
width = 556;
}
);
leftKerningGroup = LAT_H_UC;
leftMetricsKey = h;
rightKerningGroup = LAT_N_LC;
rightMetricsKey = n.ss01;
},
{
color = 8;
glyphname = idotless;
lastChange = "2020-07-14 11:28:50 +0000";
layers = (
{
anchors = (
{
name = bottom;
position = "{92, 0}";
},
{
name = center;
position = "{109, 278}";
},
{
name = ogonek;
position = "{150, 4}";
},
{
name = top;
position = "{157, 512}";
}
);
guideLines = (
{
angle = 80;
position = "{63, -8}";
}
);
layerId = "AB099EFE-E788-4EFC-8633-CF147CB782A6";
paths = (
{
closed = 1;
nodes = (
"127 -4 OFFCURVE",
"145 -1 OFFCURVE",
"153 3 CURVE",
"160 36 LINE",
"146 29 OFFCURVE",
"125 24 OFFCURVE",
"113 24 CURVE SMOOTH",
"74 24 OFFCURVE",
"83 65 OFFCURVE",
"88 90 CURVE SMOOTH",
"172 512 LINE",
"142 512 LINE",
"61 110 LINE SMOOTH",
"50 57 OFFCURVE",
"45 -4 OFFCURVE",
"112 -4 CURVE SMOOTH"
);
}
);
width = 236;
},
{
anchors = (
{
name = bottom;
position = "{116, 0}";
},
{
name = center;
position = "{155, 278}";
},
{
name = ogonek;
position = "{242, 8}";
},
{
name = top;
position = "{202, 528}";
}
);
guideLines = (
{
angle = 80;
position = "{152, -8}";
}
);
layerId = "2D8F7115-C311-411E-929D-56333CF7FFB2";
paths = (
{
closed = 1;
nodes = (
"190 -8 OFFCURVE",
"229 -2 OFFCURVE",
"253 10 CURVE",
"278 150 LINE",
"269 144 OFFCURVE",
"254 138 OFFCURVE",
"240 138 CURVE SMOOTH",
"223 138 OFFCURVE",
"214 146 OFFCURVE",
"218 166 CURVE SMOOTH",
"290 528 LINE",
"117 528 LINE",
"42 152 LINE SMOOTH",
"26 72 OFFCURVE",
"54 -8 OFFCURVE",
"163 -8 CURVE SMOOTH"
);
}
);
width = 324;
},
{
anchors = (
{
name = bottom;
position = "{114, 0}";
},
{
name = center;
position = "{127, 278}";
},
{
name = ogonek;
position = "{200, 2}";
},
{
name = top;
position = "{176, 518}";
}
);
associatedMasterId = "AB099EFE-E788-4EFC-8633-CF147CB782A6";
layerId = "1438BB7C-14E4-4D88-82DE-FA4FCC6E8A00";
name = "{88}";
paths = (
{
closed = 1;
nodes = (
"167 -7 OFFCURVE",
"186 -3 OFFCURVE",
"201 2 CURVE",
"212 84 LINE",
"203 78 OFFCURVE",
"184 73 OFFCURVE",
"168 73 CURVE SMOOTH",
"130 73 OFFCURVE",
"136 106 OFFCURVE",
"140 128 CURVE SMOOTH",
"218 518 LINE",
"132 518 LINE",
"53 122 LINE SMOOTH",
"37 43 OFFCURVE",
"76 -7 OFFCURVE",
"146 -7 CURVE SMOOTH"
);
}
);
width = 280;
}
);
unicode = 0131;
},
{
glyphname = idotless.ss01;
lastChange = "2020-07-14 04:30:13 +0000";
layers = (
{
anchors = (
{
name = bottom;
position = "{49, 0}";
},
{
name = ogonek;
position = "{65, 0}";
},
{
name = top;
position = "{153, 512}";
}
);
layerId = "AB099EFE-E788-4EFC-8633-CF147CB782A6";
paths = (
{
closed = 1;
nodes = (
"67 0 LINE",
"169 512 LINE",
"139 512 LINE",
"37 0 LINE"
);
}
);
width = 206;
},
{
anchors = (
{
name = bottom;
position = "{97, 0}";
},
{
name = ogonek;
position = "{187, 0}";
},
{
name = top;
position = "{203, 528}";
}
);
guideLines = (
{
angle = 60;
position = "{91, 0}";
}
);
layerId = "2D8F7115-C311-411E-929D-56333CF7FFB2";
paths = (
{
closed = 1;
nodes = (
"183 0 LINE",
"289 528 LINE",
"115 528 LINE",
"9 0 LINE"
);
}
);
width = 298;
},
{
anchors = (
{
name = bottom;
position = "{63, 0}";
},
{
name = ogonek;
position = "{70, 0}";
},
{
name = top;
position = "{169, 518}";
}
);
associatedMasterId = "AB099EFE-E788-4EFC-8633-CF147CB782A6";
layerId = "BD7177BC-ABF4-4725-AD7F-623E510F5718";
name = "{88}";
paths = (
{
closed = 1;
nodes = (
"106 0 LINE",
"211 518 LINE",
"126 518 LINE",
"21 0 LINE"
);
}
);
width = 232;
}
);
},
{
glyphname = jdotless;
lastChange = "2020-07-14 11:18:10 +0000";
layers = (
{
anchors = (
{
name = center;
position = "{120, 278}";
},
{
name = top;
position = "{166, 512}";
}
);
layerId = "AB099EFE-E788-4EFC-8633-CF147CB782A6";
paths = (
{
closed = 1;
nodes = (
"-2 -214 OFFCURVE",
"50 -152 OFFCURVE",
"66 -70 CURVE SMOOTH",
"182 512 LINE",
"151 512 LINE",
"35 -72 LINE SMOOTH",
"23 -132 OFFCURVE",
"-15 -184 OFFCURVE",
"-78 -184 CURVE SMOOTH",
"-85 -184 OFFCURVE",
"-96 -183 OFFCURVE",
"-108 -179 CURVE",
"-114 -208 LINE",
"-101 -212 OFFCURVE",
"-87 -214 OFFCURVE",
"-74 -214 CURVE SMOOTH"
);
}
);
width = 217;
},
{
anchors = (
{
name = center;
position = "{162, 278}";
},
{
name = top;
position = "{209, 528}";
}
);
layerId = "2D8F7115-C311-411E-929D-56333CF7FFB2";
paths = (
{
closed = 1;
nodes = (
"91 -218 OFFCURVE",
"166 -136 OFFCURVE",
"190 -14 CURVE SMOOTH",
"297 528 LINE",
"122 528 LINE",
"15 -10 LINE SMOOTH",
"10 -36 OFFCURVE",
"-11 -64 OFFCURVE",
"-49 -64 CURVE SMOOTH",
"-56 -64 OFFCURVE",
"-77 -64 OFFCURVE",
"-85 -60 CURVE",
"-116 -208 LINE",
"-89 -214 OFFCURVE",
"-62 -218 OFFCURVE",
"-34 -218 CURVE SMOOTH"
);
}
);
width = 307;
},
{
anchors = (
{
name = center;
position = "{134, 278}";
},
{
name = top;
position = "{181, 518}";
}
);
associatedMasterId = "AB099EFE-E788-4EFC-8633-CF147CB782A6";
layerId = "2FC6949F-D867-4300-A6F0-6103BE7A348D";
name = "{88}";
paths = (
{
closed = 1;
nodes = (
"32 -214 OFFCURVE",
"93 -144 OFFCURVE",
"108 -68 CURVE SMOOTH",
"224 518 LINE",
"138 518 LINE",
"24 -52 LINE SMOOTH",
"14 -103 OFFCURVE",
"-19 -134 OFFCURVE",
"-65 -134 CURVE SMOOTH",
"-76 -134 OFFCURVE",
"-92 -132 OFFCURVE",
"-104 -127 CURVE",
"-120 -206 LINE",
"-114 -207 OFFCURVE",
"-87 -214 OFFCURVE",
"-60 -214 CURVE SMOOTH"
);
}
);
width = 243;
}
);
leftKerningGroup = LAT_J_LC;
rightKerningGroup = LAT_J_LC;
unicode = 0237;
},
{
glyphname = k;
lastChange = "2020-07-14 11:16:22 +0000";
layers = (
{
anchors = (
{
name = bottom;
position = "{198, 0}";
},
{
name = top;
position = "{197, 752}";
}
);
layerId = "AB099EFE-E788-4EFC-8633-CF147CB782A6";
paths = (
{
closed = 1;
nodes = (
"64 0 LINE",
"113 246 LINE",
"151 246 LINE",
"133 258 LINE",
"341 0 LINE",
"379 0 LINE",
"161 269 LINE",
"162 251 LINE",
"457 512 LINE",
"414 512 LINE",
"134 264 LINE",
"157 276 LINE",
"119 276 LINE",
"214 752 LINE",
"183 752 LINE",
"33 0 LINE"
);
}
);
width = 462;
},
{
anchors = (
{
name = bottom;
position = "{256, 0}";
},
{
name = top;
position = "{245, 752}";
}
);
layerId = "2D8F7115-C311-411E-929D-56333CF7FFB2";
paths = (
{
closed = 1;
nodes = (
"183 0 LINE",
"226 216 LINE",
"277 216 LINE",
"233 248 LINE",
"353 0 LINE",
"534 0 LINE",
"362 316 LINE",
"374 218 LINE",
"633 528 LINE",
"426 528 LINE",
"254 296 LINE",
"293 316 LINE",
"246 316 LINE",
"332 752 LINE",
"157 752 LINE",
"7 0 LINE"
);
}
);
width = 596;
},
{
anchors = (
{
name = bottom;
position = "{214, 0}";
},
{
name = top;
position = "{208, 752}";
}
);
associatedMasterId = "AB099EFE-E788-4EFC-8633-CF147CB782A6";
layerId = "E3EC11CF-B62E-4D4D-89DD-D7A9BFB7E337";
name = "{88}";
paths = (
{
closed = 1;
nodes = (
"102 0 LINE",
"150 235 LINE",
"192 235 LINE",
"167 261 LINE",
"351 0 LINE",
"448 0 LINE",
"240 291 LINE",
"247 246 LINE",
"528 518 LINE",
"412 518 LINE",
"180 287 LINE",
"209 300 LINE",
"163 300 LINE",
"254 752 LINE",
"168 752 LINE",
"16 0 LINE"
);
}
);
width = 522;
}
);
leftKerningGroup = LAT_H_UC;
leftMetricsKey = h;
rightKerningGroup = LAT_K_LC;
unicode = 006B;
},
{
glyphname = kgreenlandic;
lastChange = "2020-07-07 00:17:18 +0000";
layers = (
{
anchors = (
{
name = bottom;
position = "{184, 0}";
},
{
name = top;
position = "{286, 512}";
}
);
layerId = "AB099EFE-E788-4EFC-8633-CF147CB782A6";
paths = (
{
closed = 1;
nodes = (
"63 0 LINE",
"112 246 LINE",
"149 246 LINE",
"129 258 LINE",
"337 0 LINE",
"377 0 LINE",
"159 270 LINE",
"157 252 LINE",
"463 512 LINE",
"419 512 LINE",
"131 264 LINE",
"155 276 LINE",
"118 276 LINE",
"165 512 LINE",
"135 512 LINE",
"33 0 LINE"
);
}
);
width = 460;
},
{
anchors = (
{
name = bottom;
position = "{246, 0}";
},
{
name = top;
position = "{352, 528}";
}
);
layerId = "2D8F7115-C311-411E-929D-56333CF7FFB2";
paths = (
{
closed = 1;
nodes = (
"181 0 LINE",
"225 222 LINE",
"258 222 LINE",
"213 248 LINE",
"339 0 LINE",
"535 0 LINE",
"353 326 LINE",
"336 226 LINE",
"637 528 LINE",
"427 528 LINE",
"221 296 LINE",
"279 322 LINE",
"246 322 LINE",
"287 528 LINE",
"113 528 LINE",
"7 0 LINE"
);
}
);
width = 597;
}
);
leftMetricsKey = n;
rightMetricsKey = k;
unicode = 0138;
},
{
glyphname = l;
lastChange = "2020-07-14 10:43:21 +0000";
layers = (
{
anchors = (
{
name = bottom;
position = "{77, 0}";
},
{
name = center;
position = "{123, 374}";
},
{
name = top;
position = "{198, 752}";
},
{
name = topright;
position = "{218, 752}";
}
);
background = {
components = (
{
name = l.ss01;
transform = "{1, 0, 0, 1, -9, 0}";
}
);
};
layerId = "AB099EFE-E788-4EFC-8633-CF147CB782A6";
paths = (
{
closed = 1;
nodes = (
"115 -4 OFFCURVE",
"130 3 OFFCURVE",
"138 9 CURVE",
"143 39 LINE",
"138 36 OFFCURVE",
"119 24 OFFCURVE",
"99 24 CURVE SMOOTH",
"67 24 OFFCURVE",
"74 56 OFFCURVE",
"80 84 CURVE SMOOTH",
"214 752 LINE",
"183 752 LINE",
"51 92 LINE SMOOTH",
"41 42 OFFCURVE",
"41 -4 OFFCURVE",
"95 -4 CURVE SMOOTH"
);
}
);
width = 223;
},
{
anchors = (
{
name = bottom;
position = "{115, 0}";
},
{
name = center;
position = "{170, 394}";
},
{
name = top;
position = "{243, 752}";
},
{
name = topright;
position = "{314, 752}";
}
);
background = {
components = (
{
name = l.ss01;
transform = "{1, 0, 0, 1, -4, 0}";
}
);
};
layerId = "2D8F7115-C311-411E-929D-56333CF7FFB2";
paths = (
{
closed = 1;
nodes = (
"186 -8 OFFCURVE",
"225 -2 OFFCURVE",
"249 10 CURVE",
"274 150 LINE",
"265 144 OFFCURVE",
"250 138 OFFCURVE",
"235 138 CURVE SMOOTH",
"218 138 OFFCURVE",
"210 146 OFFCURVE",
"214 166 CURVE SMOOTH",
"331 752 LINE",
"157 752 LINE",
"38 152 LINE SMOOTH",
"22 72 OFFCURVE",
"50 -8 OFFCURVE",
"159 -8 CURVE SMOOTH"
);
}
);
width = 339;
},
{
anchors = (
{
name = bottom;
position = "{88, 0}";
},
{
name = center;
position = "{138, 382}";
},
{
name = top;
position = "{211, 752}";
},
{
name = topright;
position = "{332, 752}";
}
);
associatedMasterId = "AB099EFE-E788-4EFC-8633-CF147CB782A6";
layerId = "34A6A96F-32F6-47B7-A445-67F345941F04";
name = "{88}";
paths = (
{
closed = 1;
nodes = (
"151 -7 OFFCURVE",
"168 -3 OFFCURVE",
"182 3 CURVE",
"193 83 LINE",
"186 79 OFFCURVE",
"169 73 OFFCURVE",
"153 73 CURVE SMOOTH",
"120 73 OFFCURVE",
"124 106 OFFCURVE",
"127 119 CURVE SMOOTH",
"254 752 LINE",
"168 752 LINE",
"40 118 LINE SMOOTH",
"24 39 OFFCURVE",
"64 -7 OFFCURVE",
"128 -7 CURVE SMOOTH"
);
}
);
width = 261;
}
);
leftKerningGroup = LAT_L_LC;
leftMetricsKey = h;
rightKerningGroup = LAT_L_LC;
unicode = 006C;
},
{
color = 4;
glyphname = l.ss01;
lastChange = "2020-06-14 07:13:58 +0000";
layers = (
{
anchors = (
{
name = bottom;
position = "{59, 0}";
},
{
name = center;
position = "{131, 358}";
},
{
name = dot;
position = "{240, 360}";
},
{
name = top;
position = "{217, 804}";
},
{
name = topright;
position = "{224, 752}";
}
);
layerId = "AB099EFE-E788-4EFC-8633-CF147CB782A6";
paths = (
{
closed = 1;
nodes = (
"74 0 LINE",
"224 752 LINE",
"193 752 LINE",
"43 0 LINE"
);
}
);
width = 219;
},
{
anchors = (
{
name = bottom;
position = "{105, 0}";
},
{
name = center;
position = "{184, 394}";
},
{
name = dot;
position = "{415, 400}";
},
{
name = top;
position = "{252, 752}";
},
{
name = topright;
position = "{342, 752}";
}
);
layerId = "2D8F7115-C311-411E-929D-56333CF7FFB2";
paths = (
{
closed = 1;
nodes = (
"192 0 LINE",
"342 752 LINE",
"167 752 LINE",
"17 0 LINE"
);
}
);
width = 315;
}
);
leftKerningGroup = LAT_H_UC;
rightKerningGroup = LAT_H_UC;
},
{
glyphname = m;
lastChange = "2020-07-14 11:16:19 +0000";
layers = (
{
anchors = (
{
name = bottom;
position = "{345, 0}";
},
{
name = leghookleft;
position = "{646, 0}";
},
{
name = top;
position = "{447, 512}";
}
);
layerId = "AB099EFE-E788-4EFC-8633-CF147CB782A6";
paths = (
{
closed = 1;
nodes = (
"702 24 LINE",
"677 39 OFFCURVE",
"671 66 OFFCURVE",
"679 104 CURVE SMOOTH",
"727 334 LINE SMOOTH",
"754 464 OFFCURVE",
"686 520 OFFCURVE",
"602 520 CURVE SMOOTH",
"511 520 OFFCURVE",
"458 458 OFFCURVE",
"429 406 CURVE",
"444 410 LINE",
"422 410 LINE",
"432 398 LINE",
"431 462 OFFCURVE",
"376 520 OFFCURVE",
"300 520 CURVE SMOOTH",
"224 520 OFFCURVE",
"166 470 OFFCURVE",
"138 404 CURVE",
"157 427 LINE",
"148 427 LINE",
"165 512 LINE",
"135 512 LINE",
"33 0 LINE",
"64 0 LINE",
"127 316 LINE SMOOTH",
"143 396 OFFCURVE",
"208 492 OFFCURVE",
"299 492 CURVE SMOOTH",
"355 492 OFFCURVE",
"421 452 OFFCURVE",
"399 334 CURVE SMOOTH",
"336 0 LINE",
"367 0 LINE",
"428 328 LINE SMOOTH",
"441 398 OFFCURVE",
"507 492 OFFCURVE",
"600 492 CURVE SMOOTH",
"655 492 OFFCURVE",
"721 460 OFFCURVE",
"694 328 CURVE SMOOTH",
"650 112 LINE SMOOTH",
"640 63 OFFCURVE",
"640 29 OFFCURVE",
"689 -7 CURVE"
);
}
);
width = 796;
},
{
anchors = (
{
name = bottom;
position = "{389, 0}";
},
{
name = leghookleft;
position = "{677, 0}";
},
{
name = top;
position = "{493, 528}";
}
);
layerId = "2D8F7115-C311-411E-929D-56333CF7FFB2";
paths = (
{
closed = 1;
nodes = (
"831 133 LINE",
"810 137 OFFCURVE",
"798 150 OFFCURVE",
"805 185 CURVE SMOOTH",
"833 322 LINE SMOOTH",
"860 453 OFFCURVE",
"788 536 OFFCURVE",
"674 536 CURVE SMOOTH",
"599 536 OFFCURVE",
"544 492 OFFCURVE",
"507 448 CURVE",
"528 456 LINE",
"495 456 LINE",
"515 437 LINE",
"509 496 OFFCURVE",
"469 536 OFFCURVE",
"405 536 CURVE SMOOTH",
"337 536 OFFCURVE",
"279 502 OFFCURVE",
"230 406 CURVE",
"286 462 LINE",
"262 462 LINE",
"277 528 LINE",
"113 528 LINE",
"7 0 LINE",
"182 0 LINE",
"240 286 LINE SMOOTH",
"250 337 OFFCURVE",
"273 394 OFFCURVE",
"324 394 CURVE SMOOTH",
"359 394 OFFCURVE",
"377 366 OFFCURVE",
"369 322 CURVE SMOOTH",
"308 0 LINE",
"483 0 LINE",
"537 286 LINE SMOOTH",
"545 326 OFFCURVE",
"560 394 OFFCURVE",
"614 394 CURVE SMOOTH",
"649 394 OFFCURVE",
"666 366 OFFCURVE",
"657 322 CURVE SMOOTH",
"623 153 LINE SMOOTH",
"606 68 OFFCURVE",
"638 5 OFFCURVE",
"771 -8 CURVE"
);
}
);
width = 885;
},
{
anchors = (
{
name = bottom;
position = "{357, 0}";
},
{
name = leghookleft;
position = "{653, 0}";
},
{
name = top;
position = "{462, 518}";
}
);
associatedMasterId = "AB099EFE-E788-4EFC-8633-CF147CB782A6";
layerId = "8EB62850-FAEC-4B3D-90DD-7A02AB5D758B";
name = "{88}";
paths = (
{
closed = 1;
nodes = (
"740 68 LINE",
"709 75 OFFCURVE",
"707 91 OFFCURVE",
"717 137 CURVE SMOOTH",
"760 341 LINE SMOOTH",
"784 453 OFFCURVE",
"715 526 OFFCURVE",
"612 526 CURVE SMOOTH",
"530 526 OFFCURVE",
"472 477 OFFCURVE",
"437 414 CURVE",
"484 442 LINE",
"429 442 LINE",
"465 409 LINE",
"452 476 OFFCURVE",
"399 526 OFFCURVE",
"329 526 CURVE SMOOTH",
"259 526 OFFCURVE",
"198 481 OFFCURVE",
"167 410 CURVE",
"207 452 LINE",
"188 452 LINE",
"201 518 LINE",
"120 518 LINE",
"16 0 LINE",
"102 0 LINE",
"159 280 LINE SMOOTH",
"179 376 OFFCURVE",
"229 450 OFFCURVE",
"304 450 CURVE SMOOTH",
"359 450 OFFCURVE",
"395 410 OFFCURVE",
"379 324 CURVE SMOOTH",
"318 0 LINE",
"404 0 LINE",
"457 283 LINE SMOOTH",
"474 376 OFFCURVE",
"525 450 OFFCURVE",
"604 450 CURVE SMOOTH",
"662 450 OFFCURVE",
"688 410 OFFCURVE",
"672 333 CURVE SMOOTH",
"630 131 LINE SMOOTH",
"620 83 OFFCURVE",
"614 22 OFFCURVE",
"710 -8 CURVE"
);
}
);
width = 822;
}
);
leftKerningGroup = LAT_N_LC;
leftMetricsKey = n;
rightKerningGroup = LAT_N_LC;
rightMetricsKey = n;
unicode = 006D;
},
{
glyphname = m.ss01;
lastChange = "2020-07-14 11:16:16 +0000";
layers = (
{
anchors = (
{
name = bottom;
position = "{351, 0}";
},
{
name = leghookleft;
position = "{657, 0}";
},
{
name = top;
position = "{453, 512}";
}
);
guideLines = (
{
angle = 60;
position = "{195, 358}";
}
);
layerId = "AB099EFE-E788-4EFC-8633-CF147CB782A6";
paths = (
{
closed = 1;
nodes = (
"63 0 LINE",
"126 316 LINE SMOOTH",
"142 396 OFFCURVE",
"218 492 OFFCURVE",
"312 492 CURVE SMOOTH",
"371 492 OFFCURVE",
"428 452 OFFCURVE",
"404 334 CURVE SMOOTH",
"337 0 LINE",
"367 0 LINE",
"432 328 LINE SMOOTH",
"446 398 OFFCURVE",
"520 492 OFFCURVE",
"616 492 CURVE SMOOTH",
"672 492 OFFCURVE",
"732 460 OFFCURVE",
"706 328 CURVE SMOOTH",
"641 0 LINE",
"671 0 LINE",
"738 334 LINE SMOOTH",
"764 464 OFFCURVE",
"695 520 OFFCURVE",
"615 520 CURVE SMOOTH",
"525 520 OFFCURVE",
"467 458 OFFCURVE",
"438 406 CURVE",
"452 410 LINE",
"430 410 LINE",
"440 398 LINE",
"438 466 OFFCURVE",
"387 520 OFFCURVE",
"313 520 CURVE SMOOTH",
"236 520 OFFCURVE",
"180 470 OFFCURVE",
"136 404 CURVE",
"154 418 LINE",
"146 418 LINE",
"165 512 LINE",
"135 512 LINE",
"33 0 LINE"
);
}
);
width = 802;
},
{
anchors = (
{
name = bottom;
position = "{393, 0}";
},
{
name = leghookleft;
position = "{683, 0}";
},
{
name = top;
position = "{497, 528}";
}
);
background = {
paths = (
{
closed = 1;
nodes = (
"181 0 LINE",
"243 306 LINE SMOOTH",
"252 350 OFFCURVE",
"274 394 OFFCURVE",
"321 394 CURVE SMOOTH",
"361 394 OFFCURVE",
"374 363 OFFCURVE",
"366 322 CURVE SMOOTH",
"301 0 LINE",
"475 0 LINE",
"537 306 LINE SMOOTH",
"546 350 OFFCURVE",
"569 394 OFFCURVE",
"614 394 CURVE SMOOTH",
"652 394 OFFCURVE",
"669 364 OFFCURVE",
"661 322 CURVE SMOOTH",
"597 0 LINE",
"771 0 LINE",
"835 322 LINE SMOOTH",
"861 453 OFFCURVE",
"788 536 OFFCURVE",
"677 536 CURVE SMOOTH",
"606 536 OFFCURVE",
"551 501 OFFCURVE",
"514 457 CURVE",
"534 464 LINE",
"500 464 LINE",
"527 441 LINE",
"508 500 OFFCURVE",
"478 536 OFFCURVE",
"412 536 CURVE SMOOTH",
"342 536 OFFCURVE",
"280 502 OFFCURVE",
"233 406 CURVE",
"286 462 LINE",
"263 462 LINE",
"276 528 LINE",
"113 528 LINE",
"7 0 LINE"
);
}
);
};
layerId = "2D8F7115-C311-411E-929D-56333CF7FFB2";
paths = (
{
closed = 1;
nodes = (
"180 0 LINE",
"245 324 LINE SMOOTH",
"253 363 OFFCURVE",
"278 393 OFFCURVE",
"315 393 CURVE SMOOTH",
"354 393 OFFCURVE",
"375 362 OFFCURVE",
"367 322 CURVE SMOOTH",
"302 0 LINE",
"476 0 LINE",
"540 324 LINE SMOOTH",
"548 363 OFFCURVE",
"572 393 OFFCURVE",
"610 393 CURVE SMOOTH",
"648 393 OFFCURVE",
"670 363 OFFCURVE",
"662 322 CURVE SMOOTH",
"598 0 LINE",
"771 0 LINE",
"835 322 LINE SMOOTH",
"861 453 OFFCURVE",
"788 536 OFFCURVE",
"677 536 CURVE SMOOTH",
"606 536 OFFCURVE",
"554 501 OFFCURVE",
"507 446 CURVE",
"537 464 LINE",
"503 464 LINE",
"530 441 LINE",
"511 500 OFFCURVE",
"478 536 OFFCURVE",
"412 536 CURVE SMOOTH",
"342 536 OFFCURVE",
"280 502 OFFCURVE",
"233 406 CURVE",
"286 462 LINE",
"263 462 LINE",
"276 528 LINE",
"113 528 LINE",
"7 0 LINE"
);
}
);
width = 880;
},
{
anchors = (
{
name = bottom;
position = "{366, 0}";
},
{
name = leghookleft;
position = "{669, 0}";
},
{
name = top;
position = "{471, 518}";
}
);
associatedMasterId = "AB099EFE-E788-4EFC-8633-CF147CB782A6";
layerId = "5E1CD860-8BFA-4BAF-B650-8FF4C28CAD08";
name = "{88}";
paths = (
{
closed = 1;
nodes = (
"101 0 LINE",
"164 310 LINE SMOOTH",
"182 394 OFFCURVE",
"244 450 OFFCURVE",
"311 450 CURVE SMOOTH",
"372 450 OFFCURVE",
"402 407 OFFCURVE",
"384 317 CURVE SMOOTH",
"320 0 LINE",
"405 0 LINE",
"469 313 LINE SMOOTH",
"486 395 OFFCURVE",
"548 450 OFFCURVE",
"615 450 CURVE SMOOTH",
"675 450 OFFCURVE",
"706 409 OFFCURVE",
"688 316 CURVE SMOOTH",
"624 0 LINE",
"710 0 LINE",
"777 332 LINE SMOOTH",
"799 444 OFFCURVE",
"752 526 OFFCURVE",
"631 526 CURVE SMOOTH",
"538 526 OFFCURVE",
"478 475 OFFCURVE",
"445 416 CURVE",
"496 444 LINE",
"440 444 LINE",
"472 411 LINE",
"458 480 OFFCURVE",
"422 526 OFFCURVE",
"342 526 CURVE SMOOTH",
"259 526 OFFCURVE",
"200 478 OFFCURVE",
"166 407 CURVE",
"208 451 LINE",
"192 451 LINE",
"206 518 LINE",
"120 518 LINE",
"16 0 LINE"
);
}
);
width = 826;
}
);
leftKerningGroup = LAT_N_LC;
leftMetricsKey = n;
rightKerningGroup = LAT_N_LC;
rightMetricsKey = n.ss01;
},
{
glyphname = n;
lastChange = "2020-07-14 10:42:32 +0000";
layers = (
{
anchors = (
{
name = bottom;
position = "{228, 0}";
},
{
name = leghookleft;
position = "{50, 0}";
},
{
name = leghookretroflex;
position = "{375, 0}";
},
{
name = top;
position = "{325, 512}";
}
);
layerId = "AB099EFE-E788-4EFC-8633-CF147CB782A6";
paths = (
{
closed = 1;
nodes = (
"430 24 LINE",
"405 39 OFFCURVE",
"397 65 OFFCURVE",
"405 104 CURVE SMOOTH",
"454 331 LINE SMOOTH",
"478 442 OFFCURVE",
"423 520 OFFCURVE",
"322 520 CURVE SMOOTH",
"233 520 OFFCURVE",
"173 470 OFFCURVE",
"135 404 CURVE",
"163 428 LINE",
"150 428 LINE",
"167 512 LINE",
"135 512 LINE",
"33 0 LINE",
"63 0 LINE",
"129 324 LINE SMOOTH",
"147 414 OFFCURVE",
"225 492 OFFCURVE",
"320 492 CURVE SMOOTH",
"401 492 OFFCURVE",
"444 425 OFFCURVE",
"423 330 CURVE SMOOTH",
"376 112 LINE SMOOTH",
"364 55 OFFCURVE",
"373 24 OFFCURVE",
"417 -7 CURVE"
);
}
);
width = 524;
},
{
anchors = (
{
name = bottom;
position = "{252, 0}";
},
{
name = leghookleft;
position = "{94, 0}";
},
{
name = leghookretroflex;
position = "{401, 0}";
},
{
name = top;
position = "{368, 528}";
}
);
layerId = "2D8F7115-C311-411E-929D-56333CF7FFB2";
paths = (
{
closed = 1;
nodes = (
"551 133 LINE",
"531 137 OFFCURVE",
"519 149 OFFCURVE",
"526 185 CURVE SMOOTH",
"558 343 LINE SMOOTH",
"582 460 OFFCURVE",
"518 536 OFFCURVE",
"420 536 CURVE SMOOTH",
"344 536 OFFCURVE",
"277 496 OFFCURVE",
"243 406 CURVE",
"287 456 LINE",
"266 456 LINE",
"280 528 LINE",
"113 528 LINE",
"8 0 LINE",
"183 0 LINE",
"239 280 LINE SMOOTH",
"254 356 OFFCURVE",
"282 394 OFFCURVE",
"327 394 CURVE SMOOTH",
"358 394 OFFCURVE",
"390 375 OFFCURVE",
"378 318 CURVE SMOOTH",
"344 153 LINE SMOOTH",
"321 41 OFFCURVE",
"392 -2 OFFCURVE",
"492 -8 CURVE"
);
}
);
width = 605;
},
{
anchors = (
{
name = bottom;
position = "{227, 0}";
},
{
name = leghookleft;
position = "{57, 0}";
},
{
name = leghookretroflex;
position = "{371, 0}";
},
{
name = top;
position = "{333, 518}";
}
);
associatedMasterId = "AB099EFE-E788-4EFC-8633-CF147CB782A6";
layerId = "93A3596F-5BF5-4DF9-93C4-0F67B49473EC";
name = "{88}";
paths = (
{
closed = 1;
nodes = (
"458 67 LINE",
"426 74 OFFCURVE",
"424 90 OFFCURVE",
"434 136 CURVE SMOOTH",
"479 345 LINE SMOOTH",
"502 451 OFFCURVE",
"442 526 OFFCURVE",
"339 526 CURVE SMOOTH",
"260 526 OFFCURVE",
"205 483 OFFCURVE",
"163 412 CURVE",
"205 452 LINE",
"188 452 LINE",
"202 518 LINE",
"120 518 LINE",
"16 0 LINE",
"102 0 LINE",
"162 297 LINE SMOOTH",
"180 384 OFFCURVE",
"241 450 OFFCURVE",
"314 450 CURVE SMOOTH",
"375 450 OFFCURVE",
"406 404 OFFCURVE",
"390 331 CURVE SMOOTH",
"347 130 LINE SMOOTH",
"336 77 OFFCURVE",
"335 17 OFFCURVE",
"428 -9 CURVE"
);
}
);
width = 540;
}
);
leftKerningGroup = LAT_N_LC;
rightKerningGroup = LAT_N_LC;
unicode = 006E;
},
{
glyphname = n.ss01;
lastChange = "2020-07-14 11:16:14 +0000";
layers = (
{
anchors = (
{
name = bottom;
position = "{230, 0}";
},
{
name = leghookleft;
position = "{50, 0}";
},
{
name = leghookright;
position = "{390, 0}";
},
{
name = top;
position = "{334, 512}";
}
);
layerId = "AB099EFE-E788-4EFC-8633-CF147CB782A6";
paths = (
{
closed = 1;
nodes = (
"62 0 LINE",
"128 324 LINE SMOOTH",
"146 414 OFFCURVE",
"225 492 OFFCURVE",
"325 492 CURVE SMOOTH",
"438 492 OFFCURVE",
"454 388 OFFCURVE",
"438 308 CURVE SMOOTH",
"376 0 LINE",
"405 0 LINE",
"467 312 LINE SMOOTH",
"492 438 OFFCURVE",
"440 520 OFFCURVE",
"323 520 CURVE SMOOTH",
"232 520 OFFCURVE",
"169 470 OFFCURVE",
"135 404 CURVE",
"164 428 LINE",
"147 428 LINE",
"164 512 LINE",
"135 512 LINE",
"33 0 LINE"
);
}
);
width = 536;
},
{
anchors = (
{
name = bottom;
position = "{248, 0}";
},
{
name = leghookleft;
position = "{94, 0}";
},
{
name = leghookright;
position = "{410, 0}";
},
{
name = top;
position = "{372, 528}";
}
);
layerId = "2D8F7115-C311-411E-929D-56333CF7FFB2";
paths = (
{
closed = 1;
nodes = (
"181 0 LINE",
"242 300 LINE SMOOTH",
"253 356 OFFCURVE",
"285 394 OFFCURVE",
"330 394 CURVE SMOOTH",
"364 394 OFFCURVE",
"396 374 OFFCURVE",
"385 318 CURVE SMOOTH",
"322 0 LINE",
"495 0 LINE",
"563 343 LINE SMOOTH",
"586 459 OFFCURVE",
"516 536 OFFCURVE",
"411 536 CURVE SMOOTH",
"337 536 OFFCURVE",
"277 496 OFFCURVE",
"243 406 CURVE",
"288 456 LINE",
"266 456 LINE",
"280 528 LINE",
"113 528 LINE",
"8 0 LINE"
);
}
);
width = 604;
},
{
anchors = (
{
name = bottom;
position = "{232, 0}";
},
{
name = leghookleft;
position = "{60, 0}";
},
{
name = leghookright;
position = "{397, 0}";
},
{
name = top;
position = "{350, 518}";
}
);
associatedMasterId = "AB099EFE-E788-4EFC-8633-CF147CB782A6";
layerId = "12C8E23E-379F-4DA0-AE00-E34B10F4D3D5";
name = "{88}";
paths = (
{
closed = 1;
nodes = (
"100 0 LINE",
"166 319 LINE SMOOTH",
"181 392 OFFCURVE",
"246 450 OFFCURVE",
"322 450 CURVE SMOOTH",
"399 450 OFFCURVE",
"433 386 OFFCURVE",
"420 319 CURVE SMOOTH",
"355 0 LINE",
"439 0 LINE",
"505 326 LINE SMOOTH",
"525 427 OFFCURVE",
"475 526 OFFCURVE",
"348 526 CURVE SMOOTH",
"266 526 OFFCURVE",
"210 487 OFFCURVE",
"170 419 CURVE",
"212 454 LINE",
"191 454 LINE",
"205 518 LINE",
"120 518 LINE",
"16 0 LINE"
);
}
);
width = 556;
}
);
leftKerningGroup = LAT_N_LC;
leftMetricsKey = n;
rightKerningGroup = LAT_N_LC;
},
{
glyphname = o;
lastChange = "2020-07-14 07:46:03 +0000";
layers = (
{
anchors = (
{
name = bottom;
position = "{242, 0}";
},
{
name = center;
position = "{284, 256}";
},
{
name = horn;
position = "{435, 480}";
},
{
name = ogonek;
position = "{298, 0}";
},
{
name = top;
position = "{326, 512}";
},
{
name = topright;
position = "{585, 512}";
}
);
background = {
paths = (
{
closed = 1;
nodes = (
"394 -8 OFFCURVE",
"498 112 OFFCURVE",
"524 256 CURVE SMOOTH",
"553 420 OFFCURVE",
"467 520 OFFCURVE",
"335 520 CURVE SMOOTH",
"185 520 OFFCURVE",
"80 394 OFFCURVE",
"56 256 CURVE SMOOTH",
"29 99 OFFCURVE",
"115 -8 OFFCURVE",
"251 -8 CURVE SMOOTH"
);
},
{
closed = 1;
nodes = (
"130 20 OFFCURVE",
"61 116 OFFCURVE",
"86 253 CURVE SMOOTH",
"110 386 OFFCURVE",
"209 492 OFFCURVE",
"336 492 CURVE SMOOTH",
"455 492 OFFCURVE",
"518 398 OFFCURVE",
"494 262 CURVE SMOOTH",
"472 134 OFFCURVE",
"382 20 OFFCURVE",
"251 20 CURVE SMOOTH"
);
}
);
};
layerId = "AB099EFE-E788-4EFC-8633-CF147CB782A6";
paths = (
{
closed = 1;
nodes = (
"373 -8 OFFCURVE",
"475 90 OFFCURVE",
"503 231 CURVE SMOOTH",
"534 386 OFFCURVE",
"464 520 OFFCURVE",
"314 520 CURVE SMOOTH",
"190 520 OFFCURVE",
"89 424 OFFCURVE",
"61 283 CURVE SMOOTH",
"30 128 OFFCURVE",
"102 -8 OFFCURVE",
"251 -8 CURVE SMOOTH"
);
},
{
closed = 1;
nodes = (
"123 20 OFFCURVE",
"63 137 OFFCURVE",
"91 278 CURVE SMOOTH",
"116 404 OFFCURVE",
"204 492 OFFCURVE",
"314 492 CURVE SMOOTH",
"440 492 OFFCURVE",
"502 376 OFFCURVE",
"473 235 CURVE SMOOTH",
"449 116 OFFCURVE",
"364 20 OFFCURVE",
"252 20 CURVE SMOOTH"
);
}
);
width = 564;
},
{
anchors = (
{
name = bottom;
position = "{238, 0}";
},
{
name = center;
position = "{289, 264}";
},
{
name = horn;
position = "{475, 483}";
},
{
name = ogonek;
position = "{302, 0}";
},
{
name = top;
position = "{334, 528}";
},
{
name = topright;
position = "{598, 528}";
}
);
layerId = "2D8F7115-C311-411E-929D-56333CF7FFB2";
paths = (
{
closed = 1;
nodes = (
"397 -8 OFFCURVE",
"516 102 OFFCURVE",
"544 244 CURVE SMOOTH",
"576 404 OFFCURVE",
"475 536 OFFCURVE",
"317 536 CURVE SMOOTH",
"178 536 OFFCURVE",
"64 426 OFFCURVE",
"36 286 CURVE SMOOTH",
"4 126 OFFCURVE",
"98 -8 OFFCURVE",
"256 -8 CURVE SMOOTH"
);
},
{
closed = 1;
nodes = (
"208 136 OFFCURVE",
"186 186 OFFCURVE",
"197 257 CURVE SMOOTH",
"209 335 OFFCURVE",
"251 390 OFFCURVE",
"311 390 CURVE SMOOTH",
"367 390 OFFCURVE",
"391 342 OFFCURVE",
"383 275 CURVE SMOOTH",
"375 208 OFFCURVE",
"338 136 OFFCURVE",
"267 136 CURVE SMOOTH"
);
}
);
width = 580;
},
{
anchors = (
{
name = bottom;
position = "{241, 0}";
},
{
name = center;
position = "{283, 258}";
},
{
name = horn;
position = "{443, 487}";
},
{
name = ogonek;
position = "{299, 0}";
},
{
name = top;
position = "{326, 518}";
},
{
name = topright;
position = "{586, 518}";
}
);
associatedMasterId = "AB099EFE-E788-4EFC-8633-CF147CB782A6";
layerId = "FEF77DAA-A186-48A8-B1BE-C701A8908274";
name = "{88}";
paths = (
{
closed = 1;
nodes = (
"384 -8 OFFCURVE",
"486 92 OFFCURVE",
"515 234 CURVE SMOOTH",
"548 395 OFFCURVE",
"473 526 OFFCURVE",
"318 526 CURVE SMOOTH",
"183 526 OFFCURVE",
"80 422 OFFCURVE",
"53 284 CURVE SMOOTH",
"21 124 OFFCURVE",
"101 -8 OFFCURVE",
"255 -8 CURVE SMOOTH"
);
},
{
closed = 1;
nodes = (
"157 68 OFFCURVE",
"114 159 OFFCURVE",
"136 269 CURVE SMOOTH",
"158 380 OFFCURVE",
"227 450 OFFCURVE",
"314 450 CURVE SMOOTH",
"409 450 OFFCURVE",
"454 362 OFFCURVE",
"433 255 CURVE SMOOTH",
"413 154 OFFCURVE",
"348 68 OFFCURVE",
"254 68 CURVE SMOOTH"
);
}
);
width = 568;
}
);
leftKerningGroup = LAT_O_LC;
rightKerningGroup = LAT_O_LC;
unicode = 006F;
},
{
color = 4;
glyphname = o.ss01;
lastChange = "2020-07-14 04:30:13 +0000";
layers = (
{
anchors = (
{
name = bottom;
position = "{256, 0}";
},
{
name = center;
position = "{298, 256}";
},
{
name = horn;
position = "{455, 480}";
},
{
name = ogonek;
position = "{316, 0}";
},
{
name = top;
position = "{339, 512}";
},
{
name = topright;
position = "{615, 512}";
}
);
layerId = "AB099EFE-E788-4EFC-8633-CF147CB782A6";
paths = (
{
closed = 1;
nodes = (
"391 -8 OFFCURVE",
"502 86 OFFCURVE",
"531 232 CURVE SMOOTH",
"562 386 OFFCURVE",
"484 520 OFFCURVE",
"327 520 CURVE SMOOTH",
"194 520 OFFCURVE",
"89 424 OFFCURVE",
"61 283 CURVE SMOOTH",
"30 128 OFFCURVE",
"106 -8 OFFCURVE",
"267 -8 CURVE SMOOTH"
);
},
{
closed = 1;
nodes = (
"129 20 OFFCURVE",
"63 137 OFFCURVE",
"91 277 CURVE SMOOTH",
"116 404 OFFCURVE",
"210 492 OFFCURVE",
"327 492 CURVE SMOOTH",
"463 492 OFFCURVE",
"529 376 OFFCURVE",
"501 237 CURVE SMOOTH",
"475 110 OFFCURVE",
"382 20 OFFCURVE",
"266 20 CURVE SMOOTH"
);
}
);
width = 592;
},
{
anchors = (
{
name = bottom;
position = "{251, 0}";
},
{
name = center;
position = "{301, 264}";
},
{
name = horn;
position = "{492, 483}";
},
{
name = ogonek;
position = "{319, 0}";
},
{
name = top;
position = "{352, 528}";
},
{
name = topright;
position = "{628, 528}";
}
);
layerId = "2D8F7115-C311-411E-929D-56333CF7FFB2";
paths = (
{
closed = 1;
nodes = (
"420 -8 OFFCURVE",
"543 102 OFFCURVE",
"571 241 CURVE SMOOTH",
"605 414 OFFCURVE",
"491 536 OFFCURVE",
"328 536 CURVE SMOOTH",
"177 536 OFFCURVE",
"60 426 OFFCURVE",
"32 286 CURVE SMOOTH",
"0 126 OFFCURVE",
"100 -8 OFFCURVE",
"270 -8 CURVE SMOOTH"
);
},
{
closed = 1;
nodes = (
"208 136 OFFCURVE",
"182 186 OFFCURVE",
"195 260 CURVE SMOOTH",
"208 335 OFFCURVE",
"258 390 OFFCURVE",
"324 390 CURVE SMOOTH",
"389 390 OFFCURVE",
"419 342 OFFCURVE",
"410 279 CURVE SMOOTH",
"399 204 OFFCURVE",
"356 136 OFFCURVE",
"278 136 CURVE SMOOTH"
);
}
);
width = 604;
},
{
anchors = (
{
name = bottom;
position = "{250, 0}";
},
{
name = center;
position = "{292, 258}";
},
{
name = horn;
position = "{460, 487}";
},
{
name = ogonek;
position = "{313, 0}";
},
{
name = top;
position = "{334, 518}";
},
{
name = topright;
position = "{613, 518}";
}
);
associatedMasterId = "AB099EFE-E788-4EFC-8633-CF147CB782A6";
layerId = "33B9D092-8D45-4FE5-AA63-9701A301950E";
name = "{88}";
paths = (
{
closed = 1;
nodes = (
"393 -8 OFFCURVE",
"508 89 OFFCURVE",
"539 232 CURVE SMOOTH",
"573 387 OFFCURVE",
"488 526 OFFCURVE",
"327 526 CURVE SMOOTH",
"188 526 OFFCURVE",
"75 423 OFFCURVE",
"46 285 CURVE SMOOTH",
"13 128 OFFCURVE",
"104 -8 OFFCURVE",
"262 -8 CURVE SMOOTH"
);
},
{
closed = 1;
nodes = (
"157 68 OFFCURVE",
"103 163 OFFCURVE",
"127 272 CURVE SMOOTH",
"149 373 OFFCURVE",
"229 450 OFFCURVE",
"323 450 CURVE SMOOTH",
"423 450 OFFCURVE",
"481 362 OFFCURVE",
"460 257 CURVE SMOOTH",
"439 149 OFFCURVE",
"356 68 OFFCURVE",
"261 68 CURVE SMOOTH"
);
}
);
width = 586;
}
);
leftKerningGroup = LAT_O_LC;
rightKerningGroup = LAT_O_LC;
},
{
glyphname = oe;
lastChange = "2020-07-14 11:22:51 +0000";
layers = (
{
anchors = (
{
name = bottom;
position = "{431, 0}";
},
{
name = top;
position = "{533, 512}";
}
);
background = {
components = (
{
name = o;
transform = "{0.92, 0, 0, 1, 6, 0}";
},
{
name = e;
transform = "{0.94033, 0, 0, 1, 430, 0}";
}
);
};
layerId = "AB099EFE-E788-4EFC-8633-CF147CB782A6";
paths = (
{
closed = 1;
nodes = (
"367 -8 OFFCURVE",
"458 90 OFFCURVE",
"486 230 CURVE SMOOTH",
"517 386 OFFCURVE",
"455 520 OFFCURVE",
"308 520 CURVE SMOOTH",
"184 520 OFFCURVE",
"90 424 OFFCURVE",
"62 284 CURVE SMOOTH",
"31 128 OFFCURVE",
"99 -8 OFFCURVE",
"244 -8 CURVE SMOOTH"
);
},
{
closed = 1;
nodes = (
"120 20 OFFCURVE",
"63 137 OFFCURVE",
"91 278 CURVE SMOOTH",
"116 404 OFFCURVE",
"199 492 OFFCURVE",
"307 492 CURVE SMOOTH",
"431 492 OFFCURVE",
"486 376 OFFCURVE",
"457 235 CURVE SMOOTH",
"433 116 OFFCURVE",
"357 20 OFFCURVE",
"246 20 CURVE SMOOTH"
);
},
{
closed = 1;
nodes = (
"707 -8 OFFCURVE",
"758 20 OFFCURVE",
"793 50 CURVE",
"783 78 LINE",
"743 44 OFFCURVE",
"698 20 OFFCURVE",
"641 20 CURVE SMOOTH",
"532 20 OFFCURVE",
"468 100 OFFCURVE",
"493 243 CURVE SMOOTH",
"517 377 OFFCURVE",
"608 492 OFFCURVE",
"712 492 CURVE SMOOTH",
"805 492 OFFCURVE",
"857 402 OFFCURVE",
"834 274 CURVE",
"491 274 LINE",
"485 246 LINE",
"857 246 LINE",
"861 264 OFFCURVE",
"859 251 OFFCURVE",
"861 265 CURVE SMOOTH",
"888 414 OFFCURVE",
"826 520 OFFCURVE",
"713 520 CURVE SMOOTH",
"597 520 OFFCURVE",
"487 410 OFFCURVE",
"465 241 CURVE SMOOTH",
"445 86 OFFCURVE",
"516 -8 OFFCURVE",
"639 -8 CURVE SMOOTH"
);
}
);
width = 912;
},
{
anchors = (
{
name = bottom;
position = "{399, 0}";
},
{
name = top;
position = "{491, 528}";
}
);
background = {
components = (
{
name = o;
transform = "{0.92, 0, 0, 1, -8, 0}";
},
{
name = e.archive;
transform = "{0.94033, 0, 0, 1, 356, 0}";
}
);
};
layerId = "2D8F7115-C311-411E-929D-56333CF7FFB2";
paths = (
{
closed = 1;
nodes = (
"378 -8 OFFCURVE",
"493 120 OFFCURVE",
"518 250 CURVE SMOOTH",
"544 390 OFFCURVE",
"466 536 OFFCURVE",
"317 536 CURVE SMOOTH",
"184 536 OFFCURVE",
"65 430 OFFCURVE",
"36 282 CURVE SMOOTH",
"3 114 OFFCURVE",
"98 -8 OFFCURVE",
"235 -8 CURVE SMOOTH"
);
},
{
closed = 1;
nodes = (
"203 136 OFFCURVE",
"181 186 OFFCURVE",
"192 257 CURVE SMOOTH",
"204 335 OFFCURVE",
"246 390 OFFCURVE",
"306 390 CURVE SMOOTH",
"362 390 OFFCURVE",
"386 342 OFFCURVE",
"378 275 CURVE SMOOTH",
"370 208 OFFCURVE",
"333 136 OFFCURVE",
"262 136 CURVE SMOOTH"
);
},
{
closed = 1;
nodes = (
"683 -8 OFFCURVE",
"740 3 OFFCURVE",
"784 26 CURVE",
"734 154 LINE",
"721 142 OFFCURVE",
"667 126 OFFCURVE",
"629 126 CURVE SMOOTH",
"560 126 OFFCURVE",
"510 177 OFFCURVE",
"515 249 CURVE SMOOTH",
"519 310 OFFCURVE",
"563 400 OFFCURVE",
"644 400 CURVE SMOOTH",
"680 400 OFFCURVE",
"732 382 OFFCURVE",
"723 318 CURVE",
"519 318 LINE",
"501 206 LINE",
"843 206 LINE",
"851 225 OFFCURVE",
"857 248 OFFCURVE",
"861 271 CURVE SMOOTH",
"888 427 OFFCURVE",
"792 536 OFFCURVE",
"662 536 CURVE SMOOTH",
"541 536 OFFCURVE",
"430 435 OFFCURVE",
"404 270 CURVE SMOOTH",
"378 106 OFFCURVE",
"457 -8 OFFCURVE",
"631 -8 CURVE SMOOTH"
);
}
);
width = 888;
},
{
anchors = (
{
name = bottom;
position = "{418, 0}";
},
{
name = top;
position = "{516, 518}";
}
);
associatedMasterId = "AB099EFE-E788-4EFC-8633-CF147CB782A6";
layerId = "8656F0C9-46A8-4438-A605-C62CB01B8D08";
name = "{88}";
paths = (
{
closed = 1;
nodes = (
"379 -8 OFFCURVE",
"481 99 OFFCURVE",
"509 236 CURVE SMOOTH",
"540 388 OFFCURVE",
"470 526 OFFCURVE",
"318 526 CURVE SMOOTH",
"187 526 OFFCURVE",
"82 426 OFFCURVE",
"53 283 CURVE SMOOTH",
"20 123 OFFCURVE",
"100 -8 OFFCURVE",
"246 -8 CURVE SMOOTH"
);
},
{
closed = 1;
nodes = (
"152 68 OFFCURVE",
"109 156 OFFCURVE",
"132 271 CURVE SMOOTH",
"153 378 OFFCURVE",
"220 450 OFFCURVE",
"313 450 CURVE SMOOTH",
"416 450 OFFCURVE",
"457 361 OFFCURVE",
"437 252 CURVE SMOOTH",
"419 151 OFFCURVE",
"353 68 OFFCURVE",
"254 68 CURVE SMOOTH"
);
},
{
closed = 1;
nodes = (
"710 -8 OFFCURVE",
"762 14 OFFCURVE",
"801 41 CURVE",
"776 115 LINE",
"746 89 OFFCURVE",
"697 68 OFFCURVE",
"646 68 CURVE SMOOTH",
"551 68 OFFCURVE",
"500 131 OFFCURVE",
"517 245 CURVE SMOOTH",
"533 351 OFFCURVE",
"603 450 OFFCURVE",
"695 450 CURVE SMOOTH",
"769 450 OFFCURVE",
"812 396 OFFCURVE",
"794 293 CURVE",
"517 293 LINE",
"506 229 LINE",
"862 229 LINE",
"865 238 OFFCURVE",
"869 255 OFFCURVE",
"871 267 CURVE SMOOTH",
"899 422 OFFCURVE",
"820 526 OFFCURVE",
"704 526 CURVE SMOOTH",
"587 526 OFFCURVE",
"471 419 OFFCURVE",
"448 252 CURVE SMOOTH",
"427 100 OFFCURVE",
"500 -8 OFFCURVE",
"645 -8 CURVE SMOOTH"
);
}
);
width = 916;
}
);
leftKerningGroup = LAT_O_LC;
leftMetricsKey = o;
rightKerningGroup = LAT_E_LC;
rightMetricsKey = e;
unicode = 0153;
},
{
glyphname = p;
lastChange = "2020-07-14 07:51:32 +0000";
layers = (
{
anchors = (
{
name = bottom;
position = "{10, -206}";
},
{
name = top;
position = "{333, 512}";
}
);
components = (
{
name = _part.bowl;
}
);
layerId = "AB099EFE-E788-4EFC-8633-CF147CB782A6";
paths = (
{
closed = 1;
nodes = (
"25 -206 LINE",
"89 124 LINE",
"99 124 LINE",
"92 157 LINE",
"138 389 LINE",
"153 416 LINE",
"148 416 LINE",
"168 512 LINE",
"137 512 LINE",
"-6 -206 LINE"
);
}
);
width = 568;
},
{
anchors = (
{
name = bottom;
position = "{55, -206}";
},
{
name = top;
position = "{379, 528}";
}
);
components = (
{
name = _part.bowl;
}
);
layerId = "2D8F7115-C311-411E-929D-56333CF7FFB2";
paths = (
{
closed = 1;
nodes = (
"144 -206 LINE",
"196 52 LINE",
"219 52 LINE",
"186 122 LINE",
"248 440 LINE",
"292 488 LINE",
"267 488 LINE",
"275 528 LINE",
"115 528 LINE",
"-31 -206 LINE"
);
}
);
width = 616;
},
{
anchors = (
{
name = bottom;
position = "{20, -206}";
},
{
name = top;
position = "{356, 518}";
}
);
associatedMasterId = "AB099EFE-E788-4EFC-8633-CF147CB782A6";
components = (
{
alignment = -1;
name = _part.bowl;
}
);
layerId = "F230A444-12ED-422F-80CB-22F3E84F1631";
name = "{88}";
paths = (
{
closed = 1;
nodes = (
"62 -206 LINE",
"119 82 LINE",
"134 82 LINE",
"119 137 LINE",
"174 409 LINE",
"205 449 LINE",
"190 449 LINE",
"204 518 LINE",
"121 518 LINE",
"-24 -206 LINE"
);
}
);
width = 586;
}
);
leftKerningGroup = LAT_P_LC;
rightKerningGroup = LAT_O_LC;
rightMetricsKey = o;
unicode = 0070;
},
{
color = 4;
glyphname = p.ss01;
lastChange = "2020-07-14 11:16:09 +0000";
layers = (
{
anchors = (
{
name = bottom;
position = "{4, -206}";
},
{
name = top;
position = "{328, 512}";
}
);
components = (
{
name = _part.bowl.ss01;
}
);
layerId = "AB099EFE-E788-4EFC-8633-CF147CB782A6";
paths = (
{
closed = 1;
nodes = (
"22 -206 LINE",
"87 128 LINE",
"92 128 LINE",
"88 162 LINE",
"133 374 LINE",
"151 396 LINE",
"142 396 LINE",
"165 512 LINE",
"135 512 LINE",
"-8 -206 LINE"
);
}
);
width = 600;
},
{
anchors = (
{
name = bottom;
position = "{53, -206}";
},
{
name = top;
position = "{360, 528}";
}
);
components = (
{
name = _part.bowl.ss01;
}
);
layerId = "2D8F7115-C311-411E-929D-56333CF7FFB2";
paths = (
{
closed = 1;
nodes = (
"140 -206 LINE",
"192 56 LINE",
"220 56 LINE",
"200 134 LINE",
"258 418 LINE",
"289 472 LINE",
"263 472 LINE",
"273 528 LINE",
"113 528 LINE",
"-33 -206 LINE"
);
}
);
width = 644;
},
{
anchors = (
{
name = bottom;
position = "{17, -206}";
},
{
name = top;
position = "{339, 518}";
}
);
associatedMasterId = "AB099EFE-E788-4EFC-8633-CF147CB782A6";
components = (
{
alignment = -1;
name = _part.bowl.ss01;
}
);
layerId = "9BC320AA-8534-4A16-8BDD-BB3AF805E56B";
name = "{88}";
paths = (
{
closed = 1;
nodes = (
"61 -206 LINE",
"120 91 LINE",
"126 91 LINE",
"121 128 LINE",
"175 389 LINE",
"201 441 LINE",
"187 441 LINE",
"202 518 LINE",
"121 518 LINE",
"-24 -206 LINE"
);
}
);
width = 622;
}
);
leftKerningGroup = LAT_P_LC;
rightKerningGroup = LAT_O_LC;
rightMetricsKey = o;
},
{
glyphname = thorn;
lastChange = "2020-07-14 11:16:00 +0000";
layers = (
{
anchors = (
{
name = bottom;
position = "{197, -24}";
},
{
name = top;
position = "{214, 804}";
}
);
components = (
{
name = _part.bowl;
}
);
layerId = "AB099EFE-E788-4EFC-8633-CF147CB782A6";
paths = (
{
closed = 1;
nodes = (
"23 -206 LINE",
"87 116 LINE",
"93 116 LINE",
"93 160 LINE",
"139 386 LINE",
"150 406 LINE",
"144 406 LINE",
"213 752 LINE",
"183 752 LINE",
"-7 -206 LINE"
);
}
);
width = 568;
},
{
anchors = (
{
name = bottom;
position = "{229, -24}";
},
{
name = top;
position = "{257, 804}";
}
);
components = (
{
name = _part.bowl;
}
);
layerId = "2D8F7115-C311-411E-929D-56333CF7FFB2";
paths = (
{
closed = 1;
nodes = (
"142 -206 LINE",
"193 50 LINE",
"217 50 LINE",
"178 112 LINE",
"240 430 LINE",
"293 501 LINE",
"282 501 LINE",
"332 752 LINE",
"157 752 LINE",
"-33 -206 LINE"
);
}
);
width = 616;
},
{
anchors = (
{
name = bottom;
position = "{219, -24}";
},
{
name = top;
position = "{228, 804}";
}
);
associatedMasterId = "AB099EFE-E788-4EFC-8633-CF147CB782A6";
components = (
{
alignment = -1;
name = _part.bowl;
}
);
layerId = "5FB39B66-5E4D-4723-8832-C7243A1BF633";
name = "{88}";
paths = (
{
closed = 1;
nodes = (
"62 -206 LINE",
"120 77 LINE",
"133 77 LINE",
"120 113 LINE",
"179 407 LINE",
"205 449 LINE",
"193 449 LINE",
"254 752 LINE",
"168 752 LINE",
"-24 -206 LINE"
);
}
);
width = 586;
}
);
leftKerningGroup = LAT_L_LC;
leftMetricsKey = h;
rightKerningGroup = LAT_O_LC;
rightMetricsKey = p;
unicode = 00FE;
},
{
glyphname = thorn.ss01;
lastChange = "2020-07-14 11:16:05 +0000";
layers = (
{
anchors = (
{
name = bottom;
position = "{255, 0}";
},
{
name = top;
position = "{199, 752}";
}
);
components = (
{
name = _part.bowl.ss01;
}
);
layerId = "AB099EFE-E788-4EFC-8633-CF147CB782A6";
paths = (
{
closed = 1;
nodes = (
"23 -206 LINE",
"88 122 LINE",
"92 122 LINE",
"93 160 LINE",
"137 378 LINE",
"149 400 LINE",
"143 400 LINE",
"213 752 LINE",
"183 752 LINE",
"-7 -206 LINE"
);
}
);
width = 600;
},
{
anchors = (
{
name = bottom;
position = "{317, 0}";
},
{
name = top;
position = "{239, 752}";
}
);
components = (
{
name = _part.bowl.ss01;
}
);
layerId = "2D8F7115-C311-411E-929D-56333CF7FFB2";
paths = (
{
closed = 1;
nodes = (
"142 -206 LINE",
"194 58 LINE",
"215 58 LINE",
"192 104 LINE",
"256 410 LINE",
"291 478 LINE",
"277 478 LINE",
"331 752 LINE",
"157 752 LINE",
"-33 -206 LINE"
);
}
);
width = 644;
},
{
anchors = (
{
name = bottom;
position = "{285, 0}";
},
{
name = top;
position = "{207, 752}";
}
);
associatedMasterId = "AB099EFE-E788-4EFC-8633-CF147CB782A6";
components = (
{
alignment = -1;
name = _part.bowl.ss01;
}
);
layerId = "BEE3700E-9E34-4A1E-966C-FBD2D4AD71E1";
name = "{88}";
paths = (
{
closed = 1;
nodes = (
"61 -206 LINE",
"120 88 LINE",
"130 88 LINE",
"124 139 LINE",
"178 404 LINE",
"199 444 LINE",
"190 444 LINE",
"251 752 LINE",
"166 752 LINE",
"-24 -206 LINE"
);
}
);
width = 622;
}
);
leftKerningGroup = LAT_L_LC;
leftMetricsKey = h;
rightKerningGroup = LAT_O_LC;
rightMetricsKey = p;
},
{
glyphname = q;
lastChange = "2020-07-14 07:46:35 +0000";
layers = (
{
anchors = (
{
name = bottom;
position = "{369, -206}";
},
{
name = top;
position = "{322, 512}";
}
);
background = {
paths = (
{
closed = 1;
nodes = (
"432 -184 LINE",
"409 -170 OFFCURVE",
"402 -137 OFFCURVE",
"411 -94 CURVE SMOOTH",
"533 512 LINE",
"502 512 LINE",
"479 396 LINE",
"471 396 LINE",
"476 362 LINE",
"430 134 LINE",
"413 100 LINE",
"420 100 LINE",
"382 -86 LINE SMOOTH",
"370 -144 OFFCURVE",
"378 -186 OFFCURVE",
"419 -215 CURVE"
);
}
);
};
components = (
{
name = "_part.bowl-reverse";
}
);
guideLines = (
{
angle = 67.5;
position = "{434, -184}";
}
);
layerId = "AB099EFE-E788-4EFC-8633-CF147CB782A6";
paths = (
{
closed = 1;
nodes = (
"441 -214 OFFCURVE",
"457 -208 OFFCURVE",
"465 -202 CURVE",
"468 -172 LINE",
"463 -175 OFFCURVE",
"445 -186 OFFCURVE",
"425 -186 CURVE SMOOTH",
"394 -186 OFFCURVE",
"401 -154 OFFCURVE",
"409 -116 CURVE SMOOTH",
"534 512 LINE",
"503 512 LINE",
"478 386 LINE",
"470 386 LINE",
"478 356 LINE",
"432 128 LINE",
"411 90 LINE",
"419 90 LINE",
"378 -118 LINE SMOOTH",
"368 -168 OFFCURVE",
"367 -214 OFFCURVE",
"421 -214 CURVE SMOOTH"
);
}
);
width = 560;
},
{
anchors = (
{
name = bottom;
position = "{388, -206}";
},
{
name = top;
position = "{339, 528}";
}
);
background = {
paths = (
{
closed = 1;
nodes = (
"520 -74 LINE",
"501 -64 OFFCURVE",
"496 -58 OFFCURVE",
"503 -22 CURVE SMOOTH",
"613 528 LINE",
"450 528 LINE",
"437 466 LINE",
"422 466 LINE",
"429 416 LINE",
"359 70 LINE",
"312 32 LINE",
"338 32 LINE",
"327 -22 LINE SMOOTH",
"311 -101 OFFCURVE",
"344 -166 OFFCURVE",
"460 -215 CURVE"
);
}
);
};
components = (
{
name = "_part.bowl-reverse";
}
);
layerId = "2D8F7115-C311-411E-929D-56333CF7FFB2";
paths = (
{
closed = 1;
nodes = (
"506 -214 OFFCURVE",
"537 -205 OFFCURVE",
"549 -195 CURVE",
"566 -61 LINE",
"556 -68 OFFCURVE",
"540 -75 OFFCURVE",
"524 -75 CURVE SMOOTH",
"508 -75 OFFCURVE",
"495 -65 OFFCURVE",
"499 -45 CURVE SMOOTH",
"613 528 LINE",
"453 528 LINE",
"439 462 LINE",
"421 462 LINE",
"439 416 LINE",
"369 70 LINE",
"312 32 LINE",
"351 32 LINE",
"337 -43 LINE SMOOTH",
"320 -133 OFFCURVE",
"374 -214 OFFCURVE",
"473 -214 CURVE SMOOTH"
);
}
);
width = 628;
},
{
anchors = (
{
name = bottom;
position = "{392, -206}";
},
{
name = top;
position = "{326, 518}";
}
);
associatedMasterId = "AB099EFE-E788-4EFC-8633-CF147CB782A6";
components = (
{
alignment = -1;
name = "_part.bowl-reverse";
transform = "{1, 0, 0, 1, 1, 0}";
}
);
layerId = "E17DD4DE-036D-4125-920E-3A8CD83CE814";
name = "{88}";
paths = (
{
closed = 1;
nodes = (
"465 -214 OFFCURVE",
"491 -209 OFFCURVE",
"502 -200 CURVE",
"508 -129 LINE",
"500 -133 OFFCURVE",
"487 -139 OFFCURVE",
"472 -139 CURVE SMOOTH",
"446 -139 OFFCURVE",
"445 -115 OFFCURVE",
"451 -88 CURVE SMOOTH",
"571 518 LINE",
"490 518 LINE",
"472 431 LINE",
"454 431 LINE",
"467 387 LINE",
"411 105 LINE",
"381 64 LINE",
"396 64 LINE",
"367 -82 LINE SMOOTH",
"352 -155 OFFCURVE",
"375 -214 OFFCURVE",
"443 -214 CURVE SMOOTH"
);
}
);
width = 600;
}
);
leftKerningGroup = LAT_O_LC;
leftMetricsKey = o;
rightKerningGroup = LAT_Q_LC;
unicode = 0071;
},
{
color = 4;
glyphname = q.ss01;
lastChange = "2020-07-14 11:15:54 +0000";
layers = (
{
anchors = (
{
name = bottom;
position = "{433, -206}";
},
{
name = top;
position = "{359, 512}";
}
);
components = (
{
name = "_part.bowl-reverse.ss01";
}
);
layerId = "AB099EFE-E788-4EFC-8633-CF147CB782A6";
paths = (
{
closed = 1;
nodes = (
"424 -206 LINE",
"567 512 LINE",
"537 512 LINE",
"513 390 LINE",
"503 390 LINE",
"511 372 LINE",
"465 140 LINE",
"446 117 LINE",
"458 117 LINE",
"394 -206 LINE"
);
}
);
width = 600;
},
{
anchors = (
{
name = bottom;
position = "{422, -206}";
},
{
name = top;
position = "{362, 528}";
}
);
components = (
{
name = "_part.bowl-reverse.ss01";
}
);
layerId = "2D8F7115-C311-411E-929D-56333CF7FFB2";
paths = (
{
closed = 1;
nodes = (
"491 -206 LINE",
"637 528 LINE",
"474 528 LINE",
"460 458 LINE",
"443 458 LINE",
"455 420 LINE",
"383 88 LINE",
"351 60 LINE",
"389 60 LINE",
"336 -206 LINE"
);
}
);
width = 644;
},
{
anchors = (
{
name = bottom;
position = "{430, -206}";
},
{
name = top;
position = "{362, 518}";
}
);
associatedMasterId = "AB099EFE-E788-4EFC-8633-CF147CB782A6";
components = (
{
alignment = -1;
name = "_part.bowl-reverse.ss01";
transform = "{1, 0, 0, 1, 1, 0}";
}
);
layerId = "C859A051-977E-4609-AA6E-E9E1069F5D31";
name = "{88}";
paths = (
{
closed = 1;
nodes = (
"461 -206 LINE",
"604 518 LINE",
"523 518 LINE",
"504 425 LINE",
"485 425 LINE",
"501 398 LINE",
"440 95 LINE",
"409 70 LINE",
"431 70 LINE",
"376 -206 LINE"
);
}
);
width = 622;
}
);
leftKerningGroup = LAT_O_LC;
leftMetricsKey = o;
rightKerningGroup = LAT_Q_LC;
},
{
glyphname = r;
lastChange = "2020-07-14 11:26:34 +0000";
layers = (
{
anchors = (
{
name = bottom;
position = "{49, 0}";
},
{
name = top;
position = "{233, 512}";
}
);
guideLines = (
{
angle = 67.5;
position = "{-171, -200}";
}
);
layerId = "AB099EFE-E788-4EFC-8633-CF147CB782A6";
paths = (
{
closed = 1;
nodes = (
"64 0 LINE",
"126 312 LINE SMOOTH",
"147 416 OFFCURVE",
"227 492 OFFCURVE",
"298 492 CURVE SMOOTH",
"319 492 OFFCURVE",
"344 485 OFFCURVE",
"351 477 CURVE",
"365 503 LINE",
"357 510 OFFCURVE",
"330 520 OFFCURVE",
"300 520 CURVE SMOOTH",
"234 520 OFFCURVE",
"170 470 OFFCURVE",
"134 398 CURVE",
"156 427 LINE",
"149 427 LINE",
"166 512 LINE",
"135 512 LINE",
"33 0 LINE"
);
}
);
width = 332;
},
{
anchors = (
{
name = bottom;
position = "{95, 0}";
},
{
name = top;
position = "{275, 528}";
}
);
guideLines = (
{
angle = 67.5;
position = "{-51, -200}";
}
);
layerId = "2D8F7115-C311-411E-929D-56333CF7FFB2";
paths = (
{
closed = 1;
nodes = (
"181 0 LINE",
"232 256 LINE SMOOTH",
"247 330 OFFCURVE",
"306 368 OFFCURVE",
"350 368 CURVE SMOOTH",
"367 368 OFFCURVE",
"384 364 OFFCURVE",
"394 358 CURVE",
"489 512 LINE",
"479 524 OFFCURVE",
"451 536 OFFCURVE",
"414 536 CURVE SMOOTH",
"325 536 OFFCURVE",
"263 470 OFFCURVE",
"245 426 CURVE",
"280 466 LINE",
"268 466 LINE",
"281 528 LINE",
"113 528 LINE",
"7 0 LINE"
);
}
);
width = 440;
},
{
anchors = (
{
name = bottom;
position = "{59, 0}";
},
{
name = top;
position = "{248, 518}";
}
);
associatedMasterId = "AB099EFE-E788-4EFC-8633-CF147CB782A6";
layerId = "7C8F39D3-05C2-490B-9DC5-5E1E03FFFEA0";
name = "{88}";
paths = (
{
closed = 1;
nodes = (
"102 0 LINE",
"161 292 LINE SMOOTH",
"179 381 OFFCURVE",
"259 445 OFFCURVE",
"322 445 CURVE SMOOTH",
"343 445 OFFCURVE",
"365 438 OFFCURVE",
"372 429 CURVE",
"417 505 LINE",
"406 514 OFFCURVE",
"383 526 OFFCURVE",
"347 526 CURVE SMOOTH",
"275 526 OFFCURVE",
"199 479 OFFCURVE",
"175 418 CURVE",
"200 447 LINE",
"188 447 LINE",
"203 518 LINE",
"121 518 LINE",
"16 0 LINE"
);
}
);
width = 376;
}
);
leftKerningGroup = LAT_N_LC;
leftMetricsKey = n;
rightKerningGroup = LAT_R_LC;
unicode = 0072;
},
{
glyphname = s;
lastChange = "2020-07-14 10:45:36 +0000";
layers = (
{
anchors = (
{
name = bottom;
position = "{160, 0}";
},
{
name = cedilla;
position = "{163, 0}";
},
{
name = top;
position = "{262, 512}";
}
);
background = {
paths = (
{
closed = 1;
nodes = (
"250 -8 OFFCURVE",
"336 46 OFFCURVE",
"356 132 CURVE SMOOTH",
"379 234 OFFCURVE",
"289 262 OFFCURVE",
"232 282 CURVE SMOOTH",
"197 294 OFFCURVE",
"119 322 OFFCURVE",
"132 392 CURVE SMOOTH",
"144 448 OFFCURVE",
"198 492 OFFCURVE",
"268 492 CURVE SMOOTH",
"330 492 OFFCURVE",
"361 456 OFFCURVE",
"374 420 CURVE",
"404 432 LINE",
"394 474 OFFCURVE",
"352 520 OFFCURVE",
"276 520 CURVE SMOOTH",
"192 520 OFFCURVE",
"121 470 OFFCURVE",
"104 398 CURVE SMOOTH",
"84 310 OFFCURVE",
"169 270 OFFCURVE",
"222 254 CURVE SMOOTH",
"261 242 OFFCURVE",
"345 216 OFFCURVE",
"326 134 CURVE SMOOTH",
"310 64 OFFCURVE",
"234 20 OFFCURVE",
"172 20 CURVE SMOOTH",
"112 20 OFFCURVE",
"69 66 OFFCURVE",
"62 114 CURVE",
"30 102 LINE",
"38 46 OFFCURVE",
"86 -8 OFFCURVE",
"166 -8 CURVE SMOOTH"
);
}
);
};
guideLines = (
{
angle = 22.5;
position = "{136, 327}";
}
);
layerId = "AB099EFE-E788-4EFC-8633-CF147CB782A6";
paths = (
{
closed = 1;
nodes = (
"276 -8 OFFCURVE",
"332 59 OFFCURVE",
"342 126 CURVE SMOOTH",
"352 192 OFFCURVE",
"315 246 OFFCURVE",
"243 272 CURVE SMOOTH",
"196 289 OFFCURVE",
"107 307 OFFCURVE",
"124 394 CURVE SMOOTH",
"135 449 OFFCURVE",
"183 492 OFFCURVE",
"248 492 CURVE SMOOTH",
"307 492 OFFCURVE",
"340 457 OFFCURVE",
"353 419 CURVE",
"381 431 LINE",
"370 474 OFFCURVE",
"325 520 OFFCURVE",
"247 520 CURVE SMOOTH",
"175 520 OFFCURVE",
"113 475 OFFCURVE",
"96 406 CURVE SMOOTH",
"69 298 OFFCURVE",
"180 265 OFFCURVE",
"224 249 CURVE SMOOTH",
"265 234 OFFCURVE",
"328 204 OFFCURVE",
"312 124 CURVE SMOOTH",
"298 56 OFFCURVE",
"241 20 OFFCURVE",
"186 20 CURVE SMOOTH",
"124 20 OFFCURVE",
"73 64 OFFCURVE",
"60 116 CURVE",
"30 104 LINE",
"48 44 OFFCURVE",
"103 -8 OFFCURVE",
"184 -8 CURVE SMOOTH"
);
}
);
width = 428;
},
{
anchors = (
{
name = bottom;
position = "{155, 0}";
},
{
name = cedilla;
position = "{159, 0}";
},
{
name = top;
position = "{259, 520}";
}
);
associatedMasterId = "AB099EFE-E788-4EFC-8633-CF147CB782A6";
layerId = "D82F7195-7BF3-41CA-A19D-84B0A6575291";
name = "{88}";
paths = (
{
closed = 1;
nodes = (
"269 -8 OFFCURVE",
"343 50 OFFCURVE",
"356 137 CURVE SMOOTH",
"369 226 OFFCURVE",
"305 270 OFFCURVE",
"239 293 CURVE SMOOTH",
"203 306 OFFCURVE",
"146 325 OFFCURVE",
"156 385 CURVE SMOOTH",
"163 426 OFFCURVE",
"195 454 OFFCURVE",
"241 454 CURVE SMOOTH",
"287 454 OFFCURVE",
"312 421 OFFCURVE",
"322 396 CURVE",
"396 426 LINE",
"381 475 OFFCURVE",
"329 526 OFFCURVE",
"243 526 CURVE SMOOTH",
"159 526 OFFCURVE",
"96 480 OFFCURVE",
"79 405 CURVE SMOOTH",
"59 318 OFFCURVE",
"118 264 OFFCURVE",
"187 236 CURVE SMOOTH",
"225 221 OFFCURVE",
"286 202 OFFCURVE",
"276 142 CURVE SMOOTH",
"268 96 OFFCURVE",
"230 65 OFFCURVE",
"186 65 CURVE SMOOTH",
"140 65 OFFCURVE",
"97 100 OFFCURVE",
"86 142 CURVE",
"10 109 LINE",
"25 49 OFFCURVE",
"95 -8 OFFCURVE",
"181 -8 CURVE SMOOTH"
);
}
);
width = 420;
},
{
anchors = (
{
name = bottom;
position = "{183, 0}";
},
{
name = cedilla;
position = "{191, 0}";
},
{
name = top;
position = "{288, 532}";
}
);
background = {
paths = (
{
closed = 1;
nodes = (
"302 -8 OFFCURVE",
"410 62 OFFCURVE",
"432 162 CURVE SMOOTH",
"457 270 OFFCURVE",
"359 304 OFFCURVE",
"314 316 CURVE SMOOTH",
"278 326 OFFCURVE",
"219 338 OFFCURVE",
"226 370 CURVE SMOOTH",
"231 392 OFFCURVE",
"258 404 OFFCURVE",
"280 404 CURVE SMOOTH",
"312 404 OFFCURVE",
"329 384 OFFCURVE",
"338 362 CURVE",
"482 420 LINE",
"466 494 OFFCURVE",
"394 536 OFFCURVE",
"304 536 CURVE SMOOTH",
"196 536 OFFCURVE",
"97 472 OFFCURVE",
"74 372 CURVE SMOOTH",
"55 284 OFFCURVE",
"110 238 OFFCURVE",
"184 214 CURVE SMOOTH",
"227 200 OFFCURVE",
"287 190 OFFCURVE",
"280 158 CURVE SMOOTH",
"276 140 OFFCURVE",
"252 124 OFFCURVE",
"222 124 CURVE SMOOTH",
"176 124 OFFCURVE",
"156 160 OFFCURVE",
"146 186 CURVE",
"-2 126 LINE",
"17 38 OFFCURVE",
"98 -8 OFFCURVE",
"190 -8 CURVE SMOOTH"
);
}
);
};
guideLines = (
{
angle = 22.5;
position = "{146, 280}";
}
);
layerId = "2D8F7115-C311-411E-929D-56333CF7FFB2";
paths = (
{
closed = 1;
nodes = (
"309 -8 OFFCURVE",
"402 46 OFFCURVE",
"421 144 CURVE SMOOTH",
"442 254 OFFCURVE",
"346 298 OFFCURVE",
"294 314 CURVE SMOOTH",
"252 327 OFFCURVE",
"205 338 OFFCURVE",
"211 370 CURVE SMOOTH",
"215 389 OFFCURVE",
"234 404 OFFCURVE",
"262 404 CURVE SMOOTH",
"292 404 OFFCURVE",
"313 386 OFFCURVE",
"328 363 CURVE",
"464 419 LINE",
"439 486 OFFCURVE",
"368 536 OFFCURVE",
"270 536 CURVE SMOOTH",
"164 536 OFFCURVE",
"89 481 OFFCURVE",
"69 399 CURVE SMOOTH",
"49 320 OFFCURVE",
"97 248 OFFCURVE",
"185 216 CURVE SMOOTH",
"229 200 OFFCURVE",
"277 193 OFFCURVE",
"274 161 CURVE SMOOTH",
"272 140 OFFCURVE",
"249 124 OFFCURVE",
"221 124 CURVE SMOOTH",
"177 124 OFFCURVE",
"155 159 OFFCURVE",
"141 182 CURVE",
"0 125 LINE",
"26 48 OFFCURVE",
"101 -8 OFFCURVE",
"205 -8 CURVE SMOOTH"
);
}
);
width = 473;
},
{
anchors = (
{
name = bottom;
position = "{163, 0}";
},
{
name = cedilla;
position = "{170, 0}";
},
{
name = top;
position = "{268, 526}";
}
);
associatedMasterId = "AB099EFE-E788-4EFC-8633-CF147CB782A6";
guideLines = (
{
angle = 22.5;
position = "{130, 160}";
}
);
layerId = "164736BD-8162-410A-99BE-7EAAFFE43B2D";
name = "{140}";
paths = (
{
closed = 1;
nodes = (
"293 -8 OFFCURVE",
"357 44 OFFCURVE",
"377 127 CURVE SMOOTH",
"405 243 OFFCURVE",
"314 285 OFFCURVE",
"260 306 CURVE SMOOTH",
"231 317 OFFCURVE",
"176 332 OFFCURVE",
"184 374 CURVE SMOOTH",
"188 401 OFFCURVE",
"210 423 OFFCURVE",
"245 423 CURVE SMOOTH",
"282 423 OFFCURVE",
"305 399 OFFCURVE",
"317 377 CURVE",
"423 422 LINE",
"405 480 OFFCURVE",
"345 531 OFFCURVE",
"253 531 CURVE SMOOTH",
"161 531 OFFCURVE",
"96 485 OFFCURVE",
"76 407 CURVE SMOOTH",
"55 324 OFFCURVE",
"99 258 OFFCURVE",
"178 225 CURVE SMOOTH",
"212 211 OFFCURVE",
"268 197 OFFCURVE",
"266 154 CURVE SMOOTH",
"265 126 OFFCURVE",
"237 101 OFFCURVE",
"199 101 CURVE SMOOTH",
"157 101 OFFCURVE",
"122 131 OFFCURVE",
"112 164 CURVE",
"3 117 LINE",
"20 49 OFFCURVE",
"101 -8 OFFCURVE",
"199 -8 CURVE SMOOTH"
);
}
);
width = 436;
}
);
leftKerningGroup = LAT_S_LC;
rightKerningGroup = LAT_S_LC;
unicode = 0073;
userData = {
com.typemytype.robofont.layerData = {
background = {
anchors = (
);
components = (
);
contours = (
{
points = (
{
segmentType = curve;
smooth = 1;
x = 213;
y = -12;
},
{
smooth = 0;
x = 318;
y = -12;
},
{
smooth = 0;
x = 376;
y = 50;
},
{
segmentType = curve;
smooth = 1;
x = 376;
y = 120;
},
{
smooth = 0;
x = 376;
y = 214;
},
{
smooth = 0;
x = 288;
y = 237;
},
{
segmentType = curve;
smooth = 1;
x = 208;
y = 266;
},
{
smooth = 0;
x = 147;
y = 288;
},
{
smooth = 0;
x = 85;
y = 310;
},
{
segmentType = curve;
smooth = 1;
x = 85;
y = 368;
},
{
smooth = 0;
x = 85;
y = 415;
},
{
smooth = 0;
x = 124;
y = 462;
},
{
segmentType = curve;
smooth = 1;
x = 208;
y = 462;
},
{
smooth = 0;
x = 253;
y = 462;
},
{
smooth = 0;
x = 284;
y = 448;
},
{
segmentType = curve;
smooth = 1;
x = 314;
y = 429;
},
{
smooth = 0;
x = 325;
y = 422;
},
{
smooth = 0;
x = 336;
y = 423;
},
{
segmentType = curve;
smooth = 1;
x = 343;
y = 434;
},
{
segmentType = line;
smooth = 1;
x = 346;
y = 439;
},
{
smooth = 0;
x = 347;
y = 441;
},
{
smooth = 0;
x = 347;
y = 443;
},
{
segmentType = curve;
smooth = 1;
x = 345;
y = 444;
},
{
smooth = 0;
x = 311;
y = 468;
},
{
smooth = 0;
x = 257;
y = 490;
},
{
segmentType = curve;
smooth = 1;
x = 211;
y = 490;
},
{
smooth = 0;
x = 108;
y = 490;
},
{
smooth = 0;
x = 54;
y = 432;
},
{
segmentType = curve;
smooth = 1;
x = 54;
y = 366;
},
{
smooth = 0;
x = 54;
y = 284;
},
{
smooth = 0;
x = 141;
y = 256;
},
{
segmentType = curve;
smooth = 1;
x = 218;
y = 230;
},
{
smooth = 0;
x = 277;
y = 210;
},
{
smooth = 0;
x = 344;
y = 182;
},
{
segmentType = curve;
smooth = 1;
x = 344;
y = 118;
},
{
smooth = 0;
x = 344;
y = 64;
},
{
smooth = 0;
x = 300;
y = 16;
},
{
segmentType = curve;
smooth = 1;
x = 215;
y = 16;
},
{
smooth = 0;
x = 148;
y = 16;
},
{
smooth = 0;
x = 105;
y = 37;
},
{
segmentType = curve;
smooth = 1;
x = 66;
y = 65;
},
{
smooth = 0;
x = 55;
y = 73;
},
{
smooth = 0;
x = 45;
y = 74;
},
{
segmentType = curve;
smooth = 1;
x = 37;
y = 63;
},
{
segmentType = line;
smooth = 1;
x = 33;
y = 57;
},
{
smooth = 0;
x = 32;
y = 55;
},
{
smooth = 0;
x = 32;
y = 53;
},
{
segmentType = curve;
smooth = 1;
x = 34;
y = 51;
},
{
smooth = 0;
x = 73;
y = 12;
},
{
smooth = 0;
x = 139;
y = -12;
}
);
}
);
lib = {
};
name = s;
unicodes = (
);
width = 439;
};
};
};
},
{
glyphname = germandbls;
lastChange = "2020-07-14 11:18:20 +0000";
layers = (
{
layerId = "AB099EFE-E788-4EFC-8633-CF147CB782A6";
paths = (
{
closed = 1;
nodes = (
"-15 -156 OFFCURVE",
"39 -90 OFFCURVE",
"57 0 CURVE SMOOTH",
"169 568 LINE SMOOTH",
"189 667 OFFCURVE",
"249 732 OFFCURVE",
"333 732 CURVE SMOOTH",
"416 732 OFFCURVE",
"452 677 OFFCURVE",
"437 600 CURVE SMOOTH",
"413 477 OFFCURVE",
"296 482 OFFCURVE",
"277 405 CURVE SMOOTH",
"254 312 OFFCURVE",
"431 311 OFFCURVE",
"397 166 CURVE SMOOTH",
"377 80 OFFCURVE",
"300 21 OFFCURVE",
"211 21 CURVE SMOOTH",
"179 21 OFFCURVE",
"149 26 OFFCURVE",
"124 34 CURVE",
"118 4 LINE",
"140 -4 OFFCURVE",
"169 -8 OFFCURVE",
"205 -8 CURVE SMOOTH",
"313 -8 OFFCURVE",
"404 54 OFFCURVE",
"427 159 CURVE SMOOTH",
"461 316 OFFCURVE",
"289 331 OFFCURVE",
"306 399 CURVE SMOOTH",
"320 456 OFFCURVE",
"442 460 OFFCURVE",
"466 596 CURVE SMOOTH",
"483 693 OFFCURVE",
"433 760 OFFCURVE",
"334 760 CURVE SMOOTH",
"235 760 OFFCURVE",
"161 682 OFFCURVE",
"138 566 CURVE SMOOTH",
"26 0 LINE SMOOTH",
"11 -74 OFFCURVE",
"-31 -128 OFFCURVE",
"-75 -128 CURVE SMOOTH",
"-81 -128 OFFCURVE",
"-92 -127 OFFCURVE",
"-98 -125 CURVE",
"-100 -154 LINE",
"-98 -155 OFFCURVE",
"-85 -156 OFFCURVE",
"-77 -156 CURVE SMOOTH"
);
}
);
width = 506;
},
{
layerId = "2D8F7115-C311-411E-929D-56333CF7FFB2";
paths = (
{
closed = 1;
nodes = (
"82 -214 OFFCURVE",
"153 -134 OFFCURVE",
"179 -3 CURVE SMOOTH",
"278 500 LINE SMOOTH",
"290 562 OFFCURVE",
"324 616 OFFCURVE",
"386 616 CURVE SMOOTH",
"434 616 OFFCURVE",
"458 583 OFFCURVE",
"448 539 CURVE SMOOTH",
"434 480 OFFCURVE",
"362 467 OFFCURVE",
"349 398 CURVE SMOOTH",
"332 309 OFFCURVE",
"445 314 OFFCURVE",
"427 211 CURVE SMOOTH",
"419 164 OFFCURVE",
"385 136 OFFCURVE",
"325 136 CURVE SMOOTH",
"309 136 OFFCURVE",
"282 138 OFFCURVE",
"270 142 CURVE",
"241 -2 LINE",
"277 -6 OFFCURVE",
"330 -8 OFFCURVE",
"353 -8 CURVE SMOOTH",
"487 -8 OFFCURVE",
"573 62 OFFCURVE",
"590 156 CURVE SMOOTH",
"618 308 OFFCURVE",
"483 338 OFFCURVE",
"493 390 CURVE SMOOTH",
"499 421 OFFCURVE",
"579 446 OFFCURVE",
"598 549 CURVE SMOOTH",
"619 663 OFFCURVE",
"545 760 OFFCURVE",
"385 760 CURVE SMOOTH",
"242 760 OFFCURVE",
"140 676 OFFCURVE",
"110 524 CURVE SMOOTH",
"9 14 LINE SMOOTH",
"0 -32 OFFCURVE",
"-22 -63 OFFCURVE",
"-62 -63 CURVE SMOOTH",
"-69 -63 OFFCURVE",
"-76 -62 OFFCURVE",
"-86 -59 CURVE",
"-106 -206 LINE",
"-82 -213 OFFCURVE",
"-59 -214 OFFCURVE",
"-44 -214 CURVE SMOOTH"
);
}
);
width = 640;
},
{
associatedMasterId = "AB099EFE-E788-4EFC-8633-CF147CB782A6";
layerId = "49FB6F49-68E9-46E1-8217-FED3919300E2";
name = "{140}";
paths = (
{
closed = 1;
nodes = (
"37 -213 OFFCURVE",
"115 -152 OFFCURVE",
"138 -36 CURVE SMOOTH",
"247 510 LINE SMOOTH",
"263 588 OFFCURVE",
"304 644 OFFCURVE",
"376 644 CURVE SMOOTH",
"437 644 OFFCURVE",
"459 607 OFFCURVE",
"451 567 CURVE SMOOTH",
"437 496 OFFCURVE",
"342 474 OFFCURVE",
"328 397 CURVE SMOOTH",
"310 302 OFFCURVE",
"445 291 OFFCURVE",
"422 177 CURVE SMOOTH",
"414 138 OFFCURVE",
"373 108 OFFCURVE",
"306 108 CURVE SMOOTH",
"276 108 OFFCURVE",
"244 116 OFFCURVE",
"229 122 CURVE",
"206 4 LINE",
"241 -4 OFFCURVE",
"297 -8 OFFCURVE",
"330 -8 CURVE SMOOTH",
"456 -8 OFFCURVE",
"532 55 OFFCURVE",
"552 155 CURVE SMOOTH",
"581 298 OFFCURVE",
"444 339 OFFCURVE",
"453 387 CURVE SMOOTH",
"460 424 OFFCURVE",
"553 454 OFFCURVE",
"574 563 CURVE SMOOTH",
"596 678 OFFCURVE",
"512 760 OFFCURVE",
"377 760 CURVE SMOOTH",
"239 760 OFFCURVE",
"145 675 OFFCURVE",
"116 530 CURVE SMOOTH",
"6 -20 LINE SMOOTH",
"0 -49 OFFCURVE",
"-15 -93 OFFCURVE",
"-80 -93 CURVE SMOOTH",
"-83 -93 OFFCURVE",
"-89 -92 OFFCURVE",
"-95 -91 CURVE",
"-109 -208 LINE",
"-91 -212 OFFCURVE",
"-74 -213 OFFCURVE",
"-61 -213 CURVE SMOOTH"
);
}
);
width = 611;
},
{
associatedMasterId = "AB099EFE-E788-4EFC-8633-CF147CB782A6";
layerId = "085A5731-601D-4B90-BB77-407FA0AB9C92";
name = "{88}";
paths = (
{
closed = 1;
nodes = (
"-4 -199 OFFCURVE",
"70 -149 OFFCURVE",
"90 -48 CURVE SMOOTH",
"207 530 LINE SMOOTH",
"226 624 OFFCURVE",
"278 684 OFFCURVE",
"357 684 CURVE SMOOTH",
"432 684 OFFCURVE",
"457 632 OFFCURVE",
"449 584 CURVE SMOOTH",
"433 492 OFFCURVE",
"326 477 OFFCURVE",
"310 394 CURVE SMOOTH",
"291 295 OFFCURVE",
"439 294 OFFCURVE",
"413 167 CURVE SMOOTH",
"400 108 OFFCURVE",
"343 69 OFFCURVE",
"271 69 CURVE SMOOTH",
"231 69 OFFCURVE",
"200 77 OFFCURVE",
"180 88 CURVE",
"165 11 LINE",
"196 0 OFFCURVE",
"232 -8 OFFCURVE",
"274 -8 CURVE SMOOTH",
"389 -8 OFFCURVE",
"478 56 OFFCURVE",
"497 155 CURVE SMOOTH",
"525 311 OFFCURVE",
"381 333 OFFCURVE",
"392 389 CURVE SMOOTH",
"402 435 OFFCURVE",
"508 455 OFFCURVE",
"533 580 CURVE SMOOTH",
"550 666 OFFCURVE",
"494 760 OFFCURVE",
"359 760 CURVE SMOOTH",
"234 760 OFFCURVE",
"151 676 OFFCURVE",
"124 543 CURVE SMOOTH",
"7 -36 LINE SMOOTH",
"1 -66 OFFCURVE",
"-17 -121 OFFCURVE",
"-89 -121 CURVE SMOOTH",
"-92 -121 OFFCURVE",
"-94 -121 OFFCURVE",
"-103 -120 CURVE",
"-110 -196 LINE",
"-100 -198 OFFCURVE",
"-88 -199 OFFCURVE",
"-77 -199 CURVE SMOOTH"
);
}
);
width = 570;
}
);
leftKerningGroup = LAT_J_LC;
leftMetricsKey = j;
rightKerningGroup = LAT_GERMANDBLS_LC;
rightMetricsKey = B;
unicode = 00DF;
},
{
glyphname = germandbls.ss01;
lastChange = "2020-07-14 11:15:47 +0000";
layers = (
{
background = {
components = (
{
name = B;
transform = "{1, 0, 0, 1, -4, 0}";
}
);
};
layerId = "AB099EFE-E788-4EFC-8633-CF147CB782A6";
paths = (
{
closed = 1;
nodes = (
"364 -8 OFFCURVE",
"450 66 OFFCURVE",
"472 174 CURVE SMOOTH",
"499 305 OFFCURVE",
"426 409 OFFCURVE",
"292 409 CURVE",
"290 395 LINE",
"382 387 OFFCURVE",
"479 470 OFFCURVE",
"498 576 CURVE SMOOTH",
"516 676 OFFCURVE",
"458 760 OFFCURVE",
"346 760 CURVE SMOOTH",
"244 760 OFFCURVE",
"169 684 OFFCURVE",
"148 576 CURVE SMOOTH",
"34 0 LINE",
"64 0 LINE",
"179 578 LINE SMOOTH",
"196 664 OFFCURVE",
"261 732 OFFCURVE",
"349 732 CURVE SMOOTH",
"439 732 OFFCURVE",
"484 662 OFFCURVE",
"468 580 CURVE SMOOTH",
"451 492 OFFCURVE",
"373 419 OFFCURVE",
"287 419 CURVE SMOOTH",
"254 419 LINE",
"249 389 LINE",
"264 389 LINE SMOOTH",
"402 389 OFFCURVE",
"468 304 OFFCURVE",
"443 182 CURVE SMOOTH",
"422 78 OFFCURVE",
"341 20 OFFCURVE",
"240 20 CURVE SMOOTH",
"208 20 OFFCURVE",
"172 26 OFFCURVE",
"152 33 CURVE",
"146 4 LINE",
"168 -4 OFFCURVE",
"211 -8 OFFCURVE",
"240 -8 CURVE SMOOTH"
);
}
);
width = 548;
},
{
layerId = "2D8F7115-C311-411E-929D-56333CF7FFB2";
paths = (
{
closed = 1;
nodes = (
"474 -8 OFFCURVE",
"574 60 OFFCURVE",
"600 176 CURVE SMOOTH",
"629 304 OFFCURVE",
"548 392 OFFCURVE",
"408 392 CURVE",
"411 364 LINE",
"481 364 OFFCURVE",
"586 417 OFFCURVE",
"611 536 CURVE SMOOTH",
"637 659 OFFCURVE",
"559 760 OFFCURVE",
"397 760 CURVE SMOOTH",
"246 760 OFFCURVE",
"141 672 OFFCURVE",
"112 524 CURVE SMOOTH",
"8 0 LINE",
"181 0 LINE",
"281 500 LINE SMOOTH",
"296 573 OFFCURVE",
"337 616 OFFCURVE",
"393 616 CURVE SMOOTH",
"439 616 OFFCURVE",
"467 589 OFFCURVE",
"463 549 CURVE SMOOTH",
"458 501 OFFCURVE",
"405 452 OFFCURVE",
"357 452 CURVE SMOOTH",
"334 452 LINE",
"301 298 LINE",
"355 298 LINE SMOOTH",
"380 298 OFFCURVE",
"449 289 OFFCURVE",
"438 218 CURVE SMOOTH",
"430 165 OFFCURVE",
"386 136 OFFCURVE",
"334 136 CURVE SMOOTH",
"315 136 OFFCURVE",
"291 139 OFFCURVE",
"273 144 CURVE",
"244 0 LINE",
"270 -5 OFFCURVE",
"303 -8 OFFCURVE",
"333 -8 CURVE SMOOTH"
);
}
);
width = 646;
},
{
associatedMasterId = "AB099EFE-E788-4EFC-8633-CF147CB782A6";
layerId = "B00A62C8-7A8B-428F-AB43-46158FF6EBEC";
name = "{88}";
paths = (
{
closed = 1;
nodes = (
"408 -8 OFFCURVE",
"503 66 OFFCURVE",
"524 182 CURVE SMOOTH",
"549 314 OFFCURVE",
"465 401 OFFCURVE",
"345 399 CURVE",
"340 370 LINE",
"449 363 OFFCURVE",
"533 459 OFFCURVE",
"549 560 CURVE SMOOTH",
"567 673 OFFCURVE",
"493 760 OFFCURVE",
"362 760 CURVE SMOOTH",
"234 760 OFFCURVE",
"152 676 OFFCURVE",
"126 546 CURVE SMOOTH",
"16 0 LINE",
"100 0 LINE",
"208 533 LINE SMOOTH",
"227 623 OFFCURVE",
"281 684 OFFCURVE",
"362 684 CURVE SMOOTH",
"437 684 OFFCURVE",
"475 630 OFFCURVE",
"465 564 CURVE SMOOTH",
"455 495 OFFCURVE",
"397 427 OFFCURVE",
"313 427 CURVE SMOOTH",
"283 427 LINE",
"268 352 LINE",
"286 352 LINE SMOOTH",
"406 352 OFFCURVE",
"460 286 OFFCURVE",
"440 193 CURVE SMOOTH",
"425 122 OFFCURVE",
"372 68 OFFCURVE",
"290 68 CURVE SMOOTH",
"258 68 OFFCURVE",
"216 77 OFFCURVE",
"191 87 CURVE",
"176 11 LINE",
"207 0 OFFCURVE",
"255 -8 OFFCURVE",
"287 -8 CURVE SMOOTH"
);
}
);
width = 591;
}
);
leftKerningGroup = LAT_L_LC;
leftMetricsKey = h;
rightKerningGroup = LAT_GERMANDBLS_LC;
rightMetricsKey = B;
},
{
glyphname = t;
lastChange = "2020-07-14 11:25:51 +0000";
layers = (
{
anchors = (
{
name = bottom;
position = "{163, 0}";
},
{
name = cedilla;
position = "{173, 0}";
},
{
name = center;
position = "{139, 256}";
},
{
name = top;
position = "{225, 690}";
},
{
name = topright;
position = "{271, 772}";
}
);
guideLines = (
{
angle = 112.5;
position = "{249, 10}";
}
);
layerId = "AB099EFE-E788-4EFC-8633-CF147CB782A6";
paths = (
{
closed = 1;
nodes = (
"211 -6 OFFCURVE",
"226 -1 OFFCURVE",
"240 9 CURVE",
"229 36 LINE",
"218 27 OFFCURVE",
"204 22 OFFCURVE",
"187 22 CURVE SMOOTH",
"132 22 OFFCURVE",
"115 66 OFFCURVE",
"128 132 CURVE SMOOTH",
"239 690 LINE",
"209 690 LINE",
"99 142 LINE SMOOTH",
"81 52 OFFCURVE",
"107 -6 OFFCURVE",
"187 -6 CURVE SMOOTH"
);
},
{
closed = 1;
nodes = (
"326 484 LINE",
"331 512 LINE",
"99 512 LINE",
"94 484 LINE"
);
}
);
width = 337;
},
{
anchors = (
{
name = bottom;
position = "{209, 0}";
},
{
name = cedilla;
position = "{220, 0}";
},
{
name = center;
position = "{192, 264}";
},
{
name = top;
position = "{272, 674}";
},
{
name = topright;
position = "{387, 846}";
}
);
guideLines = (
{
angle = 112.5;
position = "{387, 46}";
}
);
layerId = "2D8F7115-C311-411E-929D-56333CF7FFB2";
paths = (
{
closed = 1;
nodes = (
"305 -8 OFFCURVE",
"360 6 OFFCURVE",
"385 21 CURVE",
"329 157 LINE",
"324 153 OFFCURVE",
"307 144 OFFCURVE",
"289 144 CURVE SMOOTH",
"257 144 OFFCURVE",
"259 173 OFFCURVE",
"263 193 CURVE SMOOTH",
"357 674 LINE",
"184 674 LINE",
"86 179 LINE SMOOTH",
"68 86 OFFCURVE",
"109 -8 OFFCURVE",
"252 -8 CURVE SMOOTH"
);
},
{
closed = 1;
nodes = (
"406 380 LINE",
"437 528 LINE",
"73 528 LINE",
"43 380 LINE"
);
}
);
width = 445;
},
{
anchors = (
{
name = bottom;
position = "{205, 0}";
},
{
name = cedilla;
position = "{217, 0}";
},
{
name = center;
position = "{183, 263}";
},
{
name = top;
position = "{263, 679}";
},
{
name = topright;
position = "{369, 822}";
}
);
associatedMasterId = "AB099EFE-E788-4EFC-8633-CF147CB782A6";
guideLines = (
{
angle = 112.5;
position = "{346, 14}";
}
);
layerId = "EABF1B0F-8E52-47E5-9328-BC578E3E2863";
name = "{140}";
paths = (
{
closed = 1;
nodes = (
"282 -8 OFFCURVE",
"326 5 OFFCURVE",
"352 17 CURVE",
"307 126 LINE",
"299 120 OFFCURVE",
"280 111 OFFCURVE",
"262 111 CURVE SMOOTH",
"235 111 OFFCURVE",
"222 132 OFFCURVE",
"231 175 CURVE SMOOTH",
"330 679 LINE",
"196 679 LINE",
"93 160 LINE SMOOTH",
"75 69 OFFCURVE",
"120 -8 OFFCURVE",
"243 -8 CURVE SMOOTH"
);
},
{
closed = 1;
nodes = (
"401 416 LINE",
"424 524 LINE",
"82 524 LINE",
"59 416 LINE"
);
}
);
width = 419;
},
{
anchors = (
{
name = bottom;
position = "{193, 0}";
},
{
name = cedilla;
position = "{204, 0}";
},
{
name = center;
position = "{166, 261}";
},
{
name = top;
position = "{249, 684}";
},
{
name = topright;
position = "{335, 796}";
}
);
associatedMasterId = "AB099EFE-E788-4EFC-8633-CF147CB782A6";
layerId = "0B955A1D-462F-46DC-A5B1-74F94A4F0AEF";
name = "{88}";
paths = (
{
closed = 1;
nodes = (
"253 -8 OFFCURVE",
"282 0 OFFCURVE",
"306 13 CURVE",
"276 85 LINE",
"265 78 OFFCURVE",
"246 70 OFFCURVE",
"229 70 CURVE SMOOTH",
"193 70 OFFCURVE",
"176 98 OFFCURVE",
"186 149 CURVE SMOOTH",
"292 684 LINE",
"206 684 LINE",
"98 145 LINE SMOOTH",
"80 55 OFFCURVE",
"125 -8 OFFCURVE",
"220 -8 CURVE SMOOTH"
);
},
{
closed = 1;
nodes = (
"368 445 LINE",
"383 518 LINE",
"91 518 LINE",
"76 445 LINE"
);
}
);
width = 385;
}
);
leftKerningGroup = LAT_T_LC;
rightKerningGroup = LAT_T_LC;
unicode = 0074;
},
{
color = 4;
glyphname = t.ss01;
lastChange = "2020-06-14 07:13:58 +0000";
layers = (
{
anchors = (
{
name = bottom;
position = "{111, 0}";
},
{
name = cedilla;
position = "{106, 0}";
},
{
name = center;
position = "{162, 256}";
},
{
name = top;
position = "{248, 690}";
},
{
name = topright;
position = "{294, 752}";
}
);
layerId = "AB099EFE-E788-4EFC-8633-CF147CB782A6";
paths = (
{
closed = 1;
nodes = (
"127 -2 LINE",
"264 690 LINE",
"234 690 LINE",
"97 -2 LINE"
);
},
{
closed = 1;
nodes = (
"334 484 LINE",
"339 512 LINE",
"87 512 LINE",
"82 484 LINE"
);
}
);
width = 325;
},
{
anchors = (
{
name = bottom;
position = "{158, 0}";
},
{
name = cedilla;
position = "{198, 0}";
},
{
name = center;
position = "{211, 264}";
},
{
name = top;
position = "{294, 674}";
},
{
name = topright;
position = "{399, 844}";
}
);
guideLines = (
{
angle = 100;
position = "{317, -8}";
}
);
layerId = "2D8F7115-C311-411E-929D-56333CF7FFB2";
paths = (
{
closed = 1;
nodes = (
"246 0 LINE",
"380 674 LINE",
"208 674 LINE",
"72 0 LINE"
);
},
{
closed = 1;
nodes = (
"419 380 LINE",
"452 528 LINE",
"76 528 LINE",
"43 380 LINE"
);
}
);
width = 419;
}
);
leftKerningGroup = LAT_T_LC;
rightKerningGroup = LAT_TSS04_LC;
},
{
glyphname = u;
lastChange = "2020-07-14 11:14:24 +0000";
layers = (
{
anchors = (
{
name = bottom;
position = "{232, 0}";
},
{
name = horn;
position = "{473, 512}";
},
{
name = ogonek;
position = "{417, -8}";
},
{
name = top;
position = "{315, 512}";
}
);
guideLines = (
{
angle = 67.5;
position = "{417, -8}";
}
);
layerId = "AB099EFE-E788-4EFC-8633-CF147CB782A6";
paths = (
{
closed = 1;
nodes = (
"290 -8 OFFCURVE",
"356 48 OFFCURVE",
"391 114 CURVE",
"366 89 LINE",
"389 89 LINE",
"381 109 LINE",
"368 48 OFFCURVE",
"380 13 OFFCURVE",
"417 -8 CURVE",
"429 20 LINE",
"400 34 OFFCURVE",
"401 66 OFFCURVE",
"410 112 CURVE SMOOTH",
"489 512 LINE",
"458 512 LINE",
"395 190 LINE SMOOTH",
"377 100 OFFCURVE",
"297 20 OFFCURVE",
"205 20 CURVE SMOOTH",
"124 20 OFFCURVE",
"77 82 OFFCURVE",
"99 192 CURVE SMOOTH",
"162 512 LINE",
"131 512 LINE",
"68 190 LINE SMOOTH",
"44 68 OFFCURVE",
"103 -8 OFFCURVE",
"204 -8 CURVE SMOOTH"
);
}
);
width = 524;
},
{
anchors = (
{
name = bottom;
position = "{278, 0}";
},
{
name = horn;
position = "{509, 528}";
},
{
name = ogonek;
position = "{484, -8}";
},
{
name = top;
position = "{364, 528}";
}
);
guideLines = (
{
angle = 67.5;
position = "{385, -6}";
}
);
layerId = "2D8F7115-C311-411E-929D-56333CF7FFB2";
paths = (
{
closed = 1;
nodes = (
"293 -8 OFFCURVE",
"356 32 OFFCURVE",
"395 100 CURVE",
"322 56 LINE",
"396 56 LINE",
"360 106 LINE",
"350 48 OFFCURVE",
"395 9 OFFCURVE",
"484 -8 CURVE",
"543 133 LINE",
"525 137 OFFCURVE",
"509 149 OFFCURVE",
"516 185 CURVE SMOOTH",
"585 528 LINE",
"410 528 LINE",
"349 228 LINE SMOOTH",
"338 175 OFFCURVE",
"316 138 OFFCURVE",
"273 138 CURVE SMOOTH",
"240 138 OFFCURVE",
"215 162 OFFCURVE",
"225 212 CURVE SMOOTH",
"288 528 LINE",
"113 528 LINE",
"48 202 LINE SMOOTH",
"21 68 OFFCURVE",
"112 -8 OFFCURVE",
"218 -8 CURVE SMOOTH"
);
}
);
width = 597;
},
{
anchors = (
{
name = bottom;
position = "{220, 0}";
},
{
name = horn;
position = "{483, 518}";
},
{
name = ogonek;
position = "{436, -8}";
},
{
name = top;
position = "{319, 518}";
}
);
associatedMasterId = "AB099EFE-E788-4EFC-8633-CF147CB782A6";
layerId = "E66C685F-1FFC-4C22-AE12-9EA8D2096769";
name = "{88}";
paths = (
{
closed = 1;
nodes = (
"300 -8 OFFCURVE",
"353 40 OFFCURVE",
"389 96 CURVE",
"340 64 LINE",
"402 64 LINE",
"368 89 LINE",
"360 51 OFFCURVE",
"381 9 OFFCURVE",
"436 -8 CURVE",
"467 68 LINE",
"438 80 OFFCURVE",
"440 102 OFFCURVE",
"448 144 CURVE SMOOTH",
"523 518 LINE",
"437 518 LINE",
"374 204 LINE SMOOTH",
"360 132 OFFCURVE",
"306 68 OFFCURVE",
"229 68 CURVE SMOOTH",
"167 68 OFFCURVE",
"121 112 OFFCURVE",
"140 203 CURVE SMOOTH",
"203 518 LINE",
"116 518 LINE",
"53 201 LINE SMOOTH",
"27 70 OFFCURVE",
"99 -8 OFFCURVE",
"211 -8 CURVE SMOOTH"
);
}
);
width = 553;
}
);
leftKerningGroup = LAT_U_LC;
rightKerningGroup = LAT_A_LC;
unicode = 0075;
},
{
glyphname = v;
lastChange = "2020-07-14 04:30:13 +0000";
layers = (
{
anchors = (
{
name = bottom;
position = "{189, 0}";
},
{
name = top;
position = "{287, 512}";
}
);
layerId = "AB099EFE-E788-4EFC-8633-CF147CB782A6";
paths = (
{
closed = 1;
nodes = (
"207 0 LINE",
"487 512 LINE",
"453 512 LINE",
"198 40 LINE",
"194 40 LINE",
"113 512 LINE",
"83 512 LINE",
"173 0 LINE"
);
}
);
width = 472;
},
{
anchors = (
{
name = bottom;
position = "{227, 0}";
},
{
name = top;
position = "{333, 528}";
}
);
layerId = "2D8F7115-C311-411E-929D-56333CF7FFB2";
paths = (
{
closed = 1;
nodes = (
"317 0 LINE",
"601 528 LINE",
"411 528 LINE",
"263 180 LINE",
"259 180 LINE",
"245 528 LINE",
"69 528 LINE",
"153 0 LINE"
);
}
);
width = 564;
},
{
anchors = (
{
name = bottom;
position = "{215, 0}";
},
{
name = top;
position = "{314, 518}";
}
);
associatedMasterId = "AB099EFE-E788-4EFC-8633-CF147CB782A6";
layerId = "B7F4E3A5-FCA9-4492-9D65-3554FDC5C6A0";
name = "{88}";
paths = (
{
closed = 1;
nodes = (
"254 0 LINE",
"548 518 LINE",
"451 518 LINE",
"232 107 LINE",
"228 107 LINE",
"164 518 LINE",
"78 518 LINE",
"175 0 LINE"
);
}
);
width = 523;
}
);
leftKerningGroup = LAT_V_LC;
rightKerningGroup = LAT_V_LC;
unicode = 0076;
},
{
glyphname = w;
lastChange = "2020-07-14 04:30:13 +0000";
layers = (
{
anchors = (
{
name = bottom;
position = "{315, 0}";
},
{
name = top;
position = "{417, 512}";
}
);
layerId = "AB099EFE-E788-4EFC-8633-CF147CB782A6";
paths = (
{
closed = 1;
nodes = (
"187 0 LINE",
"389 417 LINE",
"393 417 LINE",
"465 0 LINE",
"499 0 LINE",
"745 512 LINE",
"711 512 LINE",
"487 36 LINE",
"485 36 LINE",
"411 482 LINE",
"391 482 LINE",
"177 38 LINE",
"175 38 LINE",
"121 512 LINE",
"89 512 LINE",
"153 0 LINE"
);
}
);
userData = {
RMXScaler = {
adjustSpace = 8;
height = 72;
weight = 8;
width = 80;
};
};
width = 732;
},
{
anchors = (
{
name = bottom;
position = "{357, 0}";
},
{
name = top;
position = "{463, 528}";
}
);
layerId = "2D8F7115-C311-411E-929D-56333CF7FFB2";
paths = (
{
closed = 1;
nodes = (
"269 0 LINE",
"400 220 LINE",
"402 220 LINE",
"459 0 LINE",
"597 0 LINE",
"851 528 LINE",
"673 528 LINE",
"544 206 LINE",
"541 206 LINE",
"477 512 LINE",
"417 512 LINE",
"252 206 LINE",
"248 206 LINE",
"239 528 LINE",
"77 528 LINE",
"131 0 LINE"
);
}
);
userData = {
RMXScaler = {
adjustSpace = 20;
height = 73;
weight = -120;
width = 79;
};
};
width = 822;
},
{
anchors = (
{
name = bottom;
position = "{331, 0}";
},
{
name = top;
position = "{433, 518}";
}
);
associatedMasterId = "AB099EFE-E788-4EFC-8633-CF147CB782A6";
layerId = "BC392A30-C41A-4454-ADD5-001BACC81FFF";
name = "{88}";
paths = (
{
closed = 1;
nodes = (
"219 0 LINE",
"396 335 LINE",
"400 335 LINE",
"473 0 LINE",
"550 0 LINE",
"790 518 LINE",
"701 518 LINE",
"521 110 LINE",
"518 110 LINE",
"435 494 LINE",
"399 494 LINE",
"204 111 LINE",
"201 111 LINE",
"164 518 LINE",
"82 518 LINE",
"142 0 LINE"
);
}
);
width = 768;
}
);
leftKerningGroup = LAT_V_LC;
rightKerningGroup = LAT_V_LC;
unicode = 0077;
userData = {
RMXScaler = {
source = W;
};
};
},
{
color = 9;
glyphname = w.ss06;
lastChange = "2020-07-14 04:30:13 +0000";
layers = (
{
anchors = (
{
name = bottom;
position = "{319, 0}";
},
{
name = top;
position = "{421, 512}";
}
);
background = {
paths = (
{
closed = 1;
nodes = (
"227 0 LINE",
"325 336 LINE",
"371 486 LINE",
"375 486 LINE",
"419 336 LINE",
"517 0 LINE",
"561 0 LINE",
"719 512 LINE",
"687 512 LINE",
"583 168 LINE",
"541 30 LINE",
"537 30 LINE",
"497 168 LINE",
"393 512 LINE",
"351 512 LINE",
"247 168 LINE",
"209 30 LINE",
"203 30 LINE",
"161 168 LINE",
"57 512 LINE",
"25 512 LINE",
"185 0 LINE"
);
}
);
};
layerId = "AB099EFE-E788-4EFC-8633-CF147CB782A6";
paths = (
{
closed = 1;
nodes = (
"175 0 LINE",
"278 198 LINE",
"405 448 LINE",
"411 448 LINE",
"438 198 LINE",
"461 0 LINE",
"497 0 LINE",
"757 512 LINE",
"725 512 LINE",
"572 208 LINE",
"488 36 LINE",
"486 36 LINE",
"464 208 LINE",
"431 512 LINE",
"409 512 LINE",
"252 208 LINE",
"166 36 LINE",
"164 36 LINE",
"144 208 LINE",
"115 512 LINE",
"83 512 LINE",
"139 0 LINE"
);
}
);
width = 742;
},
{
anchors = (
{
name = bottom;
position = "{349, 0}";
},
{
name = top;
position = "{455, 528}";
}
);
background = {
anchors = (
{
name = bottom;
position = "{347, 0}";
},
{
name = top;
position = "{453, 528}";
}
);
paths = (
{
closed = 1;
nodes = (
"263 0 LINE",
"346 150 LINE",
"395 254 LINE",
"397 254 LINE",
"412 150 LINE",
"435 0 LINE",
"593 0 LINE",
"849 528 LINE",
"661 528 LINE",
"578 306 LINE",
"534 178 LINE",
"530 178 LINE",
"516 310 LINE",
"495 528 LINE",
"407 528 LINE",
"299 310 LINE",
"236 178 LINE",
"232 178 LINE",
"236 306 LINE",
"245 528 LINE",
"61 528 LINE",
"105 0 LINE"
);
}
);
};
layerId = "2D8F7115-C311-411E-929D-56333CF7FFB2";
paths = (
{
closed = 1;
nodes = (
"263 0 LINE",
"324 110 LINE",
"393 233 LINE",
"395 233 LINE",
"424 110 LINE",
"449 0 LINE",
"591 0 LINE",
"843 528 LINE",
"665 528 LINE",
"580 315 LINE",
"536 199 LINE",
"533 199 LINE",
"518 315 LINE",
"489 528 LINE",
"409 528 LINE",
"301 315 LINE",
"244 199 LINE",
"240 199 LINE",
"237 315 LINE",
"231 528 LINE",
"69 528 LINE",
"121 0 LINE"
);
}
);
width = 806;
},
{
anchors = (
{
name = bottom;
position = "{336, 0}";
},
{
name = top;
position = "{441, 518}";
}
);
associatedMasterId = "AB099EFE-E788-4EFC-8633-CF147CB782A6";
layerId = "2689D1A1-7524-4226-83C3-DADF301F86C5";
name = "{88}";
paths = (
{
closed = 1;
nodes = (
"213 0 LINE",
"310 180 LINE",
"410 372 LINE",
"414 372 LINE",
"438 180 LINE",
"463 0 LINE",
"545 0 LINE",
"805 518 LINE",
"713 518 LINE",
"592 261 LINE",
"522 106 LINE",
"520 106 LINE",
"500 262 LINE",
"464 518 LINE",
"416 518 LINE",
"277 262 LINE",
"199 106 LINE",
"197 106 LINE",
"186 261 LINE",
"166 518 LINE",
"78 518 LINE",
"131 0 LINE"
);
}
);
width = 780;
}
);
leftKerningGroup = LAT_V_LC;
leftMetricsKey = v;
rightKerningGroup = LAT_V_LC;
rightMetricsKey = v;
},
{
glyphname = x;
lastChange = "2020-07-14 04:30:13 +0000";
layers = (
{
anchors = (
{
name = bottom;
position = "{186, 0}";
},
{
name = top;
position = "{288, 512}";
}
);
layerId = "AB099EFE-E788-4EFC-8633-CF147CB782A6";
paths = (
{
closed = 1;
nodes = (
"32 0 LINE",
"238 232 LINE",
"240 232 LINE",
"262 252 LINE",
"262 256 LINE",
"491 512 LINE",
"452 512 LINE",
"243 278 LINE",
"241 278 LINE",
"221 258 LINE",
"221 256 LINE",
"-9 0 LINE"
);
},
{
closed = 1;
nodes = (
"389 0 LINE",
"262 252 LINE",
"262 256 LINE",
"245 278 LINE",
"241 278 LINE",
"127 512 LINE",
"93 512 LINE",
"221 260 LINE",
"221 256 LINE",
"234 232 LINE",
"240 232 LINE",
"355 0 LINE"
);
}
);
userData = {
RMXScaler = {
height = 71;
weight = 16;
width = 73.5;
};
};
width = 482;
},
{
anchors = (
{
name = bottom;
position = "{238, 0}";
},
{
name = top;
position = "{344, 528}";
}
);
layerId = "2D8F7115-C311-411E-929D-56333CF7FFB2";
paths = (
{
closed = 1;
nodes = (
"154 0 LINE",
"273 157 LINE",
"278 157 LINE",
"394 258 LINE",
"396 260 LINE",
"607 528 LINE",
"419 528 LINE",
"306 362 LINE",
"302 362 LINE",
"185 270 LINE",
"183 268 LINE",
"-37 0 LINE"
);
},
{
closed = 1;
nodes = (
"507 0 LINE",
"394 256 LINE",
"392 258 LINE",
"306 362 LINE",
"302 362 LINE",
"229 528 LINE",
"65 528 LINE",
"185 272 LINE",
"187 270 LINE",
"273 157 LINE",
"276 157 LINE",
"339 0 LINE"
);
}
);
userData = {
RMXScaler = {
height = 73.5;
weight = -110;
width = 73;
};
};
width = 580;
},
{
anchors = (
{
name = bottom;
position = "{206, 0}";
},
{
name = top;
position = "{311, 518}";
}
);
associatedMasterId = "AB099EFE-E788-4EFC-8633-CF147CB782A6";
layerId = "00D15C2E-E138-474C-B365-C942AE11C728";
name = "{88}";
paths = (
{
closed = 1;
nodes = (
"83 0 LINE",
"249 200 LINE",
"254 200 LINE",
"313 254 LINE",
"313 257 LINE",
"535 518 LINE",
"434 518 LINE",
"267 317 LINE",
"262 317 LINE",
"204 267 LINE",
"204 265 LINE",
"-22 0 LINE"
);
},
{
closed = 1;
nodes = (
"437 0 LINE",
"313 253 LINE",
"313 257 LINE",
"269 317 LINE",
"264 317 LINE",
"169 518 LINE",
"80 518 LINE",
"204 269 LINE",
"204 267 LINE",
"247 200 LINE",
"253 200 LINE",
"347 0 LINE"
);
}
);
width = 517;
}
);
leftKerningGroup = LAT_X_LC;
rightKerningGroup = LAT_X_LC;
unicode = 0078;
userData = {
RMXScaler = {
source = X;
};
};
},
{
glyphname = y;
lastChange = "2020-07-14 04:30:13 +0000";
layers = (
{
anchors = (
{
name = bottom;
position = "{64, -206}";
},
{
name = top;
position = "{322, 512}";
}
);
guideLines = (
{
angle = 68.6294;
position = "{132, -86}";
},
{
angle = 67.5;
position = "{15, -7}";
}
);
layerId = "AB099EFE-E788-4EFC-8633-CF147CB782A6";
paths = (
{
closed = 1;
nodes = (
"113 -214 OFFCURVE",
"148 -158 OFFCURVE",
"188 -88 CURVE SMOOTH",
"535 512 LINE",
"501 512 LINE",
"227 32 LINE",
"223 32 LINE",
"131 512 LINE",
"101 512 LINE",
"207 -28 LINE",
"210 2 LINE",
"162 -78 LINE SMOOTH",
"133 -126 OFFCURVE",
"104 -186 OFFCURVE",
"45 -186 CURVE SMOOTH",
"6 -186 OFFCURVE",
"-27 -162 OFFCURVE",
"-41 -142 CURVE",
"-53 -171 LINE",
"-42 -188 OFFCURVE",
"-5 -214 OFFCURVE",
"43 -214 CURVE SMOOTH"
);
}
);
width = 520;
},
{
anchors = (
{
name = bottom;
position = "{112, -206}";
},
{
name = top;
position = "{358, 528}";
}
);
guideLines = (
{
angle = 67.5;
position = "{40, 20}";
}
);
layerId = "2D8F7115-C311-411E-929D-56333CF7FFB2";
paths = (
{
closed = 1;
nodes = (
"230 -214 OFFCURVE",
"285 -128 OFFCURVE",
"320 -64 CURVE SMOOTH",
"643 528 LINE",
"455 528 LINE",
"295 174 LINE",
"291 174 LINE",
"248 528 LINE",
"73 528 LINE",
"189 -24 LINE",
"218 64 LINE",
"182 -8 LINE SMOOTH",
"171 -30 OFFCURVE",
"143 -70 OFFCURVE",
"100 -70 CURVE SMOOTH",
"67 -70 OFFCURVE",
"30 -47 OFFCURVE",
"19 -35 CURVE",
"-38 -173 LINE",
"-18 -189 OFFCURVE",
"49 -214 OFFCURVE",
"112 -214 CURVE SMOOTH"
);
}
);
width = 606;
},
{
anchors = (
{
name = bottom;
position = "{127, -206}";
},
{
name = top;
position = "{335, 518}";
}
);
associatedMasterId = "AB099EFE-E788-4EFC-8633-CF147CB782A6";
layerId = "5EDC6717-CFB4-4383-96F1-1F8CC126DDAE";
name = "{88}";
paths = (
{
closed = 1;
nodes = (
"158 -214 OFFCURVE",
"197 -138 OFFCURVE",
"233 -74 CURVE SMOOTH",
"571 518 LINE",
"475 518 LINE",
"249 103 LINE",
"245 103 LINE",
"168 518 LINE",
"84 518 LINE",
"194 -19 LINE",
"204 27 LINE",
"162 -47 LINE SMOOTH",
"143 -81 OFFCURVE",
"114 -138 OFFCURVE",
"56 -138 CURVE SMOOTH",
"21 -138 OFFCURVE",
"-10 -117 OFFCURVE",
"-27 -100 CURVE",
"-61 -174 LINE",
"-47 -188 OFFCURVE",
"0 -214 OFFCURVE",
"58 -214 CURVE SMOOTH"
);
}
);
width = 546;
}
);
leftKerningGroup = LAT_Y_LC;
rightKerningGroup = LAT_Y_LC;
rightMetricsKey = v;
unicode = 0079;
},
{
glyphname = z;
lastChange = "2020-07-14 04:30:13 +0000";
layers = (
{
anchors = (
{
name = bottom;
position = "{178, 0}";
},
{
name = center;
position = "{229, 256}";
},
{
name = leghookretroflex;
position = "{335, 0}";
},
{
name = top;
position = "{280, 512}";
}
);
layerId = "AB099EFE-E788-4EFC-8633-CF147CB782A6";
paths = (
{
closed = 1;
nodes = (
"349 0 LINE",
"354 28 LINE",
"57 28 LINE",
"57 31 LINE",
"446 498 LINE",
"447 512 LINE",
"121 512 LINE",
"116 484 LINE",
"396 484 LINE",
"396 482 LINE",
"9 18 LINE",
"5 0 LINE"
);
}
);
width = 456;
},
{
anchors = (
{
name = bottom;
position = "{206, 0}";
},
{
name = center;
position = "{259, 264}";
},
{
name = leghookretroflex;
position = "{337, 0}";
},
{
name = top;
position = "{312, 528}";
}
);
layerId = "2D8F7115-C311-411E-929D-56333CF7FFB2";
paths = (
{
closed = 1;
nodes = (
"425 0 LINE",
"457 148 LINE",
"259 148 LINE",
"265 152 LINE",
"526 492 LINE",
"533 528 LINE",
"105 528 LINE",
"74 380 LINE",
"253 380 LINE",
"247 374 LINE",
"-14 34 LINE",
"-19 0 LINE"
);
}
);
width = 513;
},
{
anchors = (
{
name = bottom;
position = "{192, 0}";
},
{
name = center;
position = "{244, 261}";
},
{
name = leghookretroflex;
position = "{346, 0}";
},
{
name = top;
position = "{297, 518}";
}
);
associatedMasterId = "AB099EFE-E788-4EFC-8633-CF147CB782A6";
layerId = "C178E186-DE4A-40D2-9158-D3BCDD915D3F";
name = "{88}";
paths = (
{
closed = 1;
nodes = (
"388 0 LINE",
"402 73 LINE",
"145 73 LINE",
"145 76 LINE",
"485 500 LINE",
"489 518 LINE",
"111 518 LINE",
"96 445 LINE",
"341 445 LINE",
"341 443 LINE",
"0 21 LINE",
"-5 0 LINE"
);
}
);
width = 486;
}
);
leftKerningGroup = LAT_Z_LC;
rightKerningGroup = LAT_Z_LC;
unicode = 007A;
},
{
glyphname = fl;
lastChange = "2020-07-13 23:32:11 +0000";
layers = (
{
background = {
paths = (
{
closed = 1;
nodes = (
"161 0 LINE",
"161 620 LINE SMOOTH",
"161 688 OFFCURVE",
"197 732 OFFCURVE",
"253 732 CURVE SMOOTH",
"283 732 OFFCURVE",
"309 720 OFFCURVE",
"323 712 CURVE",
"323 742 LINE",
"305 756 OFFCURVE",
"279 760 OFFCURVE",
"257 760 CURVE SMOOTH",
"169 760 OFFCURVE",
"131 698 OFFCURVE",
"131 614 CURVE SMOOTH",
"131 0 LINE"
);
},
{
closed = 1;
nodes = (
"313 484 LINE",
"313 512 LINE",
"45 512 LINE",
"45 484 LINE"
);
}
);
};
components = (
{
name = f;
}
);
layerId = "AB099EFE-E788-4EFC-8633-CF147CB782A6";
paths = (
{
closed = 1;
nodes = (
"445 -4 OFFCURVE",
"460 -2 OFFCURVE",
"471 2 CURVE",
"475 32 LINE",
"469 28 OFFCURVE",
"454 24 OFFCURVE",
"437 24 CURVE SMOOTH",
"400 24 OFFCURVE",
"411 62 OFFCURVE",
"417 94 CURVE SMOOTH",
"542 720 LINE",
"512 720 LINE",
"387 94 LINE SMOOTH",
"373 23 OFFCURVE",
"390 -4 OFFCURVE",
"436 -4 CURVE SMOOTH"
);
}
);
width = 558;
},
{
background = {
paths = (
{
closed = 1;
nodes = (
"288 0 LINE",
"288 560 LINE SMOOTH",
"288 590 OFFCURVE",
"316 610 OFFCURVE",
"354 610 CURVE SMOOTH",
"378 610 OFFCURVE",
"400 606 OFFCURVE",
"424 596 CURVE",
"424 744 LINE",
"408 752 OFFCURVE",
"362 760 OFFCURVE",
"324 760 CURVE SMOOTH",
"184 760 OFFCURVE",
"114 680 OFFCURVE",
"114 560 CURVE SMOOTH",
"114 0 LINE"
);
},
{
closed = 1;
nodes = (
"428 378 LINE",
"428 528 LINE",
"16 528 LINE",
"16 378 LINE"
);
}
);
};
components = (
{
name = f;
}
);
layerId = "2D8F7115-C311-411E-929D-56333CF7FFB2";
paths = (
{
closed = 1;
nodes = (
"638 -8 OFFCURVE",
"666 -4 OFFCURVE",
"690 4 CURVE",
"710 144 LINE",
"706 142 OFFCURVE",
"697 136 OFFCURVE",
"686 136 CURVE SMOOTH",
"662 136 OFFCURVE",
"662 150 OFFCURVE",
"665 166 CURVE SMOOTH",
"777 720 LINE",
"603 720 LINE",
"488 152 LINE SMOOTH",
"472 72 OFFCURVE",
"513 -8 OFFCURVE",
"606 -8 CURVE SMOOTH"
);
}
);
width = 781;
}
);
leftKerningGroup = LAT_F_LC;
leftMetricsKey = f;
rightKerningGroup = LAT_L_LC;
rightMetricsKey = l;
unicode = FB02;
},
{
color = 4;
glyphname = fl.ss01;
lastChange = "2020-07-14 04:51:12 +0000";
layers = (
{
components = (
{
name = f.ss01;
}
);
layerId = "AB099EFE-E788-4EFC-8633-CF147CB782A6";
paths = (
{
closed = 1;
nodes = (
"412 0 LINE",
"555 720 LINE",
"524 720 LINE",
"381 0 LINE"
);
}
);
width = 557;
},
{
components = (
{
name = f.ss01;
}
);
layerId = "2D8F7115-C311-411E-929D-56333CF7FFB2";
paths = (
{
closed = 1;
nodes = (
"626 0 LINE",
"770 720 LINE",
"595 720 LINE",
"451 0 LINE"
);
}
);
width = 749;
}
);
leftKerningGroup = LAT_F_LC;
leftMetricsKey = f.ss01;
rightKerningGroup = LAT_L_LC;
rightMetricsKey = l.ss01;
},
{
glyphname = r_slash.liga;
lastChange = "2020-07-14 11:31:13 +0000";
layers = (
{
components = (
{
name = slash;
transform = "{1, 0, 0, 1, 279, 0}";
}
);
layerId = "AB099EFE-E788-4EFC-8633-CF147CB782A6";
paths = (
{
closed = 1;
nodes = (
"63 0 LINE",
"127 319 LINE SMOOTH",
"145 407 OFFCURVE",
"256 492 OFFCURVE",
"346 492 CURVE SMOOTH",
"375 492 OFFCURVE",
"410 484 OFFCURVE",
"424 475 CURVE",
"439 502 LINE",
"427 510 OFFCURVE",
"393 520 OFFCURVE",
"355 520 CURVE SMOOTH",
"276 520 OFFCURVE",
"192 478 OFFCURVE",
"141 407 CURVE",
"152 416 LINE",
"146 416 LINE",
"165 512 LINE",
"135 512 LINE",
"33 0 LINE"
);
}
);
width = 628;
},
{
components = (
{
name = slash;
transform = "{1, 0, 0, 1, 389, 0}";
}
);
layerId = "2D8F7115-C311-411E-929D-56333CF7FFB2";
paths = (
{
closed = 1;
nodes = (
"181 0 LINE",
"234 262 LINE SMOOTH",
"248 330 OFFCURVE",
"294 368 OFFCURVE",
"366 368 CURVE SMOOTH",
"399 368 OFFCURVE",
"427 363 OFFCURVE",
"440 354 CURVE",
"536 516 LINE",
"526 524 OFFCURVE",
"499 536 OFFCURVE",
"443 536 CURVE SMOOTH",
"352 536 OFFCURVE",
"278 489 OFFCURVE",
"251 447 CURVE",
"292 470 LINE",
"268 470 LINE",
"281 528 LINE",
"113 528 LINE",
"7 0 LINE"
);
}
);
width = 858;
},
{
associatedMasterId = "AB099EFE-E788-4EFC-8633-CF147CB782A6";
components = (
{
alignment = -1;
name = slash;
transform = "{1, 0, 0, 1, 313, 0}";
}
);
layerId = "AE228945-C07C-4A7E-AD69-A54193E2A8A9";
name = "{88}";
paths = (
{
closed = 1;
nodes = (
"101 0 LINE",
"163 304 LINE SMOOTH",
"180 384 OFFCURVE",
"262 447 OFFCURVE",
"349 447 CURVE SMOOTH",
"371 447 OFFCURVE",
"401 440 OFFCURVE",
"418 429 CURVE",
"464 508 LINE",
"456 515 OFFCURVE",
"426 526 OFFCURVE",
"382 526 CURVE SMOOTH",
"284 526 OFFCURVE",
"209 478 OFFCURVE",
"170 418 CURVE",
"209 443 LINE",
"187 443 LINE",
"203 518 LINE",
"120 518 LINE",
"17 0 LINE"
);
}
);
width = 707;
}
);
leftKerningGroup = LAT_R_LC;
leftMetricsKey = r;
rightKerningGroup = PCT_SLASHSS10;
rightMetricsKey = slash;
},
